SplineFontDB: 3.0
FontName: AmiriText-Regular
FullName: Amiri Text Regular
FamilyName: Amiri Text
Weight: Regular
Copyright: Copyright (C) 2010  Khaled Hosny <khaledhosny@elug.org>
UComments: "2010-5-8: Created." 
Version: 000.001
ItalicAngle: 0
UnderlinePosition: -100
UnderlineWidth: 50
Ascent: 800
Descent: 200
LayerCount: 2
Layer: 0 0 "Back"  1
Layer: 1 0 "Fore"  0
NeedsXUIDChange: 1
XUID: [1021 862 584604386 637949]
FSType: 8
OS2Version: 0
OS2_WeightWidthSlopeOnly: 0
OS2_UseTypoMetrics: 1
CreationTime: 1273266481
ModificationTime: 1273269687
PfmFamily: 17
TTFWeight: 500
TTFWidth: 5
LineGap: 90
VLineGap: 0
OS2TypoAscent: 0
OS2TypoAOffset: 1
OS2TypoDescent: 0
OS2TypoDOffset: 1
OS2TypoLinegap: 90
OS2WinAscent: 0
OS2WinAOffset: 1
OS2WinDescent: 0
OS2WinDOffset: 1
HheadAscent: 0
HheadAOffset: 1
HheadDescent: 0
HheadDOffset: 1
OS2Vendor: 'PfEd'
MarkAttachClasses: 1
DEI: 91125
LangName: 3073 "" "" "+BjkGJwYvBkoA" "" "" "" "" "" "" "+BkUGLQZFBi8A +BiwGOQZBBjEA" 
LangName: 1033 "" "" "" "" "" "" "" "" "" "Muhammad Ja'far" 
Encoding: UnicodeBmp
UnicodeInterp: none
NameList: Adobe Glyph List
DisplaySize: -72
AntiAlias: 1
FitToEm: 1
WinInfo: 64 8 2
BeginChars: 65722 188

StartChar: kaf+raa.fina
Encoding: 65536 -1 0
Width: 0
VWidth: 0
Flags: H
LayerCount: 2
Fore
SplineSet
880 802 m 1
 880 802 l 1
 860 749 l 2
 858 743 849 740 846 739 c 0
 756 721 356 592 311 538 c 1
 423 459 592 260 670 174 c 0
 703 138 736 102 773 89 c 0
 803 79 795 -6 774 -2 c 0
 723 7 693 44 635 111 c 0
 600 151 543 224 512 249 c 1
 525 141 517 59 484 25 c 0
 467 8 425 3 395 0 c 0
 374 -2 344 132 386 117 c 0
 416 107 459 106 494 131 c 1
 492 218 377 364 260 466 c 1
 260 466 256 513 261 534 c 0
 266 553 303 605 303 605 c 2
 319 632 689 782 869 819 c 0
 880 821 883 810 880 802 c 1
386 117 m 0
 436 69 397 19 395 -0 c 0
 381 -140 257 -266 185 -271 c 0
 145 -274 55 -218 36 -208 c 0
 26 -202 29 -190 39 -191 c 0
 87 -195 100 -206 153 -201 c 0
 192 -197 315 -131 354 -42 c 1
 358 -18 347 1 333 19 c 0
 328 25 325 31 327 38 c 2
 348 129 l 2
 348 131 358 133 362 130 c 0
 368 125 379 124 386 117 c 0
EndSplineSet
EndChar

StartChar: baa+raa.isol
Encoding: 65537 -1 1
Width: 0
VWidth: 0
Flags: H
LayerCount: 2
Fore
SplineSet
502 263 m 0
 507 263 513 258 514 251 c 0
 524 158 498 88 419 75 c 0
 394 71 370 72 350 82 c 0
 337 89 342 106 343 114 c 0
 347 136 352 160 358 190 c 0
 360 201 372 201 376 196 c 0
 407 158 495 165 492 250 c 0
 492 259 497 263 502 263 c 0
376 196 m 0
 409 155 416 128 409 57 c 0
 402 -11 373 -66 325 -120 c 0
 284 -166 239 -196 196 -198 c 0
 124 -201 68 -185 8 -146 c 0
 -6 -138 0 -123 13 -128 c 0
 95 -155 164 -145 240 -102 c 1
 293 -71 358 -13 375 40 c 1
 377 59 380 66 350 82 c 0
 337 89 342 106 343 114 c 0
 347 136 352 160 358 190 c 0
 360 201 372 201 376 196 c 0
EndSplineSet
EndChar

StartChar: baa+haa+meem.init
Encoding: 65538 -1 2
Width: 0
VWidth: 0
Flags: H
LayerCount: 2
Fore
SplineSet
147 390 m 0
 160 400 217 402 288 376 c 0
 419 328 517 293 673 287 c 1
 687 284 694 277 689 268 c 0
 681 253 661 215 649 203 c 0
 644 198 640 198 633 199 c 0
 503 215 407 234 273 198 c 0
 232 187 165 156 141 207 c 1
 180 233 268 251 340 259 c 1
 261 296 194 311 113 304 c 0
 108 304 105 305 107 311 c 0
 117 339 135 381 147 390 c 0
141 207 m 0
 164 223 248 225 273 198 c 0
 310 159 329 106 321 86 c 0
 309 56 281 15 273 12 c 0
 247 0 148 40 96 79 c 1
 68 24 25 0 0 0 c 0
 -39 0 -28 92 -0 91 c 0
 36 89 79 99 92 112 c 0
 100 120 124 195 141 207 c 0
281 97 m 0
 276 120 230 160 191 170 c 0
 177 173 163 168 153 159 c 0
 149 155 148 150 152 146 c 0
 167 134 227 104 274 90 c 0
 279 89 282 92 281 97 c 0
534 596 m 1
 534 596 l 1
 551 596 568 586 574 569 c 0
 594 509 567 412 562 392 c 0
 558 374 537 377 540 397 c 0
 546 438 548 492 494 496 c 0
 466 498 392 408 288 376 c 0
 229 358 208 347 113 304 c 1
 108 304 105 305 107 311 c 0
 117 339 135 381 147 390 c 0
 166 405 295 422 385 478 c 0
 464 527 488 597 534 596 c 1
EndSplineSet
EndChar

StartChar: haa.init
Encoding: 65539 -1 3
Width: 0
VWidth: 0
Flags: H
LayerCount: 2
Fore
SplineSet
-4 218 m 0
 5 252 50 312 111 313 c 0
 190 314 337 195 566 212 c 0
 589 214 581 199 579 194 c 2
 551 133 l 2
 546 122 536 122 530 123 c 0
 324 157 168 55 0 0 c 0
 -17 -5 -25 85 -1 90 c 0
 77 106 175 126 255 163 c 1
 166 208 114 225 12 204 c 0
 1 202 -7 208 -4 218 c 0
EndSplineSet
EndChar

StartChar: lam+alef.isol
Encoding: 65540 -1 4
Width: 0
VWidth: 0
Flags: H
LayerCount: 2
Fore
SplineSet
264 85 m 0
 274 84 319 83 334 83 c 0
 349 83 390 86 401 90 c 1
 399 114 392 135 387 147 c 0
 382 159 375 179 372 186 c 0
 312 310 176 494 119 547 c 1
 105 521 l 1
 98 517 87 517 80 525 c 2
 11 599 l 2
 2 610 -3 618 -0 638 c 2
 13 726 l 2
 16 745 30 740 37 733 c 1
 99 684 336 392 399 232 c 0
 403 223 407 214 414 191 c 0
 427 148 443 101 443 65 c 0
 443 34 425 9 413 6 c 0
 368 -6 231 -2 215 0 c 0
 207 1 199 2 196 8 c 0
 186 26 191 69 201 80 c 0
 204 83 207 90 215 89 c 0
 228 87 252 86 264 85 c 0
334 83 m 0
 293 37 190 47 262 87 c 0
 306 111 344 146 372 186 c 0
 382 200 394 223 399 232 c 0
 450 318 459 517 448 660 c 0
 447 679 445 698 451 709 c 0
 461 726 469 741 477 755 c 0
 481 762 492 759 494 751 c 0
 499 730 511 691 526 674 c 0
 535 664 531 653 525 647 c 0
 516 637 510 631 497 618 c 1
 504 404 439 232 414 190 c 0
 405 175 402 169 387 147 c 0
 373 126 353 104 334 83 c 0
EndSplineSet
EndChar

StartChar: kaf+meem+alef.fina
Encoding: 65541 -1 5
Width: 0
VWidth: 0
Flags: H
LayerCount: 2
Fore
SplineSet
73 380 m 0
 72 159 113 76 151 33 c 0
 183 -3 164 -126 107 -42 c 0
 41 56 26 212 27 422 c 0
 27 507 15 600 1 674 c 0
 -1 683 -2 690 1 695 c 2
 33 743 l 2
 38 751 46 751 48 737 c 0
 62 630 70 535 71 471 c 0
 72 441 73 411 73 380 c 0
151 33 m 0
 153 32 155 30 156 33 c 0
 160 51 166 65 175 40 c 0
 191 -5 248 -38 304 -48 c 0
 310 -49 315 -54 315 -67 c 2
 313 -144 l 2
 313 -157 313 -161 304 -160 c 0
 211 -145 150 -106 107 -42 c 0
 72 10 118 59 151 33 c 0
67 471 m 0
 165 612 523 725 717 771 c 0
 718 771 719 771 720 771 c 2
 720 771 l 2
 725 771 731 767 730 760 c 2
 720 698 l 2
 718 689 713 689 710 688 c 0
 513 632 305 577 112 465 c 1
 193 440 317 380 419 296 c 0
 526 208 613 115 668 90 c 0
 713 69 682 -6 667 0 c 0
 587 31 473 182 374 248 c 1
 379 214 383 173 367 134 c 0
 325 32 222 97 177 50 c 0
 174 47 174 46 175 40 c 0
 182 -6 149 -4 156 33 c 0
 175 139 276 136 349 140 c 0
 356 140 355 150 355 153 c 0
 360 267 136 367 73 380 c 0
 49 385 43 437 67 471 c 0
EndSplineSet
EndChar

StartChar: baa.init
Encoding: 65542 -1 6
Width: 0
VWidth: 0
Flags: H
LayerCount: 2
Fore
SplineSet
56 276 m 0
 60 283 68 281 72 274 c 0
 83 255 100 209 89 114 c 0
 80 38 30 11 0 0 c 1
 -10 0 -17 30 -21 51 c 0
 -25 72 -24 85 0 91 c 0
 29 98 45 110 54 122 c 0
 56 125 55 127 55 129 c 0
 51 152 40 170 28 187 c 0
 23 194 23 205 26 211 c 0
 36 235 47 262 56 276 c 0
EndSplineSet
EndChar

StartChar: dal.isol
Encoding: 65543 -1 7
Width: 0
VWidth: 0
Flags: H
LayerCount: 2
Fore
SplineSet
130 418 m 0
 134 424 138 426 145 424 c 0
 236 384 300 312 319 213 c 1
 326 169 326 124 310 78 c 0
 307 68 296 57 289 54 c 0
 225 27 101 -10 33 4 c 0
 -3 12 -13 49 23 126 c 0
 28 137 39 135 44 130 c 0
 61 113 77 114 123 120 c 0
 166 126 248 137 278 158 c 0
 280 159 281 167 280 169 c 0
 253 255 185 293 108 315 c 1
 101 319 97 328 99 336 c 0
 105 361 118 404 130 418 c 0
EndSplineSet
EndChar

StartChar: baa+raa.fina
Encoding: 65544 -1 8
Width: 0
VWidth: 0
Flags: H
LayerCount: 2
Fore
SplineSet
618 91 m 0
 630 87 648 79 644 52 c 0
 640 25 629 -1 618 0 c 0
 532 9 525 66 514 198 c 0
 514 202 512 202 510 198 c 0
 473 118 430 117 399 113 c 0
 333 104 352 231 387 205 c 0
 390 202 394 200 399 200 c 0
 474 197 494 228 516 300 c 0
 520 315 538 311 540 298 c 0
 557 176 545 117 618 91 c 0
378 216 m 0
 385 203 400 195 401 181 c 0
 402 161 399 136 396 109 c 0
 394 83 392 54 383 13 c 0
 364 -69 260 -184 201 -196 c 0
 151 -206 67 -173 6 -148 c 0
 -2 -145 -5 -130 13 -132 c 0
 71 -139 124 -145 180 -130 c 0
 257 -110 334 -26 365 26 c 0
 366 27 366 29 366 31 c 0
 366 71 338 110 322 131 c 0
 320 133 320 134 321 137 c 0
 330 171 340 205 350 239 c 0
 351 244 357 243 361 240 c 0
 368 235 373 225 378 216 c 0
EndSplineSet
EndChar

StartChar: baa+baa+haa.init
Encoding: 65545 -1 9
Width: 0
VWidth: 0
Flags: H
LayerCount: 2
Fore
SplineSet
386 456 m 1
 414 478 436 468 451 439 c 0
 475 395 480 366 533 365 c 0
 549 365 536 278 514 277 c 0
 427 274 421 378 392 384 c 0
 361 390 332 356 303 335 c 0
 224 281 111 236 40 216 c 0
 35 215 30 216 26 221 c 0
 17 232 41 281 74 291 c 0
 121 305 180 322 228 344 c 0
 300 376 337 410 386 456 c 1
66 280 m 0
 90 274 109 267 148 257 c 0
 256 230 321 208 426 194 c 0
 477 187 538 183 592 182 c 0
 608 182 615 172 608 159 c 2
 575 104 l 2
 572 98 569 95 562 97 c 0
 476 115 384 108 303 91 c 0
 203 70 102 15 0 0 c 0
 -29 -4 -47 90 0 91 c 0
 59 92 179 118 269 140 c 1
 179 164 108 177 13 192 c 0
 8 193 5 196 7 202 c 0
 12 222 44 286 66 280 c 0
514 277 m 0
 483 276 492 367 533 365 c 0
 571 363 587 403 591 438 c 0
 593 458 613 452 613 437 c 0
 614 401 599 279 514 277 c 0
EndSplineSet
EndChar

StartChar: kaf+yaa.fina
Encoding: 65546 -1 10
Width: 0
VWidth: 0
Flags: H
LayerCount: 2
Fore
SplineSet
392 31 m 0
 401 33 458 28 504 21 c 0
 559 13 608 -6 620 -42 c 0
 627 -62 595 -145 568 -168 c 0
 478 -246 348 -304 239 -313 c 0
 55 -326 -13 -198 4 -63 c 0
 10 -11 39 59 60 92 c 0
 68 104 85 95 75 77 c 0
 33 7 2 -159 174 -205 c 0
 338 -249 564 -96 575 -82 c 1
 526 -50 451 -49 382 -44 c 0
 374 -43 373 -39 374 -31 c 2
 382 20 l 2
 383 25 385 29 392 31 c 0
976 816 m 0
 961 759 l 2
 957 742 947 736 932 731 c 0
 635 638 349 528 284 476 c 0
 282 474 285 471 287 470 c 0
 590 300 726 132 899 91 c 0
 921 86 934 83 927 49 c 0
 920 15 909 -1 899 0 c 0
 810 8 645 150 519 236 c 1
 555 123 555 74 504 21 c 0
 470 -14 426 -42 382 -44 c 0
 374 -44 373 -39 374 -31 c 2
 382 20 l 2
 383 25 386 29 392 31 c 0
 445 47 524 88 527 111 c 1
 494 212 349 312 254 381 c 1
 245 400 236 452 244 477 c 0
 252 503 301 567 327 581 c 0
 489 667 762 765 960 830 c 0
 973 834 978 823 976 816 c 0
EndSplineSet
EndChar

StartChar: seen+meem.init
Encoding: 65547 -1 11
Width: 0
VWidth: 0
Flags: H
LayerCount: 2
Fore
SplineSet
559 387 m 0
 571 407 583 427 596 446 c 0
 599 450 600 447 601 445 c 0
 620 422 624 378 612 336 c 0
 604 307 592 275 577 259 c 0
 553 234 462 265 432 286 c 0
 431 287 428 287 426 285 c 0
 392 236 359 216 302 220 c 0
 263 223 250 250 232 280 c 0
 226 290 216 301 204 303 c 0
 181 307 145 299 125 282 c 0
 122 279 118 275 118 270 c 0
 110 212 160 148 193 138 c 1
 217 45 103 80 92 122 c 0
 78 175 76 243 108 305 c 0
 136 359 181 398 227 396 c 0
 273 394 275 317 334 314 c 0
 401 310 434 375 470 425 c 0
 481 440 499 428 487 405 c 0
 484 398 477 387 477 382 c 0
 477 372 485 365 493 361 c 0
 520 349 563 341 577 347 c 0
 580 348 581 350 580 353 c 0
 574 365 568 373 560 381 c 0
 558 383 557 384 559 387 c 0
92 122 m 0
 113 131 153 149 193 138 c 0
 236 126 267 115 299 83 c 0
 304 78 303 76 301 69 c 0
 291 41 275 13 259 -9 c 0
 256 -13 253 -13 248 -10 c 0
 216 12 179 38 131 40 c 0
 64 43 51 10 0 0 c 0
 -18 -4 -32 87 -1 90 c 0
 34 93 57 107 92 122 c 0
EndSplineSet
EndChar

StartChar: kaf+baa.medi
Encoding: 65548 -1 12
Width: 0
VWidth: 0
Flags: H
LayerCount: 2
Fore
SplineSet
269 94 m 0
 306 87 291 12 271 18 c 0
 233 29 196 53 179 75 c 1
 149 29 117 5 90 2 c 0
 72 0 63 92 91 92 c 0
 131 93 157 107 174 127 c 0
 177 130 187 132 192 128 c 0
 215 112 239 100 269 94 c 0
637 717 m 0
 615 646 l 2
 614 642 612 639 608 638 c 0
 420 583 83 431 41 387 c 0
 39 385 39 381 42 380 c 0
 150 359 253 316 354 257 c 0
 424 216 569 104 634 81 c 0
 678 66 653 -18 634 -8 c 0
 521 49 442 128 358 173 c 0
 355 175 353 173 355 170 c 0
 375 132 393 66 364 33 c 0
 343 8 307 7 271 18 c 0
 246 26 218 108 269 94 c 0
 292 88 318 88 347 92 c 0
 352 93 350 95 349 100 c 0
 319 208 123 272 25 303 c 0
 20 305 12 310 9 316 c 0
 4 327 1 349 1 368 c 0
 1 398 10 426 17 435 c 0
 70 505 386 646 613 733 c 0
 627 738 641 730 637 717 c 0
EndSplineSet
EndChar

StartChar: ayn.medi
Encoding: 65549 -1 13
Width: 0
VWidth: 0
Flags: H
LayerCount: 2
Fore
SplineSet
356 82 m 0
 386 80 389 62 388 43 c 0
 387 24 379 -10 356 -10 c 0
 286 -9 241 15 179 88 c 1
 124 57 30 8 0 0 c 1
 -12 0 -23 3 -30 39 c 0
 -37 74 -33 89 0 91 c 0
 18 92 67 105 117 133 c 1
 93 154 47 170 14 176 c 0
 8 177 8 180 9 187 c 0
 18 237 90 306 163 303 c 0
 235 300 317 237 311 194 c 0
 307 163 262 139 239 123 c 1
 272 101 313 85 356 82 c 0
EndSplineSet
EndChar

StartChar: heh+meem.init
Encoding: 65550 -1 14
Width: 0
VWidth: 0
Flags: H
LayerCount: 2
Fore
SplineSet
424 603 m 0
 445 604 500 575 558 524 c 1
 615 479 655 416 652 353 c 0
 650 311 628 277 615 265 c 0
 609 260 603 259 596 259 c 0
 559 259 480 270 427 281 c 1
 388 247 352 227 303 213 c 0
 255 200 195 268 236 266 c 0
 320 262 354 277 378 296 c 1
 371 299 366 303 353 309 c 0
 301 335 365 472 412 494 c 1
 401 504 388 508 370 498 c 0
 362 494 354 504 356 511 c 0
 363 542 381 589 409 599 c 0
 410 599 423 603 424 603 c 0
482 403 m 1
 478 421 449 467 423 462 c 0
 404 458 373 424 365 404 c 0
 362 398 365 388 370 383 c 0
 382 370 410 366 450 358 c 1
 463 369 474 379 479 386 c 0
 483 392 485 397 482 403 c 1
508 449 m 1
 512 419 505 386 486 351 c 1
 541 341 598 332 618 336 c 0
 626 338 622 345 618 350 c 0
 586 402 541 431 508 449 c 1
236 266 m 0
 266 264 288 238 300 206 c 0
 322 148 299 82 272 65 c 0
 264 60 250 58 241 58 c 0
 202 59 140 90 115 112 c 1
 81 54 28 0 0 0 c 0
 -25 0 -23 91 -0 91 c 0
 35 92 82 117 92 137 c 0
 102 156 112 195 132 225 c 0
 152 256 180 270 236 266 c 0
269 148 m 0
 253 186 207 214 162 212 c 0
 152 212 145 203 154 192 c 0
 170 172 233 144 262 140 c 0
 268 139 271 143 269 148 c 0
EndSplineSet
EndChar

StartChar: kaf.fina
Encoding: 65551 -1 15
Width: 0
VWidth: 0
Flags: H
LayerCount: 2
Fore
SplineSet
639 707 m 0
 653 547 662 393 681 236 c 0
 695 120 750 97 760 94 c 0
 804 82 778 -2 760 0 c 0
 718 4 660 16 643 175 c 1
 622 125 574 61 525 36 c 0
 443 -6 361 -25 271 -28 c 0
 113 -33 43 7 14 62 c 0
 -31 147 46 268 62 286 c 0
 72 297 93 289 78 269 c 0
 51 232 38 192 40 172 c 0
 50 94 167 68 255 67 c 0
 292 67 536 80 602 178 c 0
 627 216 594 410 585 637 c 0
 585 642 585 645 587 648 c 2
 627 710 l 2
 633 719 639 712 639 707 c 0
379 576 m 1
 385 576 387 570 385 565 c 2
 364 512 l 2
 360 502 356 499 353 498 c 0
 340 495 321 486 314 477 c 0
 308 469 332 456 379 449 c 0
 426 442 411 405 408 397 c 0
 397 367 363 312 337 305 c 0
 308 298 226 306 185 321 c 0
 170 326 171 342 183 343 c 0
 257 348 325 344 349 357 c 0
 355 360 352 367 343 369 c 2
 314 376 l 2
 283 383 261 405 267 428 c 0
 285 502 316 559 379 576 c 1
EndSplineSet
EndChar

StartChar: faa+yaa.fina
Encoding: 65552 -1 16
Width: 0
VWidth: 0
Flags: H
LayerCount: 2
Fore
SplineSet
400 108 m 0
 425 106 484 97 512 81 c 0
 541 65 584 43 592 18 c 0
 596 5 578 -57 568 -69 c 0
 519 -124 368 -191 243 -196 c 0
 189 -198 133 -198 92 -178 c 0
 -6 -129 -10 -48 11 34 c 0
 33 116 66 168 88 198 c 0
 98 211 115 197 105 184 c 0
 67 133 38 67 45 20 c 0
 56 -52 119 -96 236 -99 c 0
 346 -102 464 -66 541 -20 c 0
 543 -19 543 -17 541 -16 c 0
 484 24 411 37 373 43 c 0
 369 44 369 45 370 49 c 0
 373 65 385 87 393 104 c 0
 395 109 395 108 400 108 c 0
477 427 m 0
 491 428 499 422 507 415 c 0
 540 385 555 341 562 280 c 1
 578 279 588 278 597 278 c 0
 617 277 628 273 625 239 c 0
 622 205 609 188 597 188 c 0
 586 188 573 186 558 186 c 1
 551 145 529 108 511 86 c 0
 486 57 433 37 373 43 c 0
 369 43 369 45 370 49 c 0
 373 65 385 87 393 104 c 0
 395 109 395 108 400 108 c 0
 459 106 495 121 521 137 c 0
 529 142 528 164 526 188 c 1
 457 192 392 205 380 238 c 0
 362 288 431 425 477 427 c 0
423 316 m 0
 421 299 486 285 504 284 c 1
 493 303 478 339 450 343 c 1
 438 343 425 330 423 316 c 0
EndSplineSet
EndChar

StartChar: haa+yaa.isol
Encoding: 65553 -1 17
Width: 0
VWidth: 0
Flags: H
LayerCount: 2
Fore
SplineSet
372 135 m 1
 388 134 411 130 431 126 c 0
 490 114 556 101 592 70 c 0
 599 64 602 59 601 49 c 0
 598 20 585 -12 574 -34 c 0
 552 -79 354 -204 199 -199 c 0
 95 -196 3 -140 1 -31 c 0
 0 52 22 131 75 215 c 0
 84 230 102 217 94 203 c 0
 67 156 34 102 33 50 c 0
 32 -31 96 -99 208 -106 c 0
 303 -112 445 -72 551 10 c 0
 554 13 552 14 549 16 c 0
 486 51 418 59 359 65 c 0
 352 66 350 78 352 85 c 0
 357 104 363 119 372 135 c 1
399 173 m 0
 477 211 560 242 651 255 c 0
 655 256 650 258 647 260 c 0
 592 296 540 327 443 292 c 0
 434 289 431 297 435 305 c 0
 451 341 471 374 529 392 c 0
 546 397 570 395 592 384 c 0
 634 364 684 333 716 318 c 0
 792 286 855 270 937 265 c 1
 946 263 954 259 950 252 c 0
 939 230 926 210 914 192 c 0
 911 188 909 188 904 189 c 0
 833 204 768 215 669 205 c 0
 606 199 510 177 430 138 c 0
 422 134 423 127 416 109 c 0
 406 83 370 65 359 65 c 0
 352 65 350 78 352 85 c 0
 359 113 371 134 386 162 c 0
 389 167 393 171 399 173 c 0
EndSplineSet
EndChar

StartChar: seen+haa.init
Encoding: 65554 -1 18
Width: 0
VWidth: 0
Flags: H
LayerCount: 2
Fore
SplineSet
71 249 m 0
 83 256 105 245 138 233 c 0
 266 188 411 167 519 164 c 0
 527 164 535 159 531 149 c 0
 524 131 512 108 501 95 c 0
 498 91 493 89 487 90 c 0
 318 125 130 41 -0 0 c 0
 -17 -5 -31 90 -0 91 c 0
 50 92 137 118 185 130 c 0
 189 131 194 134 191 135 c 0
 142 155 64 178 21 183 c 0
 19 183 18 187 19 189 c 0
 26 215 46 234 71 249 c 0
631 459 m 2
 633 461 636 463 638 460 c 0
 651 446 653 387 627 332 c 0
 618 314 608 293 592 278 c 0
 583 270 565 270 557 270 c 0
 525 272 490 297 483 315 c 0
 482 319 478 318 475 315 c 0
 444 282 402 250 354 263 c 1
 307 277 289 333 276 357 c 0
 274 360 270 360 269 358 c 0
 238 319 189 267 139 241 c 0
 102 222 68 200 21 183 c 1
 19 183 18 187 19 189 c 0
 35 249 119 267 167 305 c 0
 210 339 249 387 279 420 c 0
 285 427 303 426 306 419 c 0
 325 379 339 347 395 345 c 0
 474 342 492 389 512 432 c 0
 517 444 537 437 532 423 c 0
 528 413 524 403 524 394 c 0
 523 360 568 349 594 350 c 0
 597 350 599 354 599 356 c 0
 600 362 597 382 591 395 c 0
 588 400 588 405 593 410 c 2
 631 459 l 2
EndSplineSet
EndChar

StartChar: sad.init
Encoding: 65555 -1 19
Width: 0
VWidth: 0
Flags: H
LayerCount: 2
Fore
SplineSet
523 285 m 0
 553 284 644 239 634 183 c 0
 626 138 579 61 566 51 c 0
 473 -23 307 -27 215 -1 c 1
 207 -11 193 -58 188 -83 c 1
 179 -101 149 -91 154 -70 c 1
 158 -37 170 -10 179 13 c 1
 145 27 118 46 97 71 c 0
 83 89 78 87 68 70 c 0
 48 35 21 7 0 0 c 0
 -14 -5 -37 82 -1 91 c 0
 39 101 69 134 87 167 c 0
 97 185 119 186 132 165 c 0
 148 138 184 107 238 93 c 1
 303 166 436 289 523 285 c 0
567 133 m 0
 534 169 479 183 439 179 c 0
 397 174 299 104 279 83 c 1
 346 73 537 86 567 123 c 1
 571 126 571 129 567 133 c 0
EndSplineSet
EndChar

StartChar: seen.medi
Encoding: 65556 -1 20
Width: 0
VWidth: 0
Flags: H
LayerCount: 2
Fore
SplineSet
517 -10 m 0
 499 -4 462 20 446 65 c 0
 441 79 436 74 433 69 c 0
 420 43 412 26 398 12 c 0
 390 4 375 6 364 9 c 0
 336 17 301 36 282 53 c 1
 270 43 227 -5 166 -2 c 0
 123 0 102 23 87 49 c 0
 86 51 84 51 83 50 c 0
 57 23 42 7 -0 -0 c 0
 -28 -4 -26 94 -0 89 c 0
 19 85 87 81 148 154 c 1
 156 166 175 157 170 149 c 0
 161 134 160 116 161 109 c 0
 164 92 182 84 204 84 c 0
 264 85 297 117 324 162 c 0
 333 177 350 167 345 154 c 0
 341 144 336 136 334 128 c 0
 333 125 332 120 335 116 c 0
 350 98 381 93 397 93 c 0
 407 93 411 97 415 102 c 0
 427 116 435 135 444 154 c 0
 450 166 462 161 464 150 c 0
 472 116 492 83 517 79 c 0
 550 74 535 -16 517 -10 c 0
EndSplineSet
EndChar

StartChar: noon.fina
Encoding: 65557 -1 21
Width: 0
VWidth: 0
Flags: H
LayerCount: 2
Fore
SplineSet
464 148 m 2
 468 157 474 158 481 151 c 0
 490 142 502 124 511 110 c 1
 519 96 537 91 551 91 c 0
 564 91 569 2 551 1 c 0
 535 0 521 0 521 0 c 1
 508 -76 491 -149 460 -216 c 1
 418 -285 323 -338 196 -337 c 0
 65 -336 -4 -254 0 -163 c 0
 3 -100 46 2 77 49 c 0
 83 60 101 54 94 38 c 0
 78 3 48 -46 48 -93 c 0
 48 -158 86 -226 208 -228 c 0
 322 -230 430 -180 460 -137 c 1
 470 -67 463 9 440 64 c 0
 438 69 432 74 435 81 c 2
 464 148 l 2
EndSplineSet
EndChar

StartChar: meem+yaa.isol
Encoding: 65558 -1 22
Width: 0
VWidth: 0
Flags: H
LayerCount: 2
Fore
SplineSet
447 147 m 0
 507 134 605 112 610 76 c 0
 614 52 590 -21 572 -42 c 0
 519 -104 328 -207 194 -198 c 0
 41 -187 -8 -80 3 33 c 0
 10 103 58 179 69 193 c 0
 79 206 97 195 87 181 c 0
 69 156 28 76 35 28 c 0
 55 -105 213 -104 313 -80 c 0
 423 -54 505 -9 540 29 c 0
 546 35 546 38 539 42 c 0
 499 68 400 83 341 89 c 0
 334 90 335 92 335 98 c 0
 335 115 349 146 360 165 c 1
 393 159 419 153 447 147 c 0
518 277 m 1
 510 284 500 288 491 297 c 0
 484 304 484 316 487 324 c 0
 501 358 510 384 533 412 c 0
 538 418 551 422 558 421 c 0
 626 410 686 354 693 326 c 0
 695 320 695 317 695 311 c 0
 694 289 681 247 664 236 c 0
 651 228 625 225 611 223 c 0
 557 216 492 198 445 158 c 0
 426 142 365 93 342 90 c 0
 336 89 335 90 335 98 c 0
 335 122 360 170 370 180 c 0
 410 217 437 239 518 277 c 1
EndSplineSet
EndChar

StartChar: kaf+heh.fina
Encoding: 65559 -1 23
Width: 0
VWidth: 0
Flags: H
LayerCount: 2
Fore
SplineSet
829 844 m 0
 837 844 843 837 841 827 c 2
 830 758 l 2
 829 752 824 749 821 748 c 0
 638 705 359 618 216 523 c 1
 384 436 596 160 732 91 c 0
 768 73 745 -1 731 0 c 0
 675 6 572 129 485 214 c 0
 479 220 472 222 473 213 c 0
 481 163 490 113 484 63 c 1
 454 -70 298 -61 268 -42 c 0
 189 7 261 79 286 61 c 0
 335 26 418 56 461 111 c 1
 449 227 284 371 183 454 c 0
 168 466 164 483 167 503 c 0
 171 528 175 554 190 579 c 1
 285 674 601 778 825 844 c 0
 826 844 828 844 829 844 c 0
286 61 m 0
 326 31 321 -70 268 -42 c 0
 212 -13 194 91 189 117 c 1
 180 76 172 60 167 52 c 0
 159 37 152 32 142 29 c 0
 99 21 30 25 18 35 c 0
 10 42 -4 58 2 77 c 0
 7 93 24 135 27 144 c 0
 33 160 44 171 44 171 c 1
 77 204 116 221 158 241 c 1
 152 288 l 2
 151 294 150 306 153 315 c 1
 173 360 l 1
 186 374 189 357 191 347 c 0
 202 287 223 186 238 134 c 0
 244 113 257 82 286 61 c 0
170 200 m 1
 148 191 69 146 57 119 c 1
 77 94 146 103 166 114 c 0
 194 129 172 181 170 200 c 1
EndSplineSet
EndChar

StartChar: hamza
Encoding: 65560 -1 24
Width: 0
VWidth: 0
Flags: H
LayerCount: 2
Fore
SplineSet
246 124 m 2
 244 118 240 109 233 105 c 1
 169 83 81 28 47 4 c 1
 32 -4 25 7 28 19 c 1
 35 38 55 56 75 73 c 1
 52 82 17 101 10 114 c 0
 -6 142 0 164 14 191 c 0
 28 218 82 296 121 298 c 0
 143 299 152 291 160 280 c 0
 174 259 168 225 154 203 c 0
 146 190 136 191 129 198 c 0
 119 207 104 220 86 224 c 0
 68 228 56 204 60 191 c 0
 66 171 113 136 181 148 c 0
 207 153 217 169 242 174 c 0
 250 176 258 166 256 158 c 2
 246 124 l 2
EndSplineSet
EndChar

StartChar: lam+meem.medi
Encoding: 65561 -1 25
Width: 0
VWidth: 0
Flags: H
LayerCount: 2
Fore
SplineSet
216 133 m 0
 241 124 273 86 291 53 c 0
 304 28 309 -31 301 -60 c 0
 297 -77 294 -77 277 -75 c 0
 212 -65 158 1 146 53 c 0
 142 71 145 91 128 91 c 0
 106 91 61 15 0 0 c 0
 -25 -6 -25 87 0 91 c 0
 27 95 83 122 113 151 c 0
 122 159 135 182 151 184 c 0
 177 187 181 146 216 133 c 0
344 683 m 2
 349 692 358 688 359 680 c 0
 383 507 399 256 424 177 c 0
 434 145 441 121 470 94 c 0
 493 73 486 -3 470 2 c 0
 413 20 382 86 373 146 c 1
 367 104 334 65 291 53 c 0
 211 31 143 147 216 133 c 0
 272 122 340 136 357 173 c 1
 368 200 330 449 316 592 c 0
 315 605 311 618 318 632 c 2
 344 683 l 2
EndSplineSet
EndChar

StartChar: lellah
Encoding: 65562 -1 26
Width: 0
VWidth: 0
Flags: H
LayerCount: 2
Fore
SplineSet
301 106 m 0
 330 105 332 3 302 1 c 0
 213 -6 203 68 195 102 c 1
 180 80 158 53 145 50 c 0
 98 38 32 49 9 68 c 0
 0 76 -2 87 3 103 c 0
 29 185 106 240 178 257 c 1
 176 306 l 2
 176 314 179 320 181 325 c 0
 191 346 203 376 211 388 c 0
 218 398 225 390 225 384 c 0
 230 295 222 148 267 116 c 0
 275 110 287 106 301 106 c 0
180 209 m 1
 162 206 94 180 78 150 c 1
 90 141 124 139 148 140 c 0
 160 140 178 146 186 154 c 1
 183 172 182 191 180 209 c 1
536 115 m 0
 576 110 564 1 546 1 c 0
 485 0 450 42 419 102 c 1
 379 6 353 4 302 1 c 0
 259 -1 238 110 301 106 c 0
 338 104 388 119 397 156 c 0
 399 160 392 185 386 220 c 0
 376 278 358 359 349 414 c 0
 347 426 347 435 354 444 c 2
 384 490 l 2
 388 496 397 492 399 484 c 0
 415 390 437 211 466 165 c 0
 486 133 513 118 536 115 c 0
542 490 m 0
 546 490 550 485 552 477 c 0
 572 378 613 213 616 171 c 0
 620 115 606 0 546 1 c 0
 487 2 451 135 536 115 c 0
 550 112 563 115 571 118 c 1
 571 131 566 161 550 229 c 0
 536 287 518 364 509 415 c 0
 507 424 508 436 514 448 c 0
 518 457 526 472 536 487 c 0
 537 489 540 490 542 490 c 0
EndSplineSet
EndChar

StartChar: kaf+meem.fina
Encoding: 65563 -1 27
Width: 0
VWidth: 0
Flags: H
LayerCount: 2
Fore
SplineSet
775 815 m 1
 745 751 l 2
 742 745 739 739 731 738 c 0
 470 694 182 629 61 580 c 1
 56 574 55 566 73 552 c 0
 131 509 235 425 332 336 c 0
 465 214 550 120 627 92 c 0
 646 85 652 66 652 46 c 0
 652 26 643 0 627 0 c 0
 533 -1 370 232 268 299 c 1
 281 259 291 223 284 192 c 0
 278 164 242 125 226 109 c 0
 189 73 87 70 102 126 c 0
 104 133 107 137 116 137 c 0
 139 138 224 161 265 197 c 1
 232 313 82 430 22 497 c 0
 14 506 3 520 7 533 c 0
 15 560 56 624 69 635 c 0
 184 732 608 801 767 830 c 0
 776 832 781 827 775 815 c 1
116 137 m 0
 143 138 194 123 226 109 c 0
 260 94 296 70 332 49 c 0
 337 46 340 39 337 30 c 2
 315 -46 l 2
 313 -51 311 -59 303 -56 c 0
 218 -28 123 -21 42 -86 c 0
 37 -90 38 -165 44 -215 c 0
 59 -332 92 -482 81 -574 c 0
 78 -594 55 -598 56 -571 c 0
 57 -518 2 -238 0 -154 c 0
 -2 -75 55 20 103 37 c 1
 98 39 93 43 90 46 c 0
 86 50 82 53 84 60 c 2
 102 126 l 2
 104 133 107 137 116 137 c 0
EndSplineSet
EndChar

StartChar: lam+heh.isol
Encoding: 65564 -1 28
Width: 0
VWidth: 0
Flags: H
LayerCount: 2
Fore
SplineSet
303 780 m 0
 306 791 320 791 325 778 c 0
 335 753 350 727 370 711 c 0
 377 705 380 698 374 688 c 0
 369 680 365 673 351 652 c 1
 360 599 398 418 416 294 c 0
 425 228 420 127 419 127 c 1
 419 127 417 80 396 35 c 0
 385 13 368 3 350 1 c 1
 293 -8 307 117 348 114 c 0
 367 111 383 113 383 114 c 0
 391 129 391 162 382 222 c 0
 362 359 319 559 301 653 c 0
 296 680 293 694 293 694 c 0
 291 705 283 718 288 732 c 0
 293 747 297 761 303 780 c 0
348 114 m 0
 385 110 373 3 350 1 c 0
 327 -1 302 9 287 19 c 0
 248 46 209 137 195 206 c 1
 186 163 177 147 172 138 c 0
 164 122 156 117 146 114 c 0
 101 105 30 110 18 120 c 0
 10 127 -6 145 1 164 c 0
 6 180 24 223 27 232 c 0
 33 249 45 261 45 261 c 1
 79 295 118 321 162 342 c 1
 156 382 l 2
 155 388 153 401 156 411 c 1
 176 457 l 1
 189 471 189 452 193 443 c 1
 193 443 214 308 253 203 c 0
 265 171 282 140 310 125 c 0
 323 118 336 115 348 114 c 0
172 290 m 1
 144 284 82 258 58 212 c 1
 86 190 148 198 171 208 c 0
 195 218 178 267 172 290 c 1
EndSplineSet
EndChar

StartChar: kaf+heh.isol
Encoding: 65565 -1 29
Width: 0
VWidth: 0
Flags: H
LayerCount: 2
Fore
SplineSet
900 921 m 0
 910 925 922 917 918 901 c 0
 913 882 908 855 904 843 c 0
 901 834 896 830 890 828 c 0
 684 759 395 659 292 587 c 1
 338 551 575 296 527 75 c 0
 497 -65 324 -51 300 -35 c 0
 260 -7 258 120 321 73 c 0
 364 41 443 67 498 115 c 1
 483 235 364 385 310 442 c 0
 308 445 306 445 301 441 c 2
 290 432 l 2
 286 429 281 429 278 433 c 2
 231 487 l 2
 226 492 230 561 243 597 c 1
 259 626 275 656 304 674 c 0
 488 786 733 858 900 921 c 0
321 73 m 0
 353 49 324 -51 300 -35 c 0
 247 0 228 110 224 136 c 1
 214 95 205 79 200 71 c 0
 191 56 185 50 175 48 c 0
 131 41 61 46 49 57 c 0
 41 64 27 81 34 100 c 0
 40 116 58 157 62 166 c 0
 69 182 80 194 80 194 c 1
 115 227 153 251 196 270 c 1
 191 309 l 2
 190 315 189 328 192 337 c 1
 213 382 l 1
 226 395 226 377 229 368 c 1
 229 368 246 237 272 152 c 0
 278 131 292 95 321 73 c 0
207 220 m 1
 180 214 115 189 91 145 c 1
 118 123 178 131 201 139 c 0
 231 150 208 200 207 220 c 1
EndSplineSet
EndChar

StartChar: haa+meem.init
Encoding: 65566 -1 30
Width: 0
VWidth: 0
Flags: H
LayerCount: 2
Fore
SplineSet
140 242 m 0
 171 264 225 256 256 231 c 0
 294 200 295 114 267 72 c 0
 260 61 250 51 237 52 c 0
 200 54 143 75 97 108 c 1
 71 37 12 5 0 0 c 0
 -13 -5 -30 83 0 91 c 0
 15 95 56 104 81 125 c 0
 83 127 84 132 84 135 c 0
 85 190 121 228 140 242 c 0
154 208 m 0
 140 208 126 205 120 191 c 1
 139 172 199 140 248 127 c 1
 247 166 201 206 154 208 c 0
256 426 m 0
 260 426 264 425 268 425 c 0
 331 418 381 362 452 327 c 0
 510 298 574 278 642 268 c 0
 645 268 650 264 649 259 c 0
 645 234 635 220 622 200 c 0
 619 196 614 193 608 195 c 0
 460 241 363 254 256 231 c 0
 204 220 122 230 140 242 c 0
 195 278 286 286 351 287 c 1
 314 314 262 361 144 343 c 0
 134 341 134 353 139 359 c 0
 176 406 219 426 256 426 c 0
EndSplineSet
EndChar

StartChar: noon.isol
Encoding: 65567 -1 31
Width: 0
VWidth: 0
Flags: H
LayerCount: 2
Fore
SplineSet
374 326 m 0
 415 253 461 111 441 -14 c 0
 421 -142 311 -194 208 -201 c 0
 142 -205 83 -190 47 -157 c 0
 -22 -94 -14 40 62 148 c 0
 73 163 89 151 75 135 c 0
 54 110 20 29 50 -31 c 0
 67 -65 127 -103 203 -99 c 0
 275 -95 357 -78 413 -11 c 0
 415 -9 415 -6 415 -3 c 0
 416 65 363 193 334 235 c 0
 331 239 326 243 330 252 c 2
 360 327 l 2
 363 334 369 335 374 326 c 0
EndSplineSet
EndChar

StartChar: heh+haa.init
Encoding: 65568 -1 32
Width: 0
VWidth: 0
Flags: H
LayerCount: 2
Fore
SplineSet
39 261 m 0
 48 271 86 261 115 254 c 0
 217 228 305 216 408 208 c 0
 458 204 508 205 561 207 c 0
 577 208 583 199 577 186 c 2
 549 121 l 2
 546 115 543 113 536 114 c 0
 451 127 372 115 294 94 c 0
 198 68 103 22 0 0 c 0
 -24 -5 -31 91 0 91 c 0
 93 91 183 122 274 142 c 1
 186 156 102 172 10 184 c 0
 5 185 3 188 4 194 c 0
 7 210 19 239 39 261 c 0
289 648 m 0
 328 648 378 601 412 571 c 0
 455 533 506 483 513 439 c 0
 522 382 518 289 456 302 c 0
 409 311 362 324 298 341 c 1
 241 305 174 282 115 254 c 0
 80 237 66 229 10 184 c 1
 5 185 3 188 4 194 c 0
 8 214 30 263 60 279 c 0
 105 303 175 332 242 367 c 1
 215 379 211 406 216 428 c 0
 222 457 241 520 281 555 c 1
 282 562 256 567 244 568 c 0
 238 568 237 575 238 579 c 0
 246 603 259 648 289 648 c 0
303 502 m 0
 281 501 258 488 247 472 c 1
 246 439 262 431 321 416 c 1
 331 421 346 430 354 439 c 0
 356 442 356 442 356 445 c 0
 350 472 335 503 303 502 c 0
384 494 m 0
 382 495 377 495 378 492 c 0
 379 464 368 413 360 405 c 1
 396 395 454 378 477 376 c 0
 482 375 484 377 483 383 c 0
 480 405 431 462 384 494 c 0
EndSplineSet
EndChar

StartChar: noon.isol.alt
Encoding: 65569 -1 33
Width: 0
VWidth: 0
Flags: H
LayerCount: 2
Fore
SplineSet
944 519 m 0
 982 449 999 338 982 266 c 0
 973 228 948 179 931 160 c 0
 795 6 418 -45 166 -43 c 0
 -21 -41 -311 16 -399 70 c 0
 -461 109 -551 192 -613 253 c 0
 -626 266 -615 283 -599 273 c 0
 -378 130 -54 66 187 65 c 0
 473 63 839 115 945 263 c 0
 947 266 947 270 947 274 c 0
 943 338 911 397 895 428 c 0
 893 433 893 438 895 442 c 2
 932 520 l 2
 935 527 941 525 944 519 c 0
EndSplineSet
EndChar

StartChar: haa.init.alt
Encoding: 65570 -1 34
Width: 0
VWidth: 0
Flags: H
LayerCount: 2
Fore
SplineSet
167 285 m 0
 240 282 366 179 530 182 c 0
 540 182 551 179 545 164 c 0
 536 140 525 119 513 99 c 0
 508 90 503 88 498 88 c 0
 339 106 157 6 58 -1 c 0
 36 -2 22 -2 0 0 c 1
 -1 30 -4 94 3 108 c 0
 21 144 45 181 71 214 c 0
 106 258 138 286 167 285 c 0
248 142 m 0
 208 162 175 178 129 178 c 0
 87 178 48 146 39 107 c 1
 90 86 177 115 248 133 c 0
 253 134 251 140 248 142 c 0
EndSplineSet
EndChar

StartChar: lam+qaf.fina
Encoding: 65571 -1 35
Width: 0
VWidth: 0
Flags: H
LayerCount: 2
Fore
SplineSet
679 736 m 0
 686 747 694 732 695 724 c 0
 718 531 728 317 752 196 c 0
 758 165 781 116 823 107 c 0
 870 97 850 14 823 16 c 0
 723 24 711 146 702 251 c 1
 692 213 670 145 626 116 c 0
 605 102 581 94 558 88 c 0
 522 78 521 171 555 173 c 0
 609 177 650 198 667 236 c 0
 697 302 658 514 649 653 c 0
 649 659 647 664 652 678 c 0
 657 694 669 719 679 736 c 0
555 173 m 0
 561 144 560 108 558 88 c 0
 556 58 547 20 535 -16 c 0
 489 -149 296 -198 231 -199 c 0
 38 -202 -22 -93 10 53 c 0
 21 104 45 161 77 214 c 0
 84 225 103 217 94 201 c 0
 72 164 54 121 50 79 c 0
 40 -13 87 -101 234 -103 c 0
 430 -106 529 0 530 63 c 0
 530 66 530 80 530 81 c 1
 505 76 476 73 443 74 c 0
 370 77 338 120 376 208 c 0
 389 238 407 284 444 302 c 0
 498 328 546 215 555 173 c 0
468 187 m 0
 447 214 426 225 407 193 c 0
 405 189 405 183 407 181 c 0
 417 169 446 164 467 169 c 0
 474 170 474 180 468 187 c 0
EndSplineSet
EndChar

StartChar: madda
Encoding: 65572 -1 36
Width: 0
VWidth: 0
Flags: H
LayerCount: 2
Fore
SplineSet
417 136 m 0
 442 143 450 115 432 100 c 0
 361 41 171 34 83 37 c 1
 78 27 74 16 66 7 c 0
 62 3 55 -1 51 3 c 0
 33 19 21 34 4 51 c 0
 -2 57 1 66 4 71 c 0
 14 88 17 93 36 115 c 0
 44 125 57 122 64 120 c 1
 182 101 293 104 417 136 c 0
EndSplineSet
EndChar

StartChar: lam+waw.fina
Encoding: 65573 -1 37
Width: 0
VWidth: 0
Flags: H
LayerCount: 2
Fore
SplineSet
414 122 m 0
 419 92 419 52 416 30 c 0
 412 -1 405 -31 398 -50 c 1
 371 -146 267 -245 208 -247 c 0
 152 -248 65 -231 10 -209 c 0
 -7 -202 -4 -187 12 -190 c 0
 105 -210 155 -192 226 -159 c 0
 293 -127 347 -71 372 -27 c 1
 376 -14 374 7 371 21 c 1
 326 13 287 12 254 25 c 0
 191 51 247 249 332 252 c 0
 376 253 404 176 414 122 c 0
300 146 m 1
 289 146 273 137 269 123 c 0
 268 121 271 117 276 114 c 1
 296 109 318 107 342 110 c 1
 334 125 319 144 300 146 c 1
508 717 m 2
 512 722 520 716 520 711 c 0
 542 560 556 272 590 173 c 0
 602 137 634 99 657 91 c 0
 679 84 672 -2 657 0 c 0
 583 10 552 98 538 172 c 1
 519 101 490 53 416 30 c 0
 387 21 374 113 414 122 c 0
 482 137 505 169 510 192 c 0
 518 229 498 419 475 646 c 0
 474 654 474 662 477 666 c 2
 508 717 l 2
EndSplineSet
EndChar

StartChar: heh.medi
Encoding: 65574 -1 38
Width: 0
VWidth: 0
Flags: H
LayerCount: 2
Fore
SplineSet
281 349 m 1
 281 349 l 1
 281 349 l 1
 282 349 283 348 284 348 c 0
 330 330 317 143 212 64 c 1
 274 61 337 76 391 90 c 0
 413 96 415 4 391 -1 c 0
 359 -8 327 -12 296 -11 c 1
 337 -49 345 -214 235 -232 c 0
 192 -239 122 -197 106 -29 c 1
 77 -25 l 1
 77 23 l 1
 55 12 34 0 0 -2 c 0
 -26 -4 -50 88 -0 88 c 0
 26 88 78 96 117 112 c 1
 149 208 253 349 281 349 c 1
236 232 m 0
 231 232 226 231 222 229 c 0
 177 209 147 145 142 119 c 1
 186 139 232 154 267 199 c 0
 269 202 270 211 268 215 c 0
 261 227 248 232 236 232 c 0
146 -34 m 1
 149 -48 163 -113 211 -134 c 0
 232 -143 270 -142 292 -123 c 0
 297 -120 294 -112 291 -107 c 0
 273 -77 206 -44 146 -34 c 1
EndSplineSet
EndChar

StartChar: seen+baa+meem.init
Encoding: 65575 -1 39
Width: 0
VWidth: 0
Flags: H
LayerCount: 2
Fore
SplineSet
826 392 m 0
 828 403 835 437 842 461 c 0
 843 466 848 469 852 466 c 0
 863 460 871 446 875 429 c 0
 881 400 877 362 871 335 c 0
 865 309 845 270 822 266 c 0
 797 261 746 271 716 297 c 0
 715 298 714 298 712 296 c 0
 674 247 635 213 580 215 c 0
 532 217 508 250 493 268 c 1
 462 235 425 201 376 202 c 0
 341 203 339 293 395 298 c 0
 470 304 505 342 544 390 c 0
 555 404 574 392 565 372 c 0
 557 355 552 344 546 335 c 1
 576 300 652 309 691 343 c 0
 714 363 727 392 740 422 c 0
 748 441 770 439 764 413 c 0
 762 403 755 388 755 383 c 0
 755 373 762 370 771 367 c 0
 791 360 824 355 835 362 c 0
 838 364 839 366 838 369 c 0
 837 372 830 384 827 386 c 0
 825 388 825 389 826 392 c 0
96 128 m 0
 113 147 132 164 197 142 c 0
 241 127 283 99 294 83 c 0
 298 77 298 69 297 62 c 0
 294 38 282 10 269 -15 c 0
 266 -20 262 -19 257 -16 c 0
 224 6 178 48 140 48 c 0
 93 48 51 2 1 -1 c 0
 -31 -3 -38 82 1 89 c 0
 34 95 82 112 96 128 c 0
395 298 m 0
 437 302 418 202 376 202 c 0
 281 202 252 277 211 311 c 0
 187 331 116 274 119 244 c 0
 122 209 154 159 197 142 c 0
 232 128 118 73 96 128 c 0
 86 154 70 250 103 314 c 0
 132 370 180 414 227 409 c 0
 243 407 251 400 257 389 c 0
 285 336 332 292 395 298 c 0
EndSplineSet
EndChar

StartChar: question-mark
Encoding: 65576 -1 40
Width: 0
VWidth: 0
Flags: H
LayerCount: 2
Fore
SplineSet
35 427 m 1
 57 449 102 449 122 421 c 0
 135 403 139 367 118 344 c 0
 108 334 93 323 72 323 c 0
 44 323 24 340 12 367 c 0
 4 386 -4 443 7 476 c 0
 15 500 28 532 60 552 c 0
 86 568 120 576 156 575 c 0
 180 574 204 567 228 553 c 0
 252 539 272 518 285 501 c 0
 323 450 332 388 311 329 c 0
 285 257 192 201 169 164 c 0
 158 147 154 91 170 31 c 0
 174 16 164 13 158 24 c 0
 127 83 137 222 181 329 c 0
 202 381 241 429 234 483 c 0
 227 536 186 556 153 559 c 0
 116 563 85 549 73 543 c 0
 38 524 12 462 35 427 c 1
238 -65 m 0
 238 -101 209 -130 173 -130 c 0
 137 -130 108 -101 108 -65 c 0
 108 -29 137 0 173 0 c 0
 209 0 238 -29 238 -65 c 0
EndSplineSet
EndChar

StartChar: yaa.isol
Encoding: 65577 -1 41
Width: 0
VWidth: 0
Flags: H
LayerCount: 2
Fore
SplineSet
609 288 m 0
 551 321 412 280 374 170 c 0
 371 162 373 148 375 143 c 0
 408 66 599 109 615 44 c 0
 628 -9 591 -61 570 -78 c 0
 487 -148 351 -201 243 -201 c 0
 34 -201 -17 -96 5 37 c 0
 16 102 51 185 102 246 c 0
 113 259 128 244 118 230 c 0
 86 185 21 86 53 4 c 0
 73 -48 129 -109 254 -107 c 0
 346 -105 473 -80 561 -9 c 0
 566 -5 568 1 563 5 c 0
 531 33 360 6 335 77 c 0
 294 193 455 382 570 398 c 0
 600 402 635 388 638 361 c 0
 641 330 636 273 609 288 c 0
EndSplineSet
EndChar

StartChar: baa+noon.fina
Encoding: 65578 -1 42
Width: 0
VWidth: 0
Flags: H
LayerCount: 2
Fore
SplineSet
708 0 m 0
 678 4 660 12 647 36 c 0
 633 61 620 107 606 202 c 0
 605 206 605 206 603 203 c 0
 591 181 565 142 514 135 c 0
 480 130 475 155 472 174 c 0
 468 199 476 221 498 217 c 0
 558 206 592 240 614 290 c 0
 621 307 638 307 640 287 c 0
 644 246 655 151 669 122 c 0
 679 101 687 92 708 89 c 0
 722 87 734 77 729 48 c 0
 724 19 717 -1 708 0 c 0
511 130 m 0
 513 93 514 38 494 -19 c 0
 462 -109 376 -197 213 -201 c 0
 104 -204 33 -169 11 -98 c 0
 -19 0 31 111 71 176 c 0
 79 189 95 180 87 165 c 0
 72 137 18 41 45 -28 c 0
 62 -72 121 -115 218 -108 c 0
 359 -98 448 -40 474 10 c 0
 475 12 476 13 476 15 c 0
 481 39 467 128 438 177 c 0
 435 183 438 186 439 190 c 2
 439 190 449 232 455 253 c 0
 456 258 462 261 467 257 c 0
 476 251 490 221 505 209 c 0
 530 189 509 158 511 130 c 0
EndSplineSet
EndChar

StartChar: sad.fina
Encoding: 65579 -1 43
Width: 0
VWidth: 0
Flags: H
LayerCount: 2
Fore
SplineSet
850 352 m 1
 905 353 942 301 959 255 c 0
 961 249 961 245 960 239 c 0
 955 201 916 141 902 125 c 0
 885 106 846 81 818 68 c 1
 867 62 962 79 1000 90 c 0
 1028 98 1025 5 1000 0 c 0
 897 -20 757 8 688 32 c 1
 675 30 661 29 648 28 c 0
 570 22 484 31 435 42 c 1
 424 -45 408 -128 377 -164 c 0
 303 -250 146 -277 111 -277 c 0
 22 -276 -19 -268 -68 -215 c 0
 -178 -97 -83 81 -39 131 c 0
 -22 150 -11 131 -22 118 c 0
 -48 86 -83 35 -82 -21 c 0
 -81 -94 -22 -174 100 -179 c 0
 180 -182 359 -144 399 -45 c 0
 402 -39 401 -36 400 -31 c 0
 389 40 373 82 349 116 c 0
 345 121 341 126 344 134 c 2
 375 216 l 2
 380 230 389 225 393 219 c 2
 430 156 l 1
 455 140 493 134 539 130 c 1
 629 230 781 353 850 352 c 1
796 234 m 0
 685 233 625 163 585 126 c 1
 662 123 816 144 871 194 c 1
 857 211 832 234 796 234 c 0
EndSplineSet
EndChar

StartChar: raa.fina.alt2
Encoding: 65580 -1 44
Width: 0
VWidth: 0
Flags: H
LayerCount: 2
Fore
SplineSet
460 231 m 0
 488 245 484 142 461 131 c 0
 438 120 417 109 399 97 c 0
 350 63 291 -8 254 -61 c 0
 202 -137 165 -213 86 -197 c 0
 30 -186 -7 -138 1 -56 c 0
 5 -8 24 50 63 123 c 0
 71 139 88 131 81 116 c 0
 68 87 37 35 32 -10 c 0
 28 -46 41 -90 88 -104 c 0
 151 -122 185 -86 216 -33 c 1
 251 31 324 137 376 177 c 0
 404 199 432 217 460 231 c 0
EndSplineSet
EndChar

StartChar: alef.fina.alt
Encoding: 65581 -1 45
Width: 0
VWidth: 0
Flags: H
LayerCount: 2
Fore
SplineSet
149 800 m 0
 155 800 161 794 160 786 c 2
 152 723 l 2
 151 712 146 707 138 706 c 0
 119 704 101 701 89 695 c 0
 77 689 78 678 78 625 c 0
 78 536 79 453 89 379 c 0
 94 340 96 303 112 270 c 0
 162 163 256 110 407 92 c 0
 507 80 635 82 768 91 c 0
 783 92 802 87 798 62 c 0
 794 37 784 3 766 0 c 0
 741 -3 639 -10 550 -7 c 0
 421 -2 224 -4 122 111 c 0
 28 216 47 488 45 571 c 0
 43 654 46 696 50 715 c 0
 63 770 91 800 149 800 c 0
EndSplineSet
EndChar

StartChar: baa.medi
Encoding: 65582 -1 46
Width: 0
VWidth: 0
Flags: H
LayerCount: 2
Fore
SplineSet
208 81 m 0
 231 75 233 63 229 44 c 0
 225 25 217 -10 208 -9 c 0
 177 -7 147 -2 116 74 c 0
 113 80 107 86 98 72 c 0
 75 39 45 5 0 0 c 0
 -12 -1 -19 44 -22 60 c 0
 -25 76 -14 89 0 90 c 0
 25 91 56 97 81 114 c 0
 93 122 105 134 110 150 c 0
 114 161 130 160 132 151 c 0
 142 104 156 95 208 81 c 0
EndSplineSet
EndChar

StartChar: seen.medi.alt
Encoding: 65583 -1 47
Width: 0
VWidth: 0
Flags: H
LayerCount: 2
Fore
SplineSet
-0 91 m 0
 27 90 81 95 104 122 c 0
 115 135 126 157 134 182 c 0
 142 208 170 200 162 174 c 0
 152 140 137 114 189 98 c 0
 204 94 229 96 240 108 c 0
 253 122 269 174 272 189 c 0
 274 199 294 200 299 189 c 0
 318 143 340 116 370 93 c 0
 399 71 391 -1 370 2 c 0
 331 8 293 66 275 99 c 0
 273 102 271 103 270 99 c 0
 245 13 221 -7 196 -7 c 0
 137 -8 110 17 90 46 c 1
 56 13 30 1 0 0 c 0
 -24 -1 -35 92 -0 91 c 0
EndSplineSet
EndChar

StartChar: lam+meem.isol
Encoding: 65584 -1 48
Width: 0
VWidth: 0
Flags: H
LayerCount: 2
Fore
SplineSet
181 812 m 0
 184 818 193 820 196 812 c 0
 207 785 235 758 254 743 c 0
 262 737 263 729 258 720 c 0
 249 704 237 687 228 672 c 1
 230 655 250 493 254 449 c 0
 258 405 254 351 248 315 c 0
 242 279 231 257 219 229 c 0
 198 180 99 225 125 250 c 0
 143 268 194 260 223 303 c 1
 219 430 191 573 175 682 c 0
 171 711 154 754 160 767 c 0
 168 783 173 795 181 812 c 0
125 250 m 0
 135 258 190 239 219 229 c 0
 262 213 296 189 326 166 c 0
 338 157 341 149 335 131 c 0
 326 105 321 86 318 79 c 0
 315 72 312 58 298 62 c 1
 221 75 85 67 36 16 c 1
 30 3 75 -215 83 -317 c 0
 87 -362 81 -421 72 -450 c 0
 67 -466 44 -471 48 -433 c 0
 50 -411 47 -377 39 -317 c 0
 31 -259 18 -188 7 -135 c 1
 -10 -41 14 22 14 22 c 1
 36 92 73 125 124 149 c 1
 119 152 110 153 97 159 c 0
 91 162 86 166 90 177 c 0
 97 197 112 239 125 250 c 0
EndSplineSet
EndChar

StartChar: taa.fina
Encoding: 65585 -1 49
Width: 0
VWidth: 0
Flags: H
LayerCount: 2
Fore
SplineSet
259 766 m 0
 263 774 272 773 275 766 c 0
 287 742 292 716 319 688 c 0
 321 686 326 675 319 666 c 0
 310 655 308 652 300 641 c 0
 296 636 295 629 296 622 c 0
 300 580 319 383 315 306 c 0
 313 276 301 212 296 188 c 1
 351 235 427 285 489 314 c 0
 516 326 547 334 573 329 c 0
 598 324 628 289 642 257 c 0
 645 250 645 236 644 228 c 0
 638 197 621 154 598 126 c 0
 582 106 548 82 510 62 c 1
 569 64 634 78 691 90 c 0
 723 97 713 1 691 -0 c 0
 617 -5 520 -3 417 8 c 1
 372 1 205 -11 97 -2 c 0
 92 -2 90 0 86 2 c 0
 54 21 17 61 3 92 c 0
 1 96 1 101 8 99 c 0
 61 87 196 91 207 96 c 1
 222 110 246 139 274 169 c 1
 283 327 259 506 241 663 c 0
 240 671 238 678 237 685 c 0
 236 691 232 705 234 710 c 0
 243 733 250 748 259 766 c 0
485 226 m 0
 481 226 477 226 473 225 c 0
 387 213 320 151 260 100 c 1
 400 109 513 141 573 167 c 1
 564 185 534 226 485 226 c 0
EndSplineSet
EndChar

StartChar: baa+meem.isol
Encoding: 65586 -1 50
Width: 0
VWidth: 0
Flags: H
LayerCount: 2
Fore
SplineSet
113 521 m 1
 127 519 157 511 173 504 c 0
 232 477 278 463 340 407 c 0
 345 403 346 402 342 396 c 2
 298 319 l 2
 294 312 291 313 287 314 c 0
 185 349 96 325 45 296 c 1
 35 263 55 164 69 100 c 0
 89 8 117 -92 109 -175 c 0
 106 -205 83 -206 81 -176 c 0
 78 -122 51 -17 29 79 c 0
 10 163 0 237 8 274 c 0
 17 317 23 372 107 392 c 1
 80 406 l 2
 70 411 73 422 75 431 c 0
 81 457 96 494 113 521 c 1
458 543 m 0
 444 525 431 526 426 544 c 0
 421 563 409 578 383 580 c 0
 320 586 224 535 173 504 c 0
 125 474 107 515 113 521 c 0
 131 539 224 604 310 642 c 0
 349 659 385 670 419 670 c 0
 457 670 513 647 493 595 c 1
 493 595 470 558 458 543 c 0
EndSplineSet
EndChar

StartChar: lam+yaa.isol
Encoding: 65587 -1 51
Width: 0
VWidth: 0
Flags: H
LayerCount: 2
Fore
SplineSet
398 705 m 0
 401 712 410 714 413 704 c 0
 422 676 435 651 456 630 c 0
 463 623 465 616 459 607 c 0
 451 595 438 580 433 572 c 1
 440 521 476 353 482 293 c 1
 481 288 487 244 484 200 c 0
 482 162 474 126 472 116 c 0
 467 86 412 68 361 71 c 1
 357 95 369 117 383 125 c 0
 407 139 433 144 448 153 c 0
 457 158 460 166 460 170 c 0
 461 188 456 204 453 221 c 0
 434 340 408 468 389 587 c 1
 389 587 379 629 376 643 c 0
 374 650 375 656 378 662 c 0
 384 674 390 689 398 705 c 0
383 125 m 0
 390 129 446 121 472 116 c 0
 491 112 564 100 581 76 c 0
 590 64 595 47 594 28 c 0
 593 7 570 -32 551 -54 c 0
 494 -121 418 -155 348 -176 c 0
 278 -197 236 -203 173 -197 c 0
 95 -189 32 -147 11 -77 c 0
 0 -41 -1 -6 8 40 c 0
 22 111 63 197 72 212 c 0
 81 227 99 215 91 201 c 0
 82 183 44 102 42 54 c 0
 39 -25 121 -110 232 -106 c 0
 313 -103 470 -58 555 13 c 0
 564 21 560 30 549 33 c 0
 501 49 434 64 361 71 c 1
 357 95 369 118 383 125 c 0
EndSplineSet
EndChar

StartChar: baa+meem+alef.fina
Encoding: 65588 -1 52
Width: 0
VWidth: 0
Flags: H
LayerCount: 2
Fore
SplineSet
338 -5 m 0
 353 -8 357 -17 355 -25 c 2
 333 -106 l 2
 329 -120 317 -117 308 -116 c 0
 247 -111 145 -70 105 16 c 0
 72 86 68 230 57 337 c 0
 42 484 40 544 3 706 c 0
 2 712 0 721 2 725 c 0
 12 747 19 758 30 778 c 0
 35 787 40 784 42 778 c 0
 74 695 81 573 93 447 c 0
 106 305 111 101 165 71 c 0
 212 45 222 18 338 -5 c 0
202 118 m 0
 203 32 277 5 338 -5 c 1
 353 -9 357 -17 355 -25 c 2
 333 -106 l 2
 329 -120 317 -118 308 -116 c 0
 174 -86 34 145 165 71 c 0
 181 62 178 69 178 73 c 0
 179 95 182 115 196 156 c 0
 202 175 202 141 202 118 c 0
330 167 m 0
 283 173 215 142 202 118 c 1
 202 93 209 73 220 57 c 0
 273 -14 170 -44 178 73 c 0
 179 95 182 115 196 156 c 0
 209 195 284 258 358 257 c 0
 393 256 389 204 462 171 c 0
 530 140 485 73 461 80 c 0
 369 108 360 163 330 167 c 0
EndSplineSet
EndChar

StartChar: baa+baa.init.alt
Encoding: 65589 -1 53
Width: 0
VWidth: 0
Flags: H
LayerCount: 2
Fore
SplineSet
287 250 m 2
 291 262 295 260 301 254 c 0
 326 229 335 153 326 104 c 0
 317 56 292 -1 253 -3 c 0
 183 -7 150 44 102 150 c 1
 64 20 24 2 0 0 c 1
 0 91 l 1
 76 110 79 139 85 162 c 0
 92 190 62 281 48 331 c 0
 44 346 47 349 50 357 c 0
 59 378 76 416 76 416 c 2
 79 424 88 420 90 414 c 0
 108 355 151 131 241 109 c 0
 261 104 279 104 290 109 c 1
 289 131 275 155 263 167 c 1
 287 250 l 2
287 250 m 2
 291 262 295 261 301 254 c 0
 322 229 331 153 322 104 c 0
 313 56 292 0 253 -3 c 0
 226 -5 227 29 226 55 c 0
 225 83 228 112 241 109 c 0
 261 105 279 104 290 109 c 1
 289 124 277 152 268 162 c 0
 265 166 264 171 266 177 c 2
 287 250 l 2
241 109 m 0
 251 107 265 105 267 57 c 0
 269 9 263 -2 253 -3 c 0
 184 -8 145 49 103 155 c 1
 65 25 22 0 -0 0 c 0
 -6 0 -14 11 -20 45 c 0
 -26 79 -21 84 0 90 c 0
 73 110 79 139 85 162 c 0
 92 190 62 281 48 331 c 0
 44 346 47 349 50 357 c 0
 59 378 76 416 76 416 c 2
 79 424 88 420 90 414 c 0
 108 355 151 130 241 109 c 0
EndSplineSet
EndChar

StartChar: baa+yaa.isol
Encoding: 65590 -1 54
Width: 0
VWidth: 0
Flags: H
LayerCount: 2
Fore
SplineSet
404 135 m 0
 442 138 490 135 526 126 c 0
 558 118 599 97 613 61 c 0
 626 29 596 -52 566 -78 c 0
 501 -135 377 -191 278 -203 c 0
 89 -226 14 -135 2 -23 c 0
 -9 77 50 179 102 236 c 0
 112 247 130 234 117 220 c 0
 97 197 28 114 42 34 c 0
 55 -40 128 -118 291 -103 c 0
 429 -91 544 -16 565 8 c 0
 576 21 570 26 562 30 c 0
 527 48 455 63 370 65 c 0
 364 65 363 69 366 74 c 2
 394 131 l 2
 396 135 399 135 404 135 c 0
484 468 m 0
 488 482 495 481 501 475 c 0
 532 446 564 373 572 326 c 0
 585 243 562 176 525 134 c 0
 487 92 436 68 370 65 c 0
 364 65 363 69 366 74 c 2
 394 131 l 2
 396 135 399 134 404 135 c 0
 445 140 512 162 545 206 c 1
 549 284 495 344 463 370 c 0
 454 376 456 382 459 391 c 0
 468 418 481 458 484 468 c 0
EndSplineSet
EndChar

StartChar: waw.isol
Encoding: 65591 -1 55
Width: 0
VWidth: 0
Flags: H
LayerCount: 2
Fore
SplineSet
253 217 m 0
 271 264 292 313 335 313 c 0
 374 313 411 249 420 180 c 0
 426 137 415 86 407 56 c 0
 371 -89 256 -192 206 -198 c 0
 156 -204 47 -183 10 -168 c 0
 -4 -162 -2 -148 13 -150 c 0
 67 -157 109 -155 162 -143 c 0
 215 -131 358 -12 379 54 c 1
 377 74 372 96 367 99 c 1
 344 63 312 52 271 70 c 0
 225 90 231 160 253 217 c 0
312 204 m 0
 302 204 292 198 281 184 c 1
 300 159 326 166 343 179 c 1
 333 194 323 204 312 204 c 0
EndSplineSet
EndChar

StartChar: meem.fina.alt
Encoding: 65592 -1 56
Width: 0
VWidth: 0
Flags: H
LayerCount: 2
Fore
SplineSet
270 91 m 0
 282 93 289 78 287 53 c 0
 285 28 285 2 270 0 c 0
 210 -7 188 -29 188 -29 c 1
 236 -54 296 -88 326 -111 c 0
 338 -120 342 -129 336 -147 c 0
 327 -173 313 -200 310 -207 c 0
 307 -214 298 -233 284 -229 c 1
 246 -206 191 -207 159 -208 c 0
 108 -210 38 -220 33 -258 c 0
 28 -297 70 -487 88 -569 c 0
 98 -614 104 -660 102 -708 c 0
 100 -747 72 -751 70 -702 c 0
 67 -619 24 -503 7 -401 c 1
 -10 -307 11 -240 11 -240 c 1
 33 -149 78 -129 135 -120 c 1
 130 -117 98 -99 85 -93 c 0
 79 -90 75 -84 78 -75 c 0
 81 -65 86 -34 97 -24 c 0
 127 3 204 79 270 91 c 0
EndSplineSet
EndChar

StartChar: kaf+alef.isol
Encoding: 65593 -1 57
Width: 0
VWidth: 0
Flags: H
LayerCount: 2
Fore
SplineSet
225 102 m 0
 274 104 266 6 230 1 c 0
 177 -6 125 10 102 39 c 0
 52 102 47 274 39 442 c 0
 36 508 21 673 3 730 c 0
 1 736 2 742 5 746 c 2
 37 796 l 2
 42 804 46 801 47 795 c 0
 63 691 74 566 81 451 c 0
 83 416 85 382 87 354 c 0
 100 202 105 164 140 128 c 0
 157 110 189 100 225 102 c 0
225 102 m 0
 267 106 329 130 363 168 c 1
 357 233 159 336 87 354 c 0
 61 360 75 417 81 451 c 0
 103 579 634 777 757 819 c 0
 766 822 775 818 772 808 c 2
 772 808 758 769 751 749 c 0
 749 742 743 738 738 736 c 0
 575 670 199 517 115 442 c 1
 186 424 302 363 351 303 c 0
 388 258 408 175 390 121 c 0
 362 37 289 8 230 1 c 0
 192 -4 158 95 225 102 c 0
EndSplineSet
EndChar

StartChar: dot.tripple
Encoding: 65594 -1 58
Width: 0
VWidth: 0
Flags: H
LayerCount: 2
Fore
SplineSet
145 151 m 0
 148 155 149 155 154 153 c 0
 180 144 203 130 225 111 c 0
 229 107 229 107 226 102 c 0
 208 73 192 50 178 27 c 0
 176 23 176 22 172 25 c 0
 154 40 124 56 98 72 c 0
 95 74 95 74 97 78 c 0
 115 106 129 127 145 151 c 0
52 128 m 0
 55 132 55 132 60 130 c 0
 86 121 109 107 131 88 c 0
 135 84 135 84 132 79 c 0
 114 50 98 27 84 4 c 0
 82 0 82 -1 78 2 c 0
 60 17 31 33 5 49 c 0
 2 51 1 51 3 55 c 0
 21 83 36 104 52 128 c 0
58 252 m 0
 60 256 61 256 66 255 c 0
 92 249 117 239 141 222 c 0
 145 219 146 218 143 213 c 0
 128 182 116 158 104 133 c 0
 102 129 102 127 98 130 c 0
 79 143 48 156 20 169 c 0
 17 171 15 170 17 174 c 0
 32 204 45 227 58 252 c 0
EndSplineSet
EndChar

StartChar: kaf+meem.medi
Encoding: 65595 -1 59
Width: 0
VWidth: 0
Flags: H
LayerCount: 2
Fore
SplineSet
155 228 m 0
 171 237 229 249 273 192 c 0
 312 141 269 31 234 37 c 0
 198 44 138 66 101 102 c 1
 80 69 61 2 0 0 c 0
 -29 -1 -32 89 0 91 c 0
 27 92 63 105 82 127 c 0
 106 154 125 212 155 228 c 0
182 169 m 0
 173 169 163 168 154 164 c 0
 150 162 151 158 153 156 c 0
 186 129 220 119 252 113 c 0
 257 112 262 112 261 117 c 0
 256 141 219 169 182 169 c 0
788 856 m 0
 788 856 l 1
 788 856 l 1
 800 856 803 845 799 837 c 2
 763 770 l 2
 759 762 755 763 751 762 c 0
 639 739 308 698 125 600 c 0
 120 597 102 584 106 582 c 0
 214 535 343 437 451 340 c 0
 581 224 666 125 757 102 c 1
 758 11 l 1
 659 10 427 300 317 366 c 1
 350 226 293 204 282 190 c 1
 237 160 134 210 155 228 c 1
 195 250 269 231 302 270 c 1
 295 340 138 460 63 523 c 0
 60 526 59 529 59 533 c 0
 56 586 77 631 91 646 c 0
 177 734 632 827 784 855 c 0
 785 855 787 856 788 856 c 0
EndSplineSet
EndChar

StartChar: baa+seen.init.alt
Encoding: 65596 -1 60
Width: 0
VWidth: 0
Flags: H
LayerCount: 2
Fore
SplineSet
293 178 m 0
 311 152 298 90 291 108 c 0
 289 113 286 113 284 108 c 0
 267 72 236 -2 200 -6 c 0
 159 -11 120 15 93 47 c 1
 63 16 45 4 0 0 c 0
 -8 -1 -19 30 -21 57 c 0
 -23 84 -21 91 -0 90 c 0
 100 83 121 123 139 169 c 0
 146 187 165 178 159 164 c 0
 155 153 152 146 150 136 c 0
 148 127 151 117 155 112 c 0
 168 99 213 73 241 86 c 0
 255 93 270 147 280 176 c 0
 282 181 289 183 293 178 c 0
382 430 m 0
 382 430 l 1
 382 430 l 1
 382 430 l 1
 382 430 l 1
 385 430 389 428 391 425 c 0
 412 389 439 310 452 234 c 0
 458 200 460 166 460 138 c 0
 460 95 434 17 415 14 c 0
 361 4 304 75 291 108 c 0
 268 167 287 188 293 178 c 0
 330 118 399 70 430 94 c 0
 431 95 432 96 432 99 c 0
 432 123 422 169 409 212 c 0
 397 249 380 290 359 329 c 0
 358 332 358 334 358 336 c 0
 362 363 367 396 376 425 c 0
 377 429 379 430 382 430 c 0
EndSplineSet
EndChar

StartChar: ayn.fina
Encoding: 65597 -1 61
Width: 0
VWidth: 0
Flags: H
LayerCount: 2
Fore
SplineSet
258 284 m 1
 258 284 l 1
 260 284 262 284 264 284 c 0
 293 283 325 274 356 257 c 0
 381 243 401 222 399 202 c 0
 396 168 359 140 332 127 c 0
 329 126 331 122 334 120 c 0
 364 102 405 91 432 90 c 0
 467 89 467 69 465 54 c 0
 463 39 459 0 432 0 c 0
 360 1 309 48 254 92 c 0
 250 95 245 95 240 92 c 0
 126 34 50 -63 38 -193 c 0
 28 -305 107 -418 253 -446 c 0
 404 -475 519 -466 661 -455 c 0
 675 -454 679 -464 665 -473 c 0
 624 -500 503 -548 452 -551 c 0
 389 -555 287 -552 213 -535 c 0
 10 -489 -14 -310 7 -191 c 0
 30 -60 83 36 156 103 c 0
 168 114 177 123 190 132 c 0
 192 134 194 137 191 140 c 0
 174 154 155 163 127 165 c 0
 120 166 102 167 106 183 c 0
 113 210 135 237 164 255 c 1
 197 273 227 284 258 284 c 1
EndSplineSet
EndChar

StartChar: raa.isol
Encoding: 65598 -1 62
Width: 0
VWidth: 0
Flags: H
LayerCount: 2
Fore
SplineSet
329 308 m 2
 331 316 339 314 341 312 c 0
 402 249 426 147 418 64 c 0
 414 18 384 -50 351 -93 c 0
 309 -147 243 -185 196 -196 c 0
 185 -198 164 -200 148 -195 c 0
 87 -177 14 -145 3 -138 c 1
 -5 -134 1 -120 11 -123 c 0
 52 -136 90 -142 125 -138 c 0
 159 -134 204 -115 243 -90 c 0
 295 -57 355 0 382 54 c 0
 385 59 386 63 384 69 c 0
 373 101 355 143 306 201 c 0
 304 204 303 204 304 208 c 2
 329 308 l 2
EndSplineSet
EndChar

StartChar: lam+meem.fina
Encoding: 65599 -1 63
Width: 0
VWidth: 0
Flags: H
LayerCount: 2
Fore
SplineSet
256 239 m 1
 250 142 230 93 191 50 c 0
 163 19 84 51 120 64 c 0
 211 97 232 182 230 269 c 1
 227 337 228 403 201 667 c 0
 200 679 203 684 206 690 c 2
 231 737 l 1
 239 747 247 743 248 724 c 0
 263 568 274 427 295 266 c 0
 303 207 326 136 383 90 c 0
 427 54 402 -4 383 0 c 0
 324 13 275 100 256 239 c 1
120 64 m 0
 139 71 163 65 191 50 c 0
 248 20 263 10 297 -14 c 0
 304 -19 312 -22 309 -37 c 1
 309 -37 295 -89 291 -103 c 0
 288 -115 276 -114 264 -113 c 0
 178 -109 80 -108 22 -177 c 1
 17 -197 24 -277 39 -349 c 0
 57 -436 88 -529 87 -630 c 0
 86 -683 60 -681 56 -640 c 1
 36 -485 -40 -289 -13 -177 c 0
 4 -105 31 -59 107 -39 c 1
 99 -34 92 -31 85 -27 c 1
 85 28 l 2
 85 50 109 60 120 64 c 0
EndSplineSet
EndChar

StartChar: baa+baa.init
Encoding: 65600 -1 64
Width: 0
VWidth: 0
Flags: H
LayerCount: 2
Fore
SplineSet
263 35 m 0
 227 44 188 74 158 104 c 1
 116 68 60 27 0 0 c 0
 -5 -2 -13 18 -24 48 c 0
 -34 73 -28 84 0 91 c 0
 68 108 116 132 165 184 c 0
 174 194 184 193 190 186 c 0
 201 173 228 143 258 131 c 0
 310 111 311 94 303 71 c 0
 295 51 297 27 263 35 c 0
380 238 m 0
 401 197 405 172 403 142 c 0
 401 100 381 71 365 56 c 0
 334 27 291 27 263 35 c 0
 203 52 187 93 203 119 c 0
 215 138 227 145 258 131 c 0
 284 120 317 114 358 125 c 0
 360 125 361 127 361 129 c 0
 359 139 352 151 346 157 c 0
 343 160 343 163 344 166 c 2
 367 236 l 2
 370 245 377 244 380 238 c 0
EndSplineSet
EndChar

StartChar: qaf.isol
Encoding: 65601 -1 65
Width: 0
VWidth: 0
Flags: H
LayerCount: 2
Fore
SplineSet
447 358 m 0
 496 359 587 191 557 39 c 0
 531 -94 396 -186 243 -198 c 0
 138 -206 -22 -155 6 19 c 0
 18 97 55 173 99 237 c 0
 108 250 127 238 117 223 c 0
 86 178 51 122 49 61 c 0
 47 -16 98 -94 245 -93 c 0
 361 -92 525 4 534 73 c 0
 537 96 520 134 509 139 c 1
 484 105 423 82 382 97 c 0
 351 109 303 138 343 237 c 0
 367 297 400 357 447 358 c 0
413 245 m 0
 403 245 395 240 385 225 c 1
 403 205 433 204 452 222 c 1
 440 235 426 245 413 245 c 0
EndSplineSet
EndChar

StartChar: lam+haa+meem.init
Encoding: 65602 -1 66
Width: 0
VWidth: 0
Flags: H
LayerCount: 2
Fore
SplineSet
227 788 m 0
 230 794 238 794 241 787 c 0
 247 770 259 737 289 709 c 0
 294 705 293 697 289 691 c 0
 280 679 271 667 264 656 c 0
 262 653 264 646 265 638 c 0
 271 605 289 522 292 467 c 0
 294 430 290 405 271 386 c 0
 251 366 157 326 93 312 c 0
 87 311 86 313 87 319 c 0
 104 421 194 385 265 412 c 1
 257 508 235 578 221 662 c 0
 219 675 210 707 206 721 c 0
 204 726 203 733 205 738 c 0
 212 753 221 776 227 788 c 0
131 219 m 0
 140 226 167 208 180 197 c 0
 240 146 295 135 253 45 c 0
 248 34 234 33 226 40 c 0
 186 73 142 95 93 116 c 1
 65 71 42 20 2 0 c 0
 -11 -7 -45 82 2 90 c 0
 86 105 98 173 109 191 c 0
 117 203 122 212 131 219 c 0
87 319 m 0
 90 339 97 358 109 371 c 0
 135 400 215 409 271 386 c 0
 378 342 450 304 583 298 c 0
 588 298 587 294 586 289 c 0
 581 266 571 241 559 224 c 0
 558 222 552 222 550 222 c 0
 459 243 344 257 180 197 c 0
 156 188 109 198 132 219 c 0
 159 244 255 265 305 276 c 0
 312 278 312 281 305 284 c 0
 233 316 170 334 93 312 c 0
 87 310 86 313 87 319 c 0
EndSplineSet
EndChar

StartChar: lam+meem.init
Encoding: 65603 -1 67
Width: 0
VWidth: 0
Flags: H
LayerCount: 2
Fore
SplineSet
90 702 m 0
 97 715 104 707 105 702 c 0
 109 681 131 646 151 625 c 0
 154 621 156 613 153 609 c 0
 145 598 137 588 128 576 c 0
 124 571 125 564 126 558 c 0
 140 423 156 231 173 172 c 0
 180 146 242 129 281 103 c 0
 285 100 297 95 292 84 c 0
 281 62 274 48 265 35 c 0
 261 29 250 30 243 33 c 0
 226 40 159 74 139 127 c 0
 105 218 91 457 75 588 c 1
 70 606 67 623 64 634 c 0
 61 645 60 651 65 662 c 0
 70 674 82 687 90 702 c 0
139 127 m 0
 183 144 244 127 281 103 c 0
 286 100 294 96 293 86 c 0
 289 56 284 18 274 -9 c 0
 272 -15 256 -16 251 -11 c 0
 234 6 194 43 163 51 c 0
 107 65 54 16 0 0 c 0
 -22 -6 -25 86 1 89 c 0
 48 95 92 109 139 127 c 0
EndSplineSet
EndChar

StartChar: sad+haa.init
Encoding: 65604 -1 68
Width: 0
VWidth: 0
Flags: H
LayerCount: 2
Fore
SplineSet
395 282 m 1
 381 268 369 256 359 246 c 0
 352 238 336 245 345 258 c 0
 353 270 363 283 374 297 c 1
 348 312 317 344 307 369 c 0
 306 372 299 370 298 369 c 0
 259 324 225 290 170 262 c 0
 122 237 51 202 12 188 c 0
 10 187 5 189 6 194 c 0
 12 219 38 257 63 264 c 0
 187 298 261 366 297 428 c 0
 307 446 322 443 332 427 c 0
 348 402 386 371 426 356 c 1
 458 395 602 540 703 542 c 1
 739 541 811 484 800 437 c 1
 757 283 540 240 395 282 c 1
457 347 m 1
 549 338 706 372 734 411 c 1
 710 437 666 462 641 460 c 0
 571 454 496 385 457 347 c 1
167 250 m 0
 305 196 498 180 578 188 c 0
 591 189 594 175 589 167 c 2
 559 114 l 2
 555 106 549 106 542 106 c 0
 474 110 367 109 243 74 c 0
 181 57 108 21 0 0 c 0
 -22 -4 -33 84 0 89 c 0
 87 101 174 130 234 143 c 0
 240 145 245 146 237 150 c 0
 175 180 79 192 13 188 c 0
 8 188 6 191 7 195 c 0
 13 220 38 257 63 264 c 0
 88 271 130 265 167 250 c 0
EndSplineSet
EndChar

StartChar: kaf+dal.isol
Encoding: 65605 -1 69
Width: 0
VWidth: 0
Flags: H
LayerCount: 2
Fore
SplineSet
963 784 m 0
 972 784 979 776 976 762 c 0
 971 743 966 717 962 705 c 0
 959 696 954 692 948 690 c 0
 742 621 453 520 350 448 c 1
 415 377 633 158 585 -63 c 1
 564 -145 493 -173 435 -177 c 0
 409 -179 392 -86 432 -84 c 0
 475 -81 526 -63 560 -38 c 1
 548 99 430 244 383 288 c 0
 381 291 378 291 373 287 c 2
 363 278 l 2
 359 275 353 275 350 279 c 2
 288 348 l 2
 283 353 283 404 305 456 c 1
 321 485 337 515 366 533 c 0
 550 645 791 720 958 783 c 0
 960 784 961 784 963 784 c 0
432 -84 m 0
 468 -81 474 -173 435 -177 c 0
 402 -180 372 -176 358 -171 c 0
 304 -152 287 -70 277 -18 c 0
 275 -13 267 -20 266 -23 c 0
 263 -34 252 -67 234 -94 c 0
 227 -104 216 -116 208 -123 c 0
 188 -140 95 -163 43 -146 c 0
 11 -135 15 -84 18 -51 c 0
 20 -31 37 -36 40 -41 c 0
 47 -54 50 -57 69 -60 c 0
 109 -65 187 -55 219 -38 c 0
 239 -28 256 -6 259 14 c 1
 257 51 233 127 224 182 c 0
 221 195 222 200 225 209 c 0
 230 224 235 239 241 255 c 0
 244 263 256 264 258 253 c 0
 277 165 332 -41 361 -65 c 0
 379 -80 404 -86 432 -84 c 0
EndSplineSet
EndChar

StartChar: haa.isol
Encoding: 65606 -1 70
Width: 0
VWidth: 0
Flags: H
LayerCount: 2
Fore
SplineSet
574 548 m 2
 547 487 l 2
 545 481 541 479 535 478 c 0
 411 462 290 436 201 384 c 0
 75 310 26 192 54 87 c 0
 71 22 116 -27 198 -63 c 0
 291 -104 519 -112 673 -98 c 0
 707 -95 695 -120 680 -124 c 0
 601 -147 573 -173 542 -187 c 0
 533 -191 530 -194 521 -195 c 0
 377 -208 201 -201 95 -124 c 0
 -5 -50 -11 64 13 173 c 0
 37 283 97 390 255 470 c 1
 170 490 106 492 53 463 c 0
 45 459 36 461 36 468 c 0
 40 606 181 577 276 557 c 1
 376 538 441 540 552 559 c 0
 568 562 577 555 574 548 c 2
EndSplineSet
EndChar

StartChar: baa+baa+yaa.isol
Encoding: 65607 -1 71
Width: 0
VWidth: 0
Flags: H
LayerCount: 2
Fore
SplineSet
619 218 m 0
 631 219 638 213 637 186 c 0
 636 154 626 144 612 144 c 0
 549 142 512 230 472 232 c 0
 412 235 336 157 343 128 c 0
 352 93 337 39 315 53 c 0
 273 80 318 167 370 224 c 0
 414 273 454 306 503 302 c 0
 527 300 565 215 619 218 c 0
315 53 m 0
 287 71 301 114 318 131 c 0
 327 140 340 140 343 128 c 0
 351 95 459 94 508 89 c 0
 534 86 557 75 565 54 c 0
 577 21 546 -45 523 -67 c 0
 462 -124 336 -193 217 -200 c 0
 42 -210 -4 -109 0 -8 c 0
 3 56 20 132 51 190 c 0
 59 205 77 194 70 178 c 0
 42 116 24 55 37 4 c 0
 58 -80 128 -108 214 -106 c 0
 334 -103 484 -29 517 9 c 0
 518 10 519 13 516 14 c 0
 474 32 361 24 315 53 c 0
679 282 m 0
 682 298 704 297 701 277 c 0
 695 230 663 145 612 144 c 0
 596 144 590 159 592 181 c 0
 593 200 591 218 619 218 c 0
 655 218 676 264 679 282 c 0
EndSplineSet
EndChar

StartChar: sad.init.alt
Encoding: 65608 -1 72
Width: 0
VWidth: 0
Flags: H
LayerCount: 2
Fore
SplineSet
351 340 m 0
 381 341 475 303 470 247 c 0
 466 202 425 122 413 111 c 0
 317 20 121 1 50 -2 c 1
 45 -13 38 -36 31 -53 c 0
 23 -72 3 -64 6 -43 c 0
 7 -33 12 -11 15 -0 c 1
 10 0 7 0 0 0 c 0
 -33 1 -36 92 1 91 c 0
 30 90 44 91 60 93 c 1
 107 161 255 337 351 340 c 0
399 193 m 0
 367 215 316 236 276 228 c 0
 228 219 147 151 105 94 c 1
 234 108 360 148 400 184 c 0
 404 187 403 190 399 193 c 0
EndSplineSet
EndChar

StartChar: lam+heh.fina
Encoding: 65609 -1 73
Width: 0
VWidth: 0
Flags: H
LayerCount: 2
Fore
SplineSet
370 17 m 0
 401 15 397 89 390 134 c 0
 364 292 342 425 319 593 c 0
 317 607 314 616 319 636 c 1
 341 689 l 1
 353 711 360 701 363 693 c 1
 379 560 424 236 449 170 c 0
 464 131 499 99 537 91 c 0
 576 83 563 -0 537 -0 c 0
 495 0 438 52 418 87 c 1
 422 6 412 -95 350 -96 c 0
 325 -97 320 21 370 17 c 0
161 95 m 0
 153 79 147 75 137 72 c 0
 93 64 29 68 17 78 c 0
 9 85 -5 101 1 120 c 0
 6 136 24 178 27 187 c 0
 33 204 44 215 44 215 c 1
 78 248 118 274 161 294 c 1
 156 333 l 2
 155 339 153 352 156 361 c 1
 176 406 l 1
 189 420 188 402 192 393 c 1
 199 346 221 235 238 160 c 0
 252 102 290 19 370 17 c 0
 412 16 389 -95 350 -96 c 0
 267 -98 209 38 184 161 c 1
 179 138 172 116 161 95 c 0
57 167 m 1
 84 145 138 155 161 164 c 0
 188 175 173 221 168 243 c 1
 116 229 78 205 57 167 c 1
EndSplineSet
EndChar

StartChar: faa+meem.init
Encoding: 65610 -1 74
Width: 0
VWidth: 0
Flags: H
LayerCount: 2
Fore
SplineSet
184 258 m 0
 235 272 274 265 301 230 c 0
 318 208 328 171 322 137 c 0
 316 106 296 68 280 52 c 0
 274 46 260 40 251 42 c 0
 203 51 167 72 119 98 c 1
 94 54 21 1 0 0 c 0
 -27 -2 -39 88 -0 90 c 0
 20 91 87 113 98 133 c 0
 114 161 128 242 184 258 c 0
233 192 m 0
 209 205 180 206 160 188 c 0
 155 184 157 180 163 175 c 0
 182 158 245 135 271 132 c 0
 277 131 281 133 280 139 c 0
 278 154 258 179 233 192 c 0
243 578 m 0
 271 579 303 541 318 513 c 0
 350 455 362 359 349 304 c 0
 341 267 317 243 301 230 c 0
 266 201 139 243 184 258 c 0
 233 275 280 260 320 305 c 0
 322 307 324 311 324 314 c 0
 321 343 304 377 289 379 c 1
 265 315 222 320 196 323 c 0
 129 331 132 421 149 468 c 0
 165 515 203 576 243 578 c 0
214 472 m 0
 203 472 192 466 183 453 c 0
 180 448 181 442 185 438 c 0
 203 421 229 421 250 434 c 0
 255 437 255 440 252 445 c 0
 242 461 228 472 214 472 c 0
EndSplineSet
EndChar

StartChar: ayn+meem.init
Encoding: 65611 -1 75
Width: 0
VWidth: 0
Flags: H
LayerCount: 2
Fore
SplineSet
251 438 m 1
 251 438 l 1
 251 438 l 1
 270 485 349 577 433 575 c 0
 484 574 516 533 537 505 c 0
 547 492 533 485 525 488 c 0
 474 505 386 509 288 447 c 0
 285 444 283 439 286 435 c 0
 301 410 344 367 421 352 c 1
 482 347 542 379 603 410 c 0
 622 420 636 402 628 390 c 2
 597 341 l 2
 595 337 587 329 583 328 c 0
 476 286 345 248 238 208 c 0
 223 202 191 189 176 187 c 0
 160 185 152 184 136 195 c 0
 120 206 120 217 127 221 c 0
 192 254 263 276 303 293 c 1
 217 353 235 400 251 438 c 1
127 221 m 0
 170 244 208 237 238 208 c 0
 268 178 287 142 289 124 c 0
 292 91 276 47 250 34 c 0
 218 18 110 62 82 87 c 1
 69 57 29 6 0 0 c 1
 -20 0 -29 19 -32 51 c 0
 -35 83 -24 91 -0 91 c 0
 28 91 61 99 74 113 c 1
 77 153 87 200 127 221 c 0
228 105 m 1
 220 132 195 155 168 167 c 0
 148 176 127 181 107 168 c 1
 104 165 105 160 109 157 c 0
 139 135 201 108 228 105 c 1
EndSplineSet
EndChar

StartChar: yaa.fina.alt
Encoding: 65612 -1 76
Width: 0
VWidth: 0
Flags: H
LayerCount: 2
Fore
SplineSet
668 91 m 0
 668 91 l 0
 668 91 l 1
 668 91 l 1
 668 91 l 1
 668 91 l 1
 691 87 698 85 691 56 c 0
 684 27 676 0 668 0 c 0
 564 5 562 100 515 104 c 0
 481 106 392 54 385 30 c 0
 373 -10 436 -36 489 -42 c 0
 535 -48 588 -54 615 -63 c 0
 664 -80 664 -152 638 -188 c 0
 612 -224 468 -311 291 -334 c 0
 115 -357 35 -269 10 -204 c 0
 -12 -147 5 -13 85 109 c 0
 93 121 112 112 103 96 c 0
 79 54 35 -16 45 -99 c 0
 58 -209 186 -249 274 -241 c 0
 403 -230 526 -181 600 -143 c 0
 604 -141 603 -141 600 -138 c 0
 574 -110 339 -130 332 -54 c 0
 324 30 466 188 543 190 c 0
 584 191 597 103 668 91 c 0
EndSplineSet
EndChar

StartChar: ayn+haa.init
Encoding: 65613 -1 77
Width: 0
VWidth: 0
Flags: H
LayerCount: 2
Fore
SplineSet
563 440 m 0
 555 422 546 407 533 387 c 0
 530 383 525 377 521 376 c 0
 412 346 188 289 143 259 c 0
 120 244 100 232 88 231 c 0
 74 229 41 231 59 247 c 0
 100 284 162 317 236 347 c 1
 193 381 161 406 190 483 c 0
 207 528 293 616 360 611 c 0
 424 606 456 562 469 544 c 0
 477 533 468 526 460 529 c 0
 431 539 400 549 360 548 c 0
 308 546 256 529 228 485 c 1
 236 469 279 411 347 408 c 0
 428 404 501 436 553 454 c 0
 560 456 568 452 563 440 c 0
145 250 m 0
 287 204 427 194 562 187 c 0
 566 187 571 185 569 175 c 0
 565 152 557 129 548 109 c 0
 546 104 542 102 537 103 c 0
 339 137 175 50 0 0 c 1
 -21 0 -28 22 -31 49 c 0
 -34 76 -31 88 -1 91 c 0
 82 101 161 119 240 135 c 1
 218 151 111 177 27 183 c 0
 21 183 20 187 22 192 c 0
 31 212 40 230 59 247 c 0
 80 265 110 261 145 250 c 0
EndSplineSet
EndChar

StartChar: lam.isol
Encoding: 65614 -1 78
Width: 0
VWidth: 0
Flags: H
LayerCount: 2
Fore
SplineSet
399 615 m 0
 403 624 416 625 420 612 c 0
 425 594 445 555 461 540 c 0
 469 533 466 525 463 520 c 0
 457 512 449 500 442 492 c 0
 436 485 437 481 437 473 c 0
 442 385 454 306 464 223 c 0
 469 179 474 141 476 112 c 0
 477 92 476 70 476 52 c 0
 474 11 464 -36 448 -72 c 0
 419 -143 287 -189 193 -193 c 0
 117 -196 38 -169 10 -93 c 0
 -4 -56 -3 4 9 49 c 0
 21 92 56 162 75 184 c 0
 87 198 101 184 92 169 c 0
 81 150 40 79 44 30 c 0
 51 -66 140 -89 226 -88 c 0
 342 -86 411 -34 435 0 c 1
 431 93 413 213 406 269 c 0
 394 360 389 427 382 523 c 0
 381 537 374 559 380 571 c 0
 390 590 395 606 399 615 c 0
EndSplineSet
EndChar

StartChar: meem.init
Encoding: 65615 -1 79
Width: 0
VWidth: 0
Flags: H
LayerCount: 2
Fore
SplineSet
233 318 m 0
 296 318 318 207 326 152 c 0
 327 146 327 140 323 135 c 2
 268 66 l 2
 265 62 260 56 249 59 c 0
 204 72 155 96 113 131 c 1
 96 92 69 11 0 0 c 0
 -14 -2 -40 86 0 91 c 0
 33 95 61 113 88 147 c 0
 136 209 163 318 233 318 c 0
202 237 m 0
 187 237 171 229 161 220 c 1
 180 202 213 182 251 174 c 1
 252 197 244 218 219 232 c 0
 214 235 208 237 202 237 c 0
EndSplineSet
EndChar

StartChar: kaf+lam.init
Encoding: 65616 -1 80
Width: 0
VWidth: 0
Flags: H
LayerCount: 2
Fore
SplineSet
223 82 m 0
 275 85 276 -15 232 -17 c 0
 119 -23 93 21 80 122 c 1
 63 64 39 12 0 0 c 0
 -22 -7 -35 88 1 90 c 0
 28 91 62 119 65 151 c 0
 70 204 54 459 43 623 c 0
 43 629 40 636 44 645 c 2
 67 698 l 2
 69 703 79 704 80 695 c 2
 100 411 l 2
 102 377 103 353 105 327 c 0
 110 238 111 114 156 91 c 0
 175 81 199 81 223 82 c 0
98 412 m 0
 122 538 560 673 676 717 c 0
 686 720 696 718 692 706 c 2
 675 653 l 2
 673 645 670 639 662 636 c 0
 503 577 188 482 134 413 c 0
 130 408 131 408 136 406 c 0
 258 358 378 249 377 156 c 0
 376 34 291 -15 232 -17 c 0
 188 -19 189 79 223 82 c 0
 271 87 323 112 354 143 c 0
 357 145 357 147 356 149 c 0
 304 238 167 315 104 334 c 0
 73 343 93 383 98 412 c 0
EndSplineSet
EndChar

StartChar: baa+heh.init
Encoding: 65617 -1 81
Width: 0
VWidth: 0
Flags: H
LayerCount: 2
Fore
SplineSet
408 63 m 1
 392 95 372 106 333 104 c 0
 246 100 172 54 153 14 c 0
 139 -16 132 -17 131 -13 c 0
 128 -5 141 18 145 26 c 0
 184 93 225 130 271 155 c 0
 330 187 385 195 430 178 c 0
 446 172 464 159 465 137 c 0
 466 118 458 91 435 65 c 0
 426 54 414 54 408 63 c 1
153 14 m 0
 114 -73 134 -151 157 -212 c 0
 159 -217 160 -220 157 -225 c 2
 123 -276 l 2
 120 -280 118 -287 112 -281 c 0
 46 -204 44 -87 72 33 c 1
 41 10 17 3 0 0 c 0
 -13 -2 -23 41 -25 64 c 0
 -27 87 -19 87 0 90 c 0
 72 101 108 147 144 208 c 1
 158 227 174 214 167 202 c 0
 149 170 125 121 108 70 c 0
 89 12 78 -48 90 -82 c 0
 90 -83 92 -83 93 -81 c 0
 110 -39 127 -4 145 26 c 0
 173 74 173 59 153 14 c 0
EndSplineSet
EndChar

StartChar: lam.fina
Encoding: 65618 -1 82
Width: 0
VWidth: 0
Flags: H
LayerCount: 2
Fore
SplineSet
361 573 m 1
 368 593 372 620 379 633 c 1
 394 654 400 612 404 589 c 0
 427 451 452 239 485 182 c 0
 505 148 541 104 581 91 c 0
 615 80 598 -4 581 0 c 0
 518 16 466 72 453 94 c 1
 461 6 477 -84 462 -173 c 0
 454 -216 439 -250 409 -276 c 0
 354 -323 261 -358 194 -360 c 0
 138 -362 76 -340 46 -306 c 0
 11 -268 -6 -221 3 -156 c 0
 9 -113 28 -43 91 43 c 0
 100 55 120 46 108 27 c 0
 59 -50 31 -101 57 -172 c 0
 74 -219 130 -262 236 -254 c 0
 320 -248 389 -210 442 -157 c 1
 359 524 l 2
 356 545 357 560 361 573 c 1
EndSplineSet
EndChar

StartChar: haa+haa.init
Encoding: 65619 -1 83
Width: 0
VWidth: 0
Flags: H
LayerCount: 2
Fore
SplineSet
147 232 m 0
 183 218 372 162 497 157 c 0
 507 157 512 145 506 138 c 2
 474 101 l 2
 471 98 466 90 451 92 c 0
 385 102 331 93 281 85 c 0
 186 70 85 26 0 0 c 0
 -15 -5 -44 85 -1 90 c 0
 73 99 115 110 191 132 c 0
 197 134 194 138 190 140 c 0
 127 165 51 175 -7 188 c 0
 -10 189 -11 188 -11 191 c 0
 -10 225 9 237 35 252 c 0
 49 260 116 245 147 232 c 0
108 399 m 0
 113 428 145 488 203 487 c 0
 265 486 324 432 379 404 c 0
 425 380 510 349 602 343 c 0
 618 342 618 328 615 322 c 0
 607 305 598 283 587 267 c 0
 584 262 580 262 575 263 c 0
 406 310 278 291 147 239 c 0
 102 221 62 208 7 185 c 1
 2 186 -3 187 -7 188 c 0
 -10 189 -11 188 -11 191 c 0
 -9 238 30 254 118 285 c 0
 172 304 229 319 330 336 c 0
 336 337 337 340 332 343 c 0
 231 404 183 410 121 394 c 0
 113 392 106 389 108 399 c 0
EndSplineSet
EndChar

StartChar: faa.medi
Encoding: 65620 -1 84
Width: 0
VWidth: 0
Flags: H
LayerCount: 2
Fore
SplineSet
283 379 m 0
 287 379 290 379 292 377 c 0
 344 345 327 226 306 179 c 0
 294 153 278 127 270 115 c 1
 297 101 323 95 348 89 c 0
 368 85 365 -1 347 0 c 0
 288 5 217 33 172 58 c 1
 124 35 24 1 0 0 c 0
 -26 -1 -27 89 -0 91 c 0
 40 94 74 103 106 116 c 1
 85 246 232 379 283 379 c 0
238 273 m 0
 191 278 155 230 151 222 c 0
 141 201 166 154 215 149 c 0
 226 148 269 172 279 187 c 1
 288 215 265 270 238 273 c 0
EndSplineSet
EndChar

StartChar: kaf+meem+alef.isol
Encoding: 65621 -1 85
Width: 0
VWidth: 0
Flags: H
LayerCount: 2
Fore
SplineSet
84 313 m 0
 88 240 84 68 177 -8 c 0
 250 -68 182 -134 137 -83 c 0
 113 -56 93 -27 81 2 c 0
 27 134 54 332 2 663 c 0
 1 672 -2 678 2 685 c 2
 32 732 l 2
 36 738 45 743 47 725 c 0
 60 629 68 538 76 446 c 0
 80 399 81 367 84 313 c 0
137 -83 m 0
 66 -2 129 35 177 -8 c 0
 181 -11 188 -11 187 -3 c 0
 185 17 203 11 223 -10 c 0
 256 -46 293 -69 351 -88 c 0
 359 -91 368 -99 364 -111 c 2
 340 -182 l 2
 335 -196 325 -202 309 -197 c 0
 247 -179 183 -136 137 -83 c 0
187 -3 m 0
 186 23 201 61 227 82 c 0
 270 116 351 107 420 129 c 0
 429 132 427 140 422 148 c 0
 367 232 193 286 84 313 c 0
 54 320 39 387 76 446 c 0
 156 574 482 676 684 781 c 0
 688 783 691 784 694 784 c 2
 694 784 l 1
 694 784 l 1
 694 784 l 1
 694 784 l 1
 702 784 707 778 704 767 c 2
 688 706 l 2
 683 685 675 683 666 679 c 0
 572 644 188 493 101 414 c 0
 98 411 97 407 102 406 c 0
 453 306 478 185 453 101 c 0
 430 26 280 42 236 28 c 0
 216 21 210 4 223 -10 c 0
 245 -34 189 -70 187 -3 c 0
EndSplineSet
EndChar

StartChar: yaa.fina
Encoding: 65622 -1 86
Width: 0
VWidth: 0
Flags: H
LayerCount: 2
Fore
SplineSet
2 27 m 0
 7 97 45 190 72 227 c 0
 80 239 99 232 90 215 c 0
 69 176 14 81 49 -3 c 0
 70 -54 138 -107 252 -103 c 0
 355 -99 471 -61 553 12 c 1
 579 46 436 39 380 53 c 1
 343 65 351 110 367 137 c 0
 397 187 471 219 525 233 c 0
 540 237 552 226 549 200 c 0
 546 174 535 144 524 143 c 0
 505 141 427 146 426 117 c 1
 492 114 592 110 607 54 c 0
 615 25 587 -34 570 -54 c 0
 515 -121 352 -198 246 -197 c 0
 53 -195 -7 -104 2 27 c 0
EndSplineSet
EndChar

StartChar: baa.fina
Encoding: 65623 -1 87
Width: 0
VWidth: 0
Flags: H
LayerCount: 2
Fore
SplineSet
57 254 m 0
 67 265 84 253 73 238 c 0
 55 214 38 183 45 154 c 0
 71 41 219 17 348 22 c 0
 461 27 548 47 606 64 c 0
 694 90 711 96 723 148 c 0
 727 165 754 165 752 139 c 0
 751 133 747 118 755 112 c 0
 768 100 794 95 811 91 c 1
 832 88 847 83 844 58 c 0
 841 33 835 0 811 0 c 1
 785 10 764 32 749 44 c 0
 739 52 739 49 728 41 c 0
 636 -28 467 -80 297 -79 c 0
 103 -78 34 -22 11 41 c 0
 -19 121 26 221 57 254 c 0
EndSplineSet
EndChar

StartChar: haa.medi.alt
Encoding: 65624 -1 88
Width: 0
VWidth: 0
Flags: H
LayerCount: 2
Fore
SplineSet
116 281 m 0
 134 291 158 291 178 285 c 0
 243 266 322 229 420 219 c 0
 456 215 469 217 516 219 c 0
 521 219 527 215 523 205 c 2
 502 143 l 2
 499 134 491 135 484 135 c 0
 441 137 409 138 369 126 c 1
 370 113 377 104 388 97 c 0
 407 85 448 86 524 86 c 0
 552 86 546 -4 524 -4 c 0
 481 -4 423 -5 380 -2 c 0
 323 2 322 43 334 115 c 1
 294 99 252 78 215 62 c 0
 152 35 75 0 0 0 c 1
 -16 33 -14 65 -3 97 c 1
 11 158 65 253 116 281 c 0
242 156 m 1
 178 179 136 195 96 186 c 0
 68 180 27 133 18 98 c 1
 21 95 29 93 35 93 c 0
 101 98 182 129 242 156 c 1
EndSplineSet
EndChar

StartChar: semicolon
Encoding: 59 59 89
Width: 1000
VWidth: 0
Flags: H
LayerCount: 2
Fore
SplineSet
109 539 m 0
 130 554 150 532 132 513 c 0
 76 454 14 379 47 278 c 1
 50 272 55 269 59 273 c 0
 73 290 94 301 118 301 c 0
 160 301 194 267 194 225 c 0
 194 183 156 148 114 149 c 0
 90 150 69 155 54 167 c 0
 10 201 -6 258 2 347 c 0
 10 436 79 518 109 539 c 0
169 47 m 0
 169 21 148 0 122 -0 c 0
 96 0 74 21 74 47 c 0
 74 73 96 95 122 95 c 0
 148 95 169 73 169 47 c 0
EndSplineSet
EndChar

StartChar: meem.medi
Encoding: 65625 -1 90
Width: 0
VWidth: 0
Flags: H
LayerCount: 2
Fore
SplineSet
230 243 m 0
 233 244 237 243 239 241 c 0
 262 205 293 168 328 140 c 0
 368 108 412 88 464 77 c 0
 490 71 481 -15 465 -13 c 0
 414 -8 365 10 324 40 c 1
 321 13 318 -32 292 -30 c 0
 218 -25 142 28 107 75 c 0
 103 78 104 77 100 74 c 0
 70 44 36 18 0 0 c 0
 -20 -10 -25 90 -0 90 c 0
 42 90 74 97 101 112 c 0
 126 125 144 215 230 243 c 0
224 169 m 0
 223 172 221 172 217 171 c 0
 199 167 182 160 173 148 c 0
 170 144 170 140 174 137 c 0
 199 115 225 100 258 88 c 0
 262 87 268 90 265 94 c 0
 252 111 237 138 224 169 c 0
EndSplineSet
EndChar

StartChar: dot.single
Encoding: 65626 -1 91
Width: 0
VWidth: 0
Flags: H
LayerCount: 2
Fore
SplineSet
49 127 m 0
 52 131 52 131 57 129 c 0
 83 120 106 106 128 87 c 0
 132 83 133 83 130 78 c 0
 112 49 96 26 82 3 c 0
 80 -1 80 -1 76 2 c 0
 58 17 28 33 2 49 c 0
 -1 51 -2 50 0 54 c 0
 18 82 33 103 49 127 c 0
EndSplineSet
EndChar

StartChar: kaf.init
Encoding: 65627 -1 92
Width: 0
VWidth: 0
Flags: H
LayerCount: 2
Fore
SplineSet
514 767 m 2
 495 721 l 2
 492 714 490 709 483 707 c 0
 318 660 172 610 23 528 c 0
 20 526 18 522 21 517 c 0
 100 404 190 290 152 122 c 0
 133 37 38 1 0 0 c 0
 -22 -1 -49 89 -0 90 c 0
 33 90 116 112 132 127 c 1
 152 183 73 326 43 363 c 0
 36 372 31 376 24 374 c 2
 6 369 l 2
 -1 367 -8 373 -12 378 c 2
 -55 441 l 2
 -62 451 -61 461 -60 467 c 0
 -54 502 -34 541 -20 558 c 0
 42 636 319 746 496 791 c 0
 517 796 521 782 514 767 c 2
EndSplineSet
EndChar

StartChar: alef.fina
Encoding: 65628 -1 93
Width: 0
VWidth: 0
Flags: H
LayerCount: 2
Fore
SplineSet
35 714 m 2
 46 734 50 713 52 701 c 0
 68 610 79 522 87 437 c 0
 95 354 103 244 111 186 c 0
 119 128 133 111 173 91 c 0
 191 83 207 76 203 55 c 0
 199 34 197 1 172 0 c 0
 86 0 79 82 73 123 c 0
 67 164 51 360 49 392 c 0
 47 424 16 602 4 636 c 0
 0 646 1 651 7 662 c 2
 35 714 l 2
EndSplineSet
EndChar

StartChar: seen.init.alt
Encoding: 65629 -1 94
Width: 0
VWidth: 0
Flags: H
LayerCount: 2
Fore
SplineSet
254 261 m 1
 254 261 l 1
 254 261 l 1
 254 261 l 1
 254 261 l 1
 254 261 l 1
 254 261 l 1
 254 261 l 1
 256 267 260 267 263 264 c 0
 290 237 290 184 281 139 c 0
 271 91 242 45 226 43 c 0
 172 38 125 66 102 93 c 1
 78 51 51 13 0 0 c 0
 -17 -4 -23 89 0 91 c 0
 69 97 111 129 138 236 c 0
 141 250 160 246 157 232 c 0
 153 211 146 188 149 178 c 0
 153 162 191 134 244 131 c 0
 246 131 245 132 245 133 c 0
 241 147 234 158 226 168 c 0
 223 171 223 173 225 177 c 0
 232 198 244 233 254 261 c 1
EndSplineSet
EndChar

StartChar: meem+meem.init
Encoding: 65630 -1 95
Width: 0
VWidth: 0
Flags: H
LayerCount: 2
Fore
SplineSet
208 409 m 2
 193 426 l 2
 186 434 187 442 189 449 c 0
 192 463 201 504 217 525 c 0
 222 531 235 538 245 539 c 0
 304 542 356 509 385 456 c 0
 391 444 389 434 385 420 c 0
 377 395 371 380 365 363 c 0
 357 340 327 339 317 339 c 0
 256 338 180 329 139 279 c 1
 135 273 136 270 138 263 c 0
 150 213 175 175 203 161 c 0
 226 150 220 111 194 100 c 0
 168 89 120 107 111 139 c 0
 102 173 88 231 120 300 c 0
 135 333 166 378 210 399 c 0
 215 401 210 406 208 409 c 2
203 161 m 0
 247 141 275 129 301 102 c 0
 303 100 303 97 303 93 c 0
 302 63 298 21 294 1 c 0
 293 -4 289 -6 280 -3 c 0
 203 25 201 62 160 63 c 0
 105 65 69 15 0 0 c 0
 -13 -3 -21 27 -26 54 c 0
 -31 81 -16 88 -0 91 c 0
 30 97 69 124 111 139 c 0
 127 145 184 170 203 161 c 0
EndSplineSet
EndChar

StartChar: lam+kaf.isol
Encoding: 65631 -1 96
Width: 0
VWidth: 0
Flags: H
LayerCount: 2
Fore
SplineSet
616 726 m 2
 619 732 631 736 632 724 c 0
 636 691 664 419 686 302 c 1
 695 259 716 145 773 118 c 0
 790 110 808 3 776 4 c 0
 711 7 668 127 656 213 c 0
 654 229 650 217 646 207 c 0
 635 175 617 120 579 96 c 0
 460 20 245 -17 134 8 c 0
 68 23 36 55 18 82 c 0
 -11 126 -2 229 40 311 c 0
 50 330 67 314 61 302 c 0
 31 243 23 185 62 154 c 0
 100 124 136 109 251 107 c 0
 362 105 530 141 595 195 c 0
 617 213 637 248 631 288 c 0
 628 310 608 450 587 650 c 0
 586 659 585 668 589 676 c 2
 616 726 l 2
351 610 m 1
 357 610 360 604 358 599 c 2
 336 546 l 2
 332 536 328 534 325 533 c 0
 312 530 293 521 286 512 c 0
 280 504 304 490 351 483 c 0
 398 476 383 439 380 431 c 0
 369 401 335 346 309 339 c 0
 280 332 198 340 157 355 c 0
 142 360 144 377 156 378 c 0
 230 383 298 378 322 391 c 0
 328 394 324 401 315 403 c 2
 286 410 l 2
 255 417 233 440 239 463 c 0
 257 537 288 593 351 610 c 1
776 4 m 0
 726 9 739 134 773 118 c 0
 790 110 809 109 833 119 c 1
 838 182 784 479 764 607 c 1
 750 652 l 2
 747 661 745 673 748 679 c 2
 748 679 765 710 773 725 c 0
 778 734 784 729 786 724 c 0
 796 693 821 665 838 648 c 0
 843 643 841 636 839 633 c 2
 821 605 l 2
 818 600 814 595 816 581 c 0
 836 463 859 354 869 232 c 0
 873 177 873 74 848 36 c 0
 833 13 796 2 776 4 c 0
EndSplineSet
EndChar

StartChar: haa+raa.isol
Encoding: 65632 -1 97
Width: 0
VWidth: 0
Flags: H
LayerCount: 2
Fore
SplineSet
374 112 m 0
 384 115 418 87 411 46 c 0
 397 -33 362 -102 326 -145 c 0
 278 -202 221 -224 172 -230 c 0
 148 -233 64 -182 4 -137 c 0
 -3 -132 3 -118 12 -123 c 0
 52 -146 97 -164 132 -166 c 0
 154 -167 190 -154 220 -139 c 0
 286 -107 340 -65 384 17 c 0
 386 20 388 22 386 26 c 0
 383 32 359 52 348 58 c 0
 345 59 344 63 346 67 c 2
 368 108 l 2
 369 110 370 111 374 112 c 0
900 159 m 0
 895 137 882 108 867 88 c 0
 864 84 861 84 856 86 c 0
 808 104 720 117 657 109 c 1
 571 97 485 83 404 52 c 0
 402 51 399 50 397 50 c 0
 391 50 365 102 368 108 c 0
 369 110 370 111 374 112 c 0
 417 124 524 151 572 156 c 0
 579 157 581 159 574 164 c 0
 538 190 506 204 468 206 c 0
 434 207 395 199 349 184 c 0
 345 183 342 186 344 191 c 0
 357 226 368 250 384 267 c 1
 419 297 476 308 519 290 c 1
 571 266 628 229 684 210 c 0
 750 188 826 171 889 170 c 0
 898 170 901 165 900 159 c 0
EndSplineSet
EndChar

StartChar: lam+baa+meem.init
Encoding: 65633 -1 98
Width: 0
VWidth: 0
Flags: H
LayerCount: 2
Fore
SplineSet
120 123 m 0
 153 143 152 172 201 149 c 0
 236 132 261 135 300 113 c 0
 307 109 315 99 312 89 c 1
 313 69 309 36 303 6 c 0
 301 0 299 -8 287 -2 c 0
 228 26 202 46 163 48 c 0
 109 51 62 0 0 0 c 0
 -23 0 -38 89 0 91 c 0
 42 94 92 106 120 123 c 0
323 325 m 0
 338 320 331 237 308 241 c 0
 270 248 261 317 227 321 c 0
 188 325 147 294 134 277 c 0
 131 274 130 269 130 265 c 0
 130 239 159 171 201 149 c 0
 273 110 147 75 120 123 c 0
 95 167 86 222 104 278 c 1
 126 341 190 396 249 399 c 0
 291 401 290 336 323 325 c 0
385 694 m 0
 388 701 396 703 399 695 c 0
 408 670 436 634 452 619 c 0
 458 614 456 604 452 598 c 0
 445 588 430 567 431 564 c 0
 442 500 454 415 450 384 c 0
 439 298 405 224 308 241 c 0
 277 246 286 337 323 325 c 0
 350 316 409 338 414 372 c 1
 409 419 396 485 382 569 c 0
 378 591 367 616 364 626 c 0
 361 635 361 643 364 650 c 0
 370 665 378 680 385 694 c 0
EndSplineSet
EndChar

StartChar: meem.isol
Encoding: 65634 -1 99
Width: 0
VWidth: 0
Flags: H
LayerCount: 2
Fore
SplineSet
93 236 m 1
 118 247 147 254 180 258 c 1
 162 273 140 287 124 283 c 0
 104 277 95 257 93 236 c 1
41 200 m 1
 52 281 92 379 139 395 c 0
 146 397 157 399 168 399 c 0
 175 399 181 398 187 396 c 0
 229 381 280 337 319 287 c 0
 321 284 327 274 326 266 c 0
 323 247 313 185 308 170 c 0
 305 161 296 158 290 159 c 0
 227 174 116 188 41 99 c 0
 35 92 34 88 36 80 c 0
 75 -63 136 -337 126 -417 c 0
 122 -449 98 -454 94 -416 c 0
 90 -370 72 -280 53 -193 c 0
 31 -94 -8 27 2 93 c 0
 9 138 20 175 41 200 c 1
EndSplineSet
EndChar

StartChar: lam.medi
Encoding: 65635 -1 100
Width: 0
VWidth: 0
Flags: H
LayerCount: 2
Fore
SplineSet
177 77 m 0
 205 62 185 -15 177 -13 c 0
 153 -9 112 14 84 110 c 0
 81 119 79 121 77 121 c 0
 73 121 72 112 71 108 c 0
 64 59 18 5 0 0 c 0
 -18 -5 -20 84 -0 90 c 0
 44 103 63 144 63 172 c 0
 63 227 43 479 36 648 c 0
 35 664 41 690 56 691 c 0
 69 692 81 659 82 650 c 0
 83 639 102 251 111 197 c 0
 118 152 139 97 177 77 c 0
EndSplineSet
EndChar

StartChar: lam+yaa.fina
Encoding: 65636 -1 101
Width: 0
VWidth: 0
Flags: H
LayerCount: 2
Fore
SplineSet
384 -67 m 1
 395 -57 402 -51 408 -44 c 1
 417 -45 426 -48 439 -50 c 0
 471 -56 551 -66 585 -102 c 0
 589 -106 592 -111 593 -117 c 0
 597 -166 578 -221 541 -251 c 0
 435 -336 293 -386 157 -359 c 0
 70 -341 0 -273 0 -170 c 0
 0 -66 71 59 95 100 c 0
 103 113 124 106 114 89 c 0
 101 67 61 -5 51 -54 c 0
 35 -134 78 -225 164 -252 c 0
 295 -294 495 -217 553 -151 c 1
 506 -122 435 -114 378 -106 c 1
 380 -91 381 -79 384 -67 c 1
423 684 m 1
 423 684 l 1
 423 684 l 1
 423 684 l 1
 423 684 l 1
 426 694 440 696 443 686 c 1
 460 554 480 388 503 288 c 0
 526 188 547 144 602 100 c 0
 649 62 622 -13 602 -0 c 0
 556 29 516 84 488 137 c 1
 485 75 466 -3 439 -50 c 0
 424 -77 395 -100 378 -106 c 1
 380 -91 381 -79 384 -67 c 1
 396 -55 422 -36 431 -14 c 1
 464 49 458 124 455 193 c 1
 440 315 421 436 404 558 c 1
 396 604 412 643 423 684 c 1
EndSplineSet
EndChar

StartChar: taa.init
Encoding: 65637 -1 102
Width: 0
VWidth: 0
Flags: H
LayerCount: 2
Fore
SplineSet
125 769 m 0
 130 777 137 773 140 765 c 0
 152 738 163 708 183 687 c 0
 188 682 186 672 182 667 c 0
 172 655 172 654 162 642 c 0
 157 636 157 629 158 621 c 0
 163 546 170 470 171 400 c 0
 171 347 169 291 158 240 c 1
 239 305 328 364 376 377 c 0
 399 383 419 384 436 378 c 0
 463 368 485 341 501 310 c 0
 505 303 504 289 502 281 c 0
 490 238 475 202 451 167 c 1
 436 142 382 120 353 113 c 0
 226 83 130 68 0 60 c 0
 -21 59 -36 149 -0 151 c 0
 22 152 49 154 66 156 c 1
 88 177 101 189 122 210 c 1
 125 221 128 275 128 288 c 0
 126 390 115 598 104 668 c 0
 103 677 100 689 99 696 c 0
 98 701 97 708 99 714 c 0
 104 727 115 752 125 769 c 0
340 285 m 0
 333 285 326 285 319 283 c 0
 254 264 171 206 127 159 c 1
 230 168 347 185 435 217 c 0
 438 218 440 221 438 224 c 0
 417 256 378 285 340 285 c 0
EndSplineSet
EndChar

StartChar: alef.isol
Encoding: 65638 -1 103
Width: 0
VWidth: 0
Flags: H
LayerCount: 2
Fore
SplineSet
72 683 m 1
 84 706 90 689 90 672 c 1
 94 606 103 505 112 427 c 0
 120 357 127 290 130 199 c 0
 132 140 131 56 108 7 c 0
 102 -5 90 2 93 18 c 1
 95 74 91 165 87 203 c 0
 83 241 55 465 44 593 c 0
 43 605 43 614 49 627 c 2
 72 683 l 1
EndSplineSet
EndChar

StartChar: meem.fina
Encoding: 65639 -1 104
Width: 0
VWidth: 0
Flags: H
LayerCount: 2
Fore
SplineSet
188 209 m 0
 191 209 195 207 199 202 c 0
 272 116 387 93 459 90 c 0
 477 89 489 78 484 50 c 0
 479 22 472 0 460 0 c 0
 411 0 348 13 295 40 c 0
 292 42 290 40 290 37 c 0
 292 -9 288 -75 252 -104 c 0
 245 -110 238 -113 224 -103 c 0
 198 -85 158 -18 154 57 c 1
 118 62 57 17 43 -2 c 0
 21 -33 114 -459 92 -549 c 0
 80 -598 56 -580 55 -543 c 0
 52 -443 32 -343 15 -233 c 0
 -5 -108 -7 -28 21 42 c 0
 48 111 107 147 163 170 c 1
 167 181 171 191 177 200 c 0
 181 206 185 209 188 209 c 0
EndSplineSet
EndChar

StartChar: kaf+lam+alef.isol
Encoding: 65640 -1 105
Width: 0
VWidth: 0
Flags: H
LayerCount: 2
Fore
SplineSet
388 189 m 0
 389 159 361 121 362 160 c 0
 366 311 211 408 163 425 c 0
 160 426 156 426 156 422 c 0
 155 417 154 412 153 407 c 0
 152 402 150 396 139 399 c 0
 2 442 -11 509 4 594 c 0
 7 611 29 614 39 610 c 0
 192 549 379 406 388 189 c 0
625 100 m 0
 673 103 676 1 632 -2 c 0
 462 -16 488 142 474 348 c 0
 474 352 468 352 467 348 c 0
 380 -3 275 -34 54 -41 c 0
 41 -41 40 -30 50 -26 c 0
 186 27 294 71 388 189 c 0
 422 232 466 477 464 638 c 0
 464 645 466 652 468 660 c 0
 475 682 484 702 493 721 c 0
 499 734 514 725 515 710 c 1
 514 611 512 528 512 441 c 0
 512 412 515 374 516 350 c 0
 519 264 522 159 549 126 c 0
 565 107 592 98 625 100 c 0
625 100 m 0
 668 102 721 119 765 147 c 0
 769 149 775 156 776 158 c 1
 735 263 580 328 516 350 c 0
 478 364 487 398 512 441 c 0
 594 579 964 695 1124 758 c 0
 1134 762 1148 760 1144 746 c 2
 1125 697 l 2
 1119 682 1112 675 1102 671 c 0
 949 619 629 497 558 434 c 1
 705 376 806 278 808 176 c 0
 810 97 737 4 632 -2 c 0
 590 -5 568 98 625 100 c 0
EndSplineSet
EndChar

StartChar: sad+haa.isol
Encoding: 65641 -1 106
Width: 0
VWidth: 0
Flags: H
LayerCount: 2
Fore
SplineSet
729 780 m 0
 761 780 847 723 848 677 c 0
 849 647 767 534 729 518 c 0
 657 488 527 460 389 488 c 1
 380 476 373 465 367 456 c 0
 358 440 341 444 346 459 c 0
 349 470 355 481 362 493 c 1
 325 509 292 535 277 561 c 1
 241 507 196 469 153 434 c 0
 120 408 57 356 18 350 c 0
 14 349 10 354 12 358 c 2
 41 426 l 2
 42 429 44 430 47 432 c 0
 191 505 261 571 295 648 c 0
 299 657 315 663 325 645 c 0
 344 610 377 586 424 575 c 1
 515 675 657 781 729 780 c 0
659 684 m 0
 654 684 649 683 644 682 c 0
 576 667 511 620 459 569 c 1
 585 553 752 596 765 620 c 1
 741 652 699 684 659 684 c 0
47 432 m 0
 50 434 106 430 154 427 c 0
 298 419 437 415 577 421 c 0
 582 421 582 418 581 415 c 2
 553 353 l 2
 551 350 546 348 543 348 c 0
 438 337 337 321 254 283 c 0
 153 238 78 164 68 50 c 0
 58 -70 135 -143 232 -175 c 0
 389 -226 600 -205 651 -194 c 0
 657 -193 662 -202 653 -207 c 0
 599 -240 548 -263 489 -288 c 0
 481 -292 463 -295 454 -295 c 0
 113 -297 -24 -178 25 43 c 0
 62 209 182 311 240 343 c 0
 244 345 244 347 239 347 c 0
 166 352 92 350 18 350 c 0
 14 350 10 354 12 358 c 2
 41 426 l 2
 42 429 44 430 47 432 c 0
EndSplineSet
EndChar

StartChar: heh.isol
Encoding: 65642 -1 107
Width: 0
VWidth: 0
Flags: H
LayerCount: 2
Fore
SplineSet
97 350 m 0
 106 356 125 354 137 348 c 0
 173 331 213 286 231 245 c 0
 246 211 248 158 240 122 c 0
 224 54 172 2 103 1 c 0
 8 0 -13 78 12 175 c 0
 26 228 59 288 89 323 c 0
 94 329 88 344 97 350 c 0
192 135 m 0
 215 152 137 224 98 221 c 0
 69 219 45 169 50 147 c 0
 55 125 85 110 115 110 c 0
 157 110 177 124 192 135 c 0
EndSplineSet
EndChar

StartChar: kaf+raa.isol
Encoding: 65643 -1 108
Width: 0
VWidth: 0
Flags: H
LayerCount: 2
Fore
SplineSet
222 155 m 1
 241 142 280 82 276 26 c 0
 269 -78 208 -229 100 -255 c 0
 48 -268 -41 -224 -99 -205 c 0
 -110 -201 -108 -184 -92 -185 c 0
 -43 -189 11 -195 48 -186 c 0
 109 -172 213 -90 237 -34 c 1
 248 10 217 51 195 66 c 0
 192 68 194 77 195 81 c 2
 210 151 l 2
 212 158 220 159 222 155 c 1
758 816 m 1
 744 750 l 2
 742 742 737 740 731 739 c 0
 559 696 391 655 185 557 c 1
 280 461 410 314 385 141 c 0
 380 105 357 37 276 26 c 0
 249 22 205 144 240 136 c 0
 274 128 320 140 353 157 c 1
 375 210 290 319 209 400 c 0
 206 403 198 406 192 401 c 2
 183 394 l 2
 179 391 170 388 163 396 c 0
 144 417 126 436 107 461 c 0
 104 465 104 477 105 482 c 0
 117 537 140 612 218 656 c 0
 300 702 543 774 749 826 c 0
 757 828 759 821 758 816 c 1
EndSplineSet
EndChar

StartChar: seen.isol
Encoding: 65644 -1 109
Width: 0
VWidth: 0
Flags: H
LayerCount: 2
Fore
SplineSet
832 394 m 2
 836 408 849 407 855 396 c 0
 873 366 871 293 856 252 c 0
 837 202 832 187 809 179 c 0
 781 170 721 191 700 207 c 1
 667 153 637 133 571 139 c 1
 565 42 550 -48 471 -114 c 1
 409 -161 326 -199 218 -199 c 0
 137 -199 92 -176 48 -133 c 0
 -40 -47 21 123 72 213 c 0
 80 227 98 219 91 205 c 0
 70 165 32 88 40 42 c 0
 53 -30 123 -88 228 -93 c 0
 326 -98 459 -59 521 36 c 0
 536 60 509 176 485 214 c 0
 482 219 479 225 482 231 c 0
 493 255 505 277 518 298 c 0
 520 302 525 302 528 299 c 0
 541 287 558 241 573 238 c 0
 598 232 645 238 677 269 c 0
 701 293 704 321 714 360 c 0
 719 378 737 372 738 362 c 0
 739 343 737 330 734 313 c 1
 754 295 800 283 823 289 c 1
 823 294 819 307 815 313 c 0
 813 316 813 318 814 322 c 2
 832 394 l 2
EndSplineSet
EndChar

StartChar: baa+daal.isol
Encoding: 65645 -1 110
Width: 0
VWidth: 0
Flags: H
LayerCount: 2
Fore
SplineSet
412 113 m 0
 439 97 509 9 456 4 c 0
 360 -6 337 100 310 172 c 0
 309 175 303 176 302 172 c 0
 297 148 282 93 265 73 c 1
 213 21 85 -16 29 7 c 0
 1 19 -10 65 15 145 c 0
 16 149 26 152 29 143 c 0
 33 131 38 120 52 111 c 0
 80 94 125 102 172 115 c 0
 249 136 272 157 286 181 c 0
 304 211 265 305 246 395 c 0
 244 407 243 420 246 432 c 0
 250 450 255 467 266 493 c 0
 269 500 281 502 286 481 c 0
 314 353 369 138 412 113 c 0
461 197 m 0
 466 226 474 253 483 282 c 1
 486 288 493 292 500 280 c 0
 526 236 535 153 527 95 c 0
 520 42 505 10 456 4 c 0
 422 0 400 12 384 26 c 0
 350 56 382 131 412 113 c 0
 431 102 472 105 493 113 c 0
 497 115 499 118 500 122 c 0
 503 134 479 171 464 186 c 0
 461 190 460 192 461 197 c 0
EndSplineSet
EndChar

StartChar: baa+meem.init
Encoding: 65646 -1 111
Width: 0
VWidth: 0
Flags: H
LayerCount: 2
Fore
SplineSet
331 349 m 1
 331 349 l 1
 293 382 254 389 218 371 c 0
 189 356 160 333 144 298 c 0
 142 294 141 290 142 286 c 0
 150 247 185 197 203 184 c 0
 227 167 211 129 187 117 c 0
 163 105 125 116 117 141 c 0
 112 157 92 240 113 306 c 0
 122 333 132 363 150 387 c 0
 188 438 243 475 275 476 c 0
 307 477 338 467 363 442 c 0
 369 436 377 429 374 419 c 0
 368 395 360 372 345 350 c 0
 342 345 338 343 331 349 c 1
117 141 m 0
 151 151 192 193 203 184 c 0
 227 165 272 153 311 125 c 0
 318 120 326 111 323 101 c 2
 302 28 l 2
 300 22 298 14 286 20 c 0
 227 48 210 63 168 63 c 0
 97 63 58 10 0 0 c 0
 -13 -2 -20 33 -24 49 c 0
 -30 73 -28 82 0 90 c 0
 52 104 80 130 117 141 c 0
EndSplineSet
EndChar

StartChar: lam+heh.init
Encoding: 65647 -1 112
Width: 0
VWidth: 0
Flags: H
LayerCount: 2
Fore
SplineSet
195 345 m 0
 208 353 236 353 249 299 c 0
 251 293 257 286 263 283 c 0
 312 261 368 226 389 202 c 0
 396 194 400 183 401 173 c 0
 406 127 393 74 364 46 c 0
 358 40 347 35 338 34 c 0
 291 26 200 24 112 51 c 1
 80 30 34 10 0 0 c 0
 -25 -7 -30 87 1 90 c 0
 9 91 40 95 55 103 c 1
 51 131 53 155 59 178 c 0
 76 248 148 315 195 345 c 0
165 260 m 0
 147 260 102 227 77 177 c 0
 76 174 76 172 76 170 c 0
 81 150 99 137 140 128 c 1
 159 136 186 151 196 162 c 1
 212 194 195 260 165 260 c 0
239 211 m 1
 234 177 222 149 195 118 c 1
 223 111 300 107 337 109 c 0
 356 110 359 126 354 133 c 0
 331 163 277 192 239 211 c 1
172 648 m 0
 176 656 192 683 199 694 c 0
 204 701 212 697 213 691 c 0
 216 669 231 633 251 609 c 0
 256 603 256 599 250 590 c 0
 241 578 219 562 218 555 c 1
 225 467 233 355 249 299 c 0
 251 293 257 285 263 283 c 0
 332 254 276 173 230 219 c 0
 208 241 198 303 195 345 c 0
 194 366 185 460 178 572 c 0
 177 580 174 606 172 621 c 0
 171 634 170 643 172 648 c 0
EndSplineSet
EndChar

StartChar: kaf+meem.isol
Encoding: 65648 -1 113
Width: 0
VWidth: 0
Flags: H
LayerCount: 2
Fore
SplineSet
110 203 m 0
 120 208 188 210 229 194 c 0
 272 177 314 152 336 131 c 0
 340 127 346 119 341 104 c 2
 318 33 l 2
 317 29 312 24 307 25 c 0
 245 40 148 50 52 3 c 0
 48 1 47 -8 47 -12 c 0
 57 -131 124 -362 98 -470 c 0
 94 -485 79 -485 78 -470 c 0
 68 -337 42 -224 15 -94 c 0
 -3 -10 42 73 114 110 c 1
 81 121 l 2
 77 122 73 124 75 130 c 2
 75 130 82 156 93 187 c 0
 95 193 102 199 110 203 c 0
671 855 m 2
 652 792 l 2
 649 782 642 779 636 778 c 0
 442 746 144 697 86 644 c 1
 112 623 308 412 271 277 c 0
 263 248 263 236 229 194 c 0
 206 165 93 132 96 185 c 0
 96 191 103 200 110 203 c 0
 158 225 206 234 243 272 c 1
 236 373 151 449 118 484 c 0
 114 488 111 490 103 487 c 0
 93 483 82 480 72 476 c 0
 65 474 62 477 58 483 c 0
 39 510 20 538 1 565 c 0
 -3 571 -3 581 -1 590 c 0
 8 629 40 681 58 697 c 0
 156 786 447 836 657 874 c 0
 661 875 678 879 671 855 c 2
EndSplineSet
EndChar

StartChar: heh.fina
Encoding: 65649 -1 114
Width: 0
VWidth: 0
Flags: H
LayerCount: 2
Fore
SplineSet
195 445 m 2
 199 451 208 443 209 439 c 0
 223 332 240 161 249 135 c 0
 261 99 279 89 316 90 c 0
 354 92 333 0 316 0 c 0
 224 -2 217 40 196 147 c 1
 183 124 161 91 138 82 c 0
 111 71 42 84 19 102 c 0
 10 109 -1 118 1 136 c 1
 7 168 36 223 47 235 c 0
 68 256 129 303 173 325 c 1
 171 353 169 370 170 393 c 1
 169 401 174 412 179 419 c 2
 195 445 l 2
180 264 m 1
 140 254 87 227 68 197 c 1
 64 194 66 190 70 187 c 0
 87 177 139 171 179 181 c 0
 184 182 188 185 190 188 c 1
 186 212 183 236 180 264 c 1
EndSplineSet
EndChar

StartChar: haa.medi
Encoding: 65650 -1 115
Width: 0
VWidth: 0
Flags: H
LayerCount: 2
Fore
SplineSet
119 310 m 0
 119 310 l 1
 153 310 214 278 264 260 c 0
 304 245 349 230 393 223 c 0
 451 214 504 207 574 216 c 0
 579 217 588 213 585 204 c 0
 578 181 572 152 562 131 c 0
 560 126 553 125 549 125 c 0
 518 128 490 130 463 131 c 1
 439 79 534 85 585 83 c 0
 626 82 610 -8 585 -8 c 0
 560 -8 489 -8 461 0 c 0
 385 23 410 75 426 129 c 1
 360 126 295 115 234 97 c 0
 151 73 63 15 0 0 c 0
 -26 -6 -40 82 -0 91 c 0
 97 113 172 154 214 166 c 0
 222 168 222 174 211 179 c 0
 110 224 62 228 11 201 c 0
 1 196 -15 195 -10 213 c 0
 11 292 79 310 119 310 c 0
EndSplineSet
EndChar

StartChar: kaf+lam.isol
Encoding: 65651 -1 116
Width: 0
VWidth: 0
Flags: H
LayerCount: 2
Fore
SplineSet
411 521 m 0
 495 686 812 803 1022 873 c 0
 1025 874 1027 874 1029 874 c 0
 1036 874 1039 870 1037 861 c 2
 1021 806 l 2
 1016 788 1007 785 999 782 c 0
 838 720 639 665 448 520 c 1
 522 499 695 451 717 297 c 1
 723 198 647 115 561 112 c 0
 515 110 516 199 555 202 c 0
 594 205 639 232 688 275 c 0
 690 277 690 280 689 282 c 0
 627 381 514 411 420 439 c 0
 399 445 389 478 411 521 c 0
561 112 m 0
 482 107 457 158 433 206 c 1
 441 146 452 41 442 -13 c 0
 425 -109 339 -170 261 -189 c 0
 164 -212 56 -188 15 -93 c 0
 -32 18 51 149 74 192 c 0
 83 210 101 198 93 183 c 0
 47 98 -22 -70 177 -95 c 0
 249 -104 370 -71 413 -6 c 1
 415 118 367 466 340 707 c 0
 338 726 358 754 367 767 c 0
 378 783 382 770 383 761 c 0
 388 692 403 591 411 521 c 0
 415 484 417 458 420 439 c 0
 432 355 442 254 502 216 c 0
 519 206 536 199 555 202 c 0
 590 207 606 115 561 112 c 0
EndSplineSet
EndChar

StartChar: baa.medi.alt
Encoding: 65652 -1 117
Width: 0
VWidth: 0
Flags: H
LayerCount: 2
Fore
SplineSet
76 366 m 0
 81 373 87 365 89 357 c 0
 106 286 124 177 144 134 c 0
 153 114 171 95 190 90 c 0
 207 86 216 80 210 49 c 0
 204 18 196 -2 190 0 c 0
 159 8 112 32 88 127 c 0
 87 130 86 132 85 128 c 0
 69 88 46 7 0 -0 c 0
 -11 -2 -21 45 -23 60 c 0
 -25 75 -17 87 -0 90 c 0
 28 96 61 118 79 152 c 0
 80 155 81 156 80 159 c 0
 72 193 59 256 51 308 c 0
 50 313 50 317 52 321 c 0
 58 334 67 353 76 366 c 0
EndSplineSet
EndChar

StartChar: ayn+yaa.isol
Encoding: 65653 -1 118
Width: 0
VWidth: 0
Flags: H
LayerCount: 2
Fore
SplineSet
494 133 m 0
 559 128 625 105 640 81 c 0
 647 70 643 10 622 -18 c 0
 580 -72 373 -208 197 -199 c 0
 -3 -189 -13 -5 9 76 c 0
 25 137 55 204 106 265 c 0
 116 277 134 265 122 250 c 0
 96 216 75 179 64 142 c 0
 30 26 79 -89 231 -93 c 0
 357 -97 503 -45 588 28 c 0
 593 32 594 35 588 39 c 0
 563 57 450 69 381 74 c 0
 372 75 370 76 373 85 c 0
 381 104 402 138 402 138 c 1
 402 138 455 136 494 133 c 0
934 319 m 1
 931 312 930 306 924 303 c 0
 777 240 599 181 494 133 c 0
 437 107 386 90 402 138 c 1
 405 143 408 148 411 153 c 0
 414 158 420 166 425 169 c 0
 477 200 532 223 611 254 c 1
 587 280 541 319 550 361 c 0
 565 433 674 534 733 543 c 0
 769 548 847 507 878 474 c 0
 885 466 880 458 870 461 c 0
 793 487 680 471 615 403 c 0
 612 400 614 393 616 390 c 0
 630 367 668 332 747 317 c 0
 796 308 894 366 944 391 c 0
 950 394 963 387 959 377 c 2
 934 319 l 1
EndSplineSet
EndChar

StartChar: faa.fina
Encoding: 65654 -1 119
Width: 0
VWidth: 0
Flags: H
LayerCount: 2
Fore
SplineSet
798 348 m 0
 849 349 910 246 834 99 c 1
 864 93 913 92 943 91 c 0
 982 90 971 1 944 0 c 0
 843 -2 805 13 768 25 c 1
 606 -87 208 -143 54 -31 c 0
 -43 40 15 156 60 229 c 0
 68 242 87 233 78 217 c 0
 40 145 30 112 120 49 c 0
 227 -25 611 26 681 81 c 1
 664 104 657 121 664 154 c 0
 681 236 755 347 798 348 c 0
777 249 m 0
 749 252 727 225 709 173 c 1
 715 150 737 130 759 123 c 0
 774 118 814 138 824 156 c 1
 824 188 814 245 777 249 c 0
EndSplineSet
EndChar

StartChar: sad.isol
Encoding: 65655 -1 120
Width: 0
VWidth: 0
Flags: H
LayerCount: 2
Fore
SplineSet
974 300 m 1
 1028 302 1066 258 1083 212 c 0
 1085 206 1085 202 1084 196 c 0
 1080 158 1046 100 1032 84 c 0
 983 29 871 -3 763 -12 c 0
 685 -18 610 -11 562 -0 c 1
 551 -86 528 -171 497 -207 c 0
 424 -293 269 -321 234 -321 c 0
 146 -320 99 -313 48 -263 c 0
 -62 -156 40 58 88 117 c 0
 98 130 114 115 105 103 c 0
 45 23 -5 -205 223 -220 c 0
 283 -224 475 -197 518 -89 c 0
 520 -83 521 -80 520 -75 c 0
 509 -5 492 38 468 71 c 0
 464 76 460 81 463 89 c 2
 494 170 l 2
 499 184 507 179 511 173 c 2
 548 110 l 1
 573 94 619 88 661 86 c 1
 767 194 905 300 974 300 c 1
922 194 m 0
 910 194 897 192 886 189 c 0
 825 173 759 125 708 86 c 1
 820 79 943 92 1023 152 c 1
 988 184 954 195 922 194 c 0
EndSplineSet
EndChar

StartChar: lam.init
Encoding: 65656 -1 121
Width: 0
VWidth: 0
Flags: H
LayerCount: 2
Fore
SplineSet
37 659 m 0
 43 674 50 687 57 703 c 0
 62 715 75 713 79 700 c 0
 84 683 98 648 118 625 c 0
 123 619 124 610 116 602 c 0
 109 595 99 580 92 573 c 1
 98 494 109 291 111 268 c 0
 114 173 92 41 0 0 c 0
 -8 -4 -23 85 0 91 c 0
 30 98 53 112 68 132 c 1
 70 226 49 459 42 584 c 0
 40 616 31 645 37 659 c 0
EndSplineSet
EndChar

StartChar: qaf.fina
Encoding: 65657 -1 122
Width: 0
VWidth: 0
Flags: H
LayerCount: 2
Fore
SplineSet
425 216 m 0
 465 217 506 135 509 90 c 1
 522 90 531 90 545 90 c 0
 575 90 574 0 545 -0 c 0
 533 -0 521 0 507 0 c 1
 504 -17 501 -33 495 -49 c 1
 460 -205 296 -250 226 -255 c 0
 85 -265 27 -206 10 -146 c 0
 -20 -44 31 37 78 116 c 0
 87 131 102 117 95 105 c 0
 56 43 13 -26 65 -107 c 0
 81 -133 125 -160 174 -164 c 0
 304 -175 427 -132 472 -43 c 1
 475 -34 471 -11 468 0 c 1
 417 0 371 12 352 28 c 0
 323 53 343 105 368 148 c 0
 389 184 411 216 425 216 c 0
436 102 m 0
 431 115 418 131 399 129 c 0
 394 129 385 124 389 115 c 0
 395 101 407 93 431 95 c 0
 436 95 438 98 436 102 c 0
EndSplineSet
EndChar

StartChar: lam+dal.isol
Encoding: 65658 -1 123
Width: 0
VWidth: 0
Flags: H
LayerCount: 2
Fore
SplineSet
389 775 m 0
 394 786 403 782 406 774 c 0
 415 745 431 726 449 709 c 0
 456 703 459 696 453 686 c 0
 448 678 442 666 434 653 c 1
 443 600 482 419 500 295 c 0
 509 229 503 129 502 129 c 1
 500 97 493 65 479 36 c 0
 454 -15 391 -1 370 20 c 0
 338 53 321 185 393 127 c 0
 419 106 454 113 463 115 c 1
 481 121 468 211 466 224 c 0
 446 361 402 561 384 655 c 0
 379 680 365 713 371 731 c 0
 375 742 380 754 389 775 c 0
393 127 m 1
 432 101 392 0 370 20 c 0
 338 50 308 118 289 175 c 1
 276 135 254 95 237 83 c 0
 196 53 96 29 45 40 c 0
 -5 51 -9 112 17 183 c 0
 21 193 28 195 34 184 c 0
 58 140 103 137 146 143 c 0
 233 155 271 195 274 230 c 1
 274 230 246 361 231 426 c 0
 229 433 229 451 232 456 c 0
 239 468 252 492 252 492 c 2
 255 498 261 494 263 485 c 0
 294 378 319 180 393 127 c 1
EndSplineSet
EndChar

StartChar: sad+meem.init
Encoding: 65659 -1 124
Width: 0
VWidth: 0
Flags: H
LayerCount: 2
Fore
SplineSet
595 552 m 0
 647 552 707 495 715 457 c 0
 724 415 682 341 642 299 c 0
 598 252 445 228 299 245 c 1
 287 228 274 215 264 204 c 0
 257 196 242 202 252 217 c 0
 259 227 267 239 274 250 c 1
 217 259 205 300 187 319 c 0
 172 335 119 305 96 271 c 0
 94 267 89 259 90 254 c 0
 95 212 126 154 179 144 c 1
 224 88 99 90 77 131 c 0
 56 170 58 235 69 274 c 0
 98 376 166 420 208 416 c 0
 215 415 219 410 220 404 c 0
 236 348 280 340 336 336 c 1
 420 446 519 551 595 552 c 0
554 458 m 1
 482 455 418 397 366 334 c 1
 530 328 643 365 663 389 c 1
 636 428 599 456 554 458 c 1
77 131 m 0
 92 143 130 154 179 144 c 0
 214 137 234 125 258 95 c 0
 261 91 261 86 261 81 c 0
 260 63 242 18 235 4 c 0
 232 -1 230 -1 225 4 c 0
 200 28 170 62 138 60 c 0
 87 56 62 15 0 0 c 0
 -19 -4 -37 80 0 90 c 0
 41 101 55 114 77 131 c 0
EndSplineSet
EndChar

StartChar: waw.fina
Encoding: 65660 -1 125
Width: 0
VWidth: 0
Flags: H
LayerCount: 2
Fore
SplineSet
340 229 m 1
 340 229 l 1
 340 229 l 2
 341 229 342 229 343 229 c 0
 379 227 408 161 416 92 c 0
 416 92 l 2
 416 92 l 2
 416 92 l 0
 421 92 426 92 431 92 c 0
 463 93 448 1 431 0 c 0
 423 0 417 -0 412 -0 c 1
 411 -4 410 -8 409 -11 c 0
 347 -233 200 -282 147 -287 c 0
 104 -291 43 -245 8 -222 c 0
 -8 -211 3 -203 13 -208 c 0
 138 -273 322 -141 386 -5 c 0
 387 -3 386 0 383 -0 c 0
 346 0 295 3 263 22 c 0
 240 36 228 78 248 133 c 0
 267 186 309 228 340 229 c 1
361 103 m 0
 346 137 314 162 283 129 c 0
 279 124 281 123 285 118 c 0
 296 103 328 97 356 96 c 0
 358 96 364 97 361 103 c 0
EndSplineSet
EndChar

StartChar: baa+haa.isol
Encoding: 65661 -1 126
Width: 0
VWidth: 0
Flags: H
LayerCount: 2
Fore
SplineSet
2 460 m 1
 0 518 28 543 91 580 c 1
 181 632 264 675 300 765 c 0
 323 825 340 874 370 874 c 0
 400 874 427 839 431 771 c 0
 433 738 433 695 432 667 c 0
 431 649 412 650 410 668 c 0
 406 699 393 778 359 778 c 0
 341 778 332 755 313 715 c 0
 277 640 209 588 136 547 c 0
 90 521 47 489 2 460 c 1
134 543 m 0
 285 535 401 537 543 548 c 0
 548 548 554 545 552 539 c 2
 552 539 543 501 536 483 c 0
 533 475 527 473 522 472 c 0
 471 466 381 449 304 418 c 0
 203 377 69 281 66 140 c 0
 64 19 122 -46 200 -76 c 0
 336 -129 579 -110 679 -98 c 0
 694 -96 692 -116 684 -119 c 0
 596 -157 485 -203 382 -198 c 0
 255 -192 76 -175 34 2 c 0
 4 131 62 344 243 458 c 1
 2 460 l 1
 1 495 11 518 33 539 c 1
 40 544 85 546 134 543 c 0
EndSplineSet
EndChar

StartChar: hamza.small
Encoding: 65662 -1 127
Width: 0
VWidth: 0
Flags: H
LayerCount: 2
Fore
SplineSet
184 56 m 0
 158 51 123 43 100 36 c 0
 77 29 51 17 23 4 c 0
 5 -4 -4 13 6 26 c 0
 14 36 32 50 43 57 c 1
 26 66 7 81 2 99 c 0
 -5 127 15 171 35 197 c 0
 55 223 87 255 125 250 c 0
 170 245 149 187 131 160 c 1
 122 150 114 152 109 160 c 0
 96 181 65 186 45 163 c 0
 28 143 85 107 147 107 c 0
 171 107 187 117 209 117 c 0
 217 117 222 106 219 99 c 0
 212 85 201 59 184 56 c 0
EndSplineSet
EndChar

StartChar: kaf.medi
Encoding: 65663 -1 128
Width: 0
VWidth: 0
Flags: H
LayerCount: 2
Fore
SplineSet
51 577 m 0
 117 631 368 742 604 773 c 0
 619 775 629 764 624 754 c 0
 615 737 596 702 596 702 c 2
 593 697 589 696 585 695 c 0
 404 670 64 550 23 503 c 1
 131 385 209 162 369 91 c 0
 407 74 391 -8 370 0 c 0
 255 41 181 179 129 245 c 1
 130 99 47 3 2 -15 c 0
 -26 -26 -29 74 2 76 c 0
 21 77 75 98 89 122 c 1
 126 224 71 320 -7 426 c 1
 -10 435 -14 443 -12 454 c 0
 0 502 19 551 51 577 c 0
EndSplineSet
EndChar

StartChar: lam+lam+haa.init
Encoding: 65664 -1 129
Width: 0
VWidth: 0
Flags: H
LayerCount: 2
Fore
SplineSet
55 287 m 0
 65 289 139 266 173 257 c 0
 316 219 432 211 560 208 c 0
 565 208 568 206 566 201 c 2
 555 145 l 2
 554 139 550 134 543 134 c 0
 410 137 345 127 285 111 c 0
 207 90 37 0 0 0 c 0
 -17 0 -30 88 -0 91 c 0
 76 100 183 141 233 155 c 1
 171 177 98 194 18 197 c 0
 13 197 11 199 14 204 c 2
 47 282 l 2
 49 285 52 286 55 287 c 0
441 376 m 0
 469 387 430 278 414 276 c 0
 334 266 310 366 294 456 c 1
 292 382 258 311 173 257 c 0
 128 228 68 200 18 197 c 0
 13 197 11 199 14 204 c 2
 47 282 l 2
 49 285 52 287 55 287 c 0
 115 289 158 307 189 325 c 0
 225 346 245 371 259 403 c 0
 278 446 254 592 249 687 c 0
 249 690 250 696 252 699 c 2
 287 741 l 2
 289 744 295 743 296 735 c 0
 307 618 320 496 346 436 c 0
 365 392 407 362 441 376 c 0
407 667 m 0
 406 673 407 681 409 687 c 2
 425 730 l 2
 429 740 440 737 443 729 c 0
 454 705 467 678 491 655 c 0
 498 648 495 640 490 633 c 0
 484 625 472 607 468 600 c 1
 479 536 495 449 492 418 c 0
 487 366 470 280 411 276 c 0
 388 274 427 370 441 376 c 0
 449 379 453 390 452 399 c 0
 447 446 434 521 420 605 c 0
 416 629 413 644 407 667 c 0
EndSplineSet
EndChar

StartChar: faa.isol
Encoding: 65665 -1 130
Width: 0
VWidth: 0
Flags: H
LayerCount: 2
Fore
SplineSet
735 514 m 0
 745 514 755 514 765 510 c 0
 845 479 876 290 849 222 c 0
 797 94 493 6 272 2 c 0
 -72 -4 -13 234 53 332 c 0
 63 347 80 333 71 319 c 0
 45 278 33 231 38 207 c 0
 61 109 235 82 399 106 c 0
 484 118 812 195 830 285 c 1
 827 302 819 315 804 327 c 1
 800 329 800 325 799 322 c 0
 786 288 738 240 670 273 c 1
 625 302 630 347 652 402 c 0
 674 457 709 514 735 514 c 0
745 373 m 0
 750 378 750 386 744 391 c 0
 721 409 703 412 688 385 c 0
 685 380 684 376 689 371 c 0
 704 355 731 356 745 373 c 0
EndSplineSet
EndChar

StartChar: seen.init
Encoding: 65666 -1 131
Width: 0
VWidth: 0
Flags: H
LayerCount: 2
Fore
SplineSet
485 285 m 0
 488 289 492 286 494 282 c 0
 511 253 511 140 469 86 c 1
 464 78 455 72 446 71 c 0
 423 67 355 79 321 121 c 1
 303 75 268 35 223 22 c 0
 175 8 124 46 100 74 c 1
 65 31 27 6 0 0 c 0
 -21 -5 -36 94 0 98 c 0
 67 106 112 133 150 191 c 0
 158 203 168 192 166 186 c 0
 161 174 155 159 150 149 c 1
 162 128 191 116 232 117 c 0
 309 120 329 196 350 253 c 0
 354 265 369 257 367 245 c 0
 365 232 361 222 357 202 c 1
 387 170 454 155 465 171 c 0
 470 179 463 214 456 230 c 0
 454 234 456 236 458 240 c 0
 466 255 475 270 485 285 c 0
EndSplineSet
EndChar

StartChar: kaf.init.alt
Encoding: 65667 -1 132
Width: 0
VWidth: 0
Flags: H
LayerCount: 2
Fore
SplineSet
-35 389 m 0
 53 480 256 607 427 642 c 0
 437 644 442 644 441 633 c 0
 439 609 432 581 426 562 c 0
 424 555 418 551 413 550 c 0
 250 506 54 413 -23 338 c 0
 -25 336 -28 331 -25 329 c 0
 32 288 376 291 523 298 c 1
 859 319 1024 355 1236 352 c 0
 1329 351 1388 291 1394 212 c 0
 1395 200 1390 190 1386 184 c 0
 1369 156 1343 114 1324 100 c 0
 1319 96 1310 91 1303 91 c 0
 1093 77 741 39 514 21 c 0
 306 4 -27 2 -178 4 c 0
 -215 4 -216 96 -178 95 c 0
 16 88 346 87 548 109 c 0
 748 131 1266 179 1321 184 c 0
 1328 185 1328 190 1325 196 c 0
 1307 235 1264 268 1230 269 c 0
 1004 277 803 235 540 224 c 0
 342 215 233 211 37 220 c 0
 -7 222 -75 235 -93 270 c 0
 -98 279 -97 292 -93 301 c 0
 -77 336 -63 360 -35 389 c 0
EndSplineSet
EndChar

StartChar: baa+baa+meem.init
Encoding: 65668 -1 133
Width: 0
VWidth: 0
Flags: H
LayerCount: 2
Fore
SplineSet
380 334 m 0
 391 334 393 322 386 291 c 0
 377 249 365 246 357 246 c 0
 321 248 278 291 250 327 c 0
 243 336 228 337 217 334 c 0
 188 327 162 312 138 284 c 0
 125 268 111 261 116 278 c 0
 145 378 229 420 257 418 c 0
 285 416 292 391 314 368 c 0
 334 347 353 333 380 334 c 0
116 278 m 0
 136 344 169 320 138 284 c 0
 133 278 133 268 134 264 c 0
 144 231 161 194 191 169 c 0
 226 140 258 133 301 115 c 0
 316 109 325 103 318 83 c 0
 309 57 303 39 293 16 c 0
 287 3 279 8 274 11 c 0
 241 33 197 61 167 63 c 0
 129 66 45 3 0 0 c 0
 -19 -1 -22 20 -23 42 c 0
 -24 64 -24 88 0 90 c 0
 61 94 83 108 104 123 c 0
 109 127 112 131 110 141 c 0
 100 189 102 230 116 278 c 0
380 334 m 0
 407 334 431 365 444 403 c 0
 450 421 470 412 466 396 c 0
 457 356 446 316 430 290 c 0
 413 263 388 244 357 246 c 0
 343 247 339 257 349 296 c 0
 355 317 362 334 380 334 c 0
EndSplineSet
EndChar

StartChar: lam+raa.isol
Encoding: 65669 -1 134
Width: 0
VWidth: 0
Flags: H
LayerCount: 2
Fore
SplineSet
453 769 m 0
 458 751 489 715 513 697 c 0
 521 691 518 678 512 669 c 2
 486 630 l 1
 500 494 535 315 530 232 c 0
 527 179 510 134 476 106 c 0
 457 91 420 81 396 83 c 0
 356 86 342 180 351 209 c 0
 354 217 362 216 366 211 c 1
 396 185 461 188 494 213 c 0
 495 214 495 216 495 217 c 0
 489 328 455 485 434 628 c 0
 430 652 422 680 417 704 c 0
 415 712 414 717 418 725 c 2
 439 768 l 2
 442 775 451 775 453 769 c 0
366 211 m 0
 390 181 398 115 395 75 c 0
 393 56 378 -40 316 -114 c 0
 282 -155 227 -195 167 -199 c 0
 127 -202 57 -163 7 -132 c 0
 -3 -126 -1 -111 13 -116 c 0
 68 -135 102 -136 149 -126 c 0
 240 -106 318 -37 363 52 c 0
 366 57 369 64 365 75 c 0
 357 99 347 103 329 125 c 0
 325 130 326 133 328 138 c 2
 351 209 l 2
 354 217 362 216 366 211 c 0
EndSplineSet
EndChar

StartChar: baa+noon.isol
Encoding: 65670 -1 135
Width: 0
VWidth: 0
Flags: H
LayerCount: 2
Fore
SplineSet
512 116 m 0
 503 52 484 -34 461 -72 c 0
 419 -141 324 -208 197 -207 c 0
 66 -206 -3 -124 1 -33 c 0
 4 30 49 138 72 179 c 0
 78 190 96 184 89 168 c 0
 73 133 46 79 43 37 c 0
 38 -28 87 -96 209 -98 c 0
 325 -100 435 -34 462 9 c 0
 465 13 466 17 467 22 c 0
 476 85 460 144 433 200 c 0
 430 205 429 210 431 216 c 0
 437 237 452 268 458 281 c 0
 460 286 464 288 469 284 c 0
 482 272 491 259 500 241 c 0
 517 209 517 149 512 116 c 0
612 299 m 0
 621 207 601 141 517 123 c 0
 496 118 472 153 471 186 c 0
 470 222 492 256 500 241 c 0
 503 235 508 232 514 230 c 0
 530 223 563 227 573 236 c 0
 583 245 588 275 590 298 c 0
 591 317 611 313 612 299 c 0
EndSplineSet
EndChar

StartChar: baa+heh.medi
Encoding: 65671 -1 136
Width: 0
VWidth: 0
Flags: H
LayerCount: 2
Fore
SplineSet
179 11 m 0
 140 -68 158 -155 177 -211 c 0
 179 -216 180 -219 177 -224 c 2
 143 -276 l 2
 140 -280 138 -287 132 -281 c 0
 66 -204 65 -86 93 34 c 1
 62 11 37 4 20 1 c 0
 7 -1 -3 41 -5 64 c 0
 -7 87 1 88 20 91 c 0
 92 102 128 148 164 209 c 1
 178 228 194 215 187 203 c 0
 169 171 145 122 128 71 c 0
 109 13 98 -47 110 -81 c 0
 110 -82 112 -83 113 -81 c 0
 130 -39 147 -3 165 27 c 0
 193 75 201 55 179 11 c 0
289 79 m 0
 249 71 206 49 183 16 c 0
 175 4 168 -9 164 -24 c 0
 158 -45 133 -34 145 -9 c 0
 172 47 210 100 256 134 c 0
 290 159 331 173 377 167 c 0
 417 162 421 107 475 101 c 0
 500 98 490 9 476 10 c 0
 434 12 409 33 388 53 c 0
 353 86 334 88 289 79 c 0
EndSplineSet
EndChar

StartChar: kaf+meem+lam.fina
Encoding: 65672 -1 137
Width: 0
VWidth: 0
Flags: H
LayerCount: 2
Fore
SplineSet
312 315 m 0
 318 267 328 97 437 14 c 0
 484 -22 465 -104 426 -78 c 0
 388 -53 356 -17 324 33 c 1
 336 -71 340 -234 309 -281 c 0
 257 -360 143 -399 30 -389 c 0
 -70 -380 -122 -311 -127 -233 c 0
 -132 -147 -92 -42 -45 37 c 0
 -37 50 -22 40 -28 29 c 0
 -79 -60 -141 -252 33 -288 c 0
 133 -309 262 -251 305 -195 c 1
 234 552 l 2
 232 574 230 584 233 592 c 0
 241 617 251 642 263 666 c 0
 271 682 279 669 280 660 c 2
 305 393 l 2
 307 368 309 341 312 315 c 0
437 14 m 0
 446 7 456 0 467 -6 c 1
 466 26 484 29 500 15 c 0
 523 -6 557 -34 617 -44 c 0
 622 -45 625 -51 625 -56 c 2
 621 -138 l 2
 621 -147 615 -148 610 -147 c 0
 554 -141 479 -116 426 -78 c 0
 389 -51 390 48 437 14 c 0
467 -6 m 0
 467 2 455 40 486 80 c 0
 530 137 617 125 649 154 c 1
 597 246 439 296 310 315 c 0
 277 320 288 354 305 393 c 0
 370 542 696 701 992 811 c 0
 1001 814 1012 810 1009 800 c 2
 1009 800 996 755 989 732 c 0
 983 712 974 710 965 707 c 0
 825 656 431 483 370 415 c 0
 367 412 369 409 373 408 c 0
 465 389 587 346 694 285 c 0
 794 228 915 100 1006 91 c 0
 1036 88 1040 4 1006 0 c 0
 938 -8 763 168 663 215 c 1
 681 144 645 81 617 67 c 0
 577 47 532 56 500 29 c 0
 493 23 495 20 500 15 c 0
 562 -42 467 -41 467 -6 c 0
EndSplineSet
EndChar

StartChar: ayn.isol
Encoding: 65673 -1 138
Width: 0
VWidth: 0
Flags: H
LayerCount: 2
Fore
SplineSet
170 730 m 0
 209 733 260 699 283 668 c 0
 290 659 283 654 273 657 c 0
 228 672 131 666 57 571 c 0
 54 567 57 562 59 559 c 0
 101 515 174 496 223 504 c 0
 260 510 343 575 402 605 c 0
 410 609 416 603 413 595 c 0
 406 574 393 541 385 528 c 0
 382 523 380 519 377 518 c 0
 302 484 245 445 178 396 c 0
 78 323 40 230 30 137 c 0
 18 29 83 -75 231 -97 c 0
 385 -120 505 -112 648 -84 c 0
 662 -81 667 -91 653 -101 c 0
 613 -130 505 -190 454 -195 c 0
 390 -201 289 -203 213 -189 c 0
 6 -151 -12 23 4 143 c 0
 21 269 69 358 134 427 c 1
 67 454 43 477 31 493 c 0
 24 503 21 512 22 525 c 0
 25 559 34 583 47 610 c 0
 65 650 113 710 154 727 c 0
 159 729 164 730 170 730 c 0
EndSplineSet
EndChar

StartChar: sad.medi
Encoding: 65674 -1 139
Width: 0
VWidth: 0
Flags: H
LayerCount: 2
Fore
SplineSet
542 322 m 0
 542 322 l 1
 595 332 668 285 679 236 c 1
 670 196 651 148 635 125 c 0
 616 97 579 76 552 55 c 1
 614 55 667 67 724 76 c 0
 754 81 749 -14 724 -14 c 0
 641 -14 556 -13 468 -4 c 1
 400 -12 305 -10 235 6 c 1
 221 -30 217 -43 213 -65 c 0
 208 -92 172 -92 177 -59 c 0
 182 -22 192 -3 200 19 c 1
 158 32 134 50 109 84 c 1
 89 75 58 19 0 0 c 0
 -25 -8 -28 92 1 90 c 0
 51 86 88 137 110 155 c 0
 124 166 129 161 141 147 c 0
 160 126 192 95 249 89 c 1
 333 210 472 307 542 322 c 0
602 181 m 0
 577 206 542 218 507 217 c 0
 447 214 341 147 295 82 c 1
 426 75 568 139 603 170 c 0
 605 172 604 180 602 181 c 0
EndSplineSet
EndChar

StartChar: heh.init
Encoding: 65675 -1 140
Width: 0
VWidth: 0
Flags: H
LayerCount: 2
Fore
SplineSet
86 322 m 0
 94 348 106 407 153 410 c 0
 182 412 245 361 279 327 c 0
 322 285 380 221 387 181 c 0
 395 136 370 35 304 42 c 0
 266 46 207 58 133 86 c 1
 86 45 36 17 0 0 c 0
 -15 -7 -44 76 -0 90 c 0
 32 100 52 108 70 118 c 1
 50 134 46 156 54 179 c 0
 63 209 85 253 127 290 c 1
 129 297 105 309 92 310 c 0
 86 310 85 318 86 322 c 0
161 249 m 0
 134 256 99 233 86 214 c 1
 75 195 97 184 159 165 c 1
 170 170 181 177 189 185 c 0
 191 187 192 188 192 192 c 0
 190 222 186 242 161 249 c 0
234 237 m 0
 232 239 230 238 231 235 c 0
 236 208 205 161 196 152 c 1
 240 138 314 116 333 128 c 0
 338 131 340 130 338 136 c 0
 321 178 271 213 234 237 c 0
EndSplineSet
EndChar

StartChar: kaf+yaa.isol
Encoding: 65676 -1 141
Width: 0
VWidth: 0
Flags: H
LayerCount: 2
Fore
SplineSet
388 145 m 1
 431 149 473 148 507 144 c 0
 537 140 577 133 602 111 c 1
 632 81 593 -12 582 -28 c 0
 554 -67 364 -213 184 -200 c 0
 71 -192 13 -129 0 -64 c 0
 -20 33 20 159 77 234 c 0
 86 246 103 233 93 218 c 0
 48 149 35 99 36 54 c 0
 38 -52 105 -104 222 -106 c 0
 331 -108 497 -22 564 43 c 0
 566 45 565 47 563 49 c 0
 521 84 436 78 369 83 c 0
 363 83 364 88 365 91 c 2
 388 145 l 1
838 927 m 0
 851 932 857 925 855 912 c 2
 855 912 850 873 847 853 c 0
 846 843 839 840 833 838 c 0
 694 792 351 659 294 602 c 0
 291 600 287 595 295 589 c 0
 359 542 436 488 484 425 c 0
 528 368 550 300 542 219 c 0
 540 200 522 166 510 155 c 0
 472 120 432 98 369 83 c 0
 363 82 364 88 365 91 c 2
 388 145 l 1
 441 165 478 179 512 201 c 0
 514 202 515 205 515 207 c 0
 500 324 413 395 337 446 c 0
 335 447 331 448 329 445 c 2
 312 408 l 2
 310 405 308 405 305 407 c 0
 264 434 237 454 226 482 c 0
 207 532 244 625 271 654 c 1
 394 763 727 883 838 927 c 0
EndSplineSet
EndChar

StartChar: kaf+alef.fina
Encoding: 65677 -1 142
Width: 0
VWidth: 0
Flags: H
LayerCount: 2
Fore
SplineSet
155 52 m 0
 180 46 229 -50 159 -53 c 0
 6 -59 44 118 35 380 c 0
 32 464 18 601 5 650 c 0
 3 660 -4 674 5 688 c 2
 34 734 l 2
 39 742 46 739 48 732 c 0
 67 671 72 455 73 418 c 0
 74 393 74 368 76 322 c 0
 81 194 67 100 122 66 c 0
 132 60 143 55 155 52 c 0
76 322 m 0
 51 333 54 380 69 418 c 0
 132 579 562 722 757 780 c 0
 766 783 773 776 770 767 c 0
 763 744 757 721 750 698 c 0
 746 684 738 683 731 682 c 0
 607 659 220 520 98 407 c 0
 97 406 96 404 98 404 c 0
 162 388 239 351 288 315 c 0
 526 139 543 100 619 90 c 0
 647 86 645 -1 619 0 c 0
 525 4 432 135 342 191 c 1
 376 30 293 -49 159 -53 c 0
 89 -55 90 69 155 52 c 0
 220 35 307 70 325 110 c 0
 327 115 327 122 325 127 c 0
 280 234 135 297 76 322 c 0
EndSplineSet
EndChar

StartChar: meem+haa.init
Encoding: 65678 -1 143
Width: 0
VWidth: 0
Flags: H
LayerCount: 2
Fore
SplineSet
48 275 m 0
 58 286 102 275 126 268 c 0
 261 227 405 195 534 197 c 0
 544 197 550 191 544 177 c 2
 518 121 l 2
 515 115 508 110 501 111 c 0
 408 126 330 109 247 85 c 0
 154 58 70 16 -0 -0 c 0
 -19 -4 -32 86 -0 90 c 0
 96 101 167 132 235 146 c 0
 241 147 240 150 235 152 c 0
 162 178 102 192 21 207 c 0
 19 207 17 209 17 211 c 0
 18 240 34 259 48 275 c 0
309 398 m 1
 304 406 290 415 284 421 c 0
 280 425 281 435 282 440 c 0
 288 465 303 504 333 526 c 0
 339 531 353 532 360 530 c 0
 401 519 448 477 463 454 c 0
 468 446 471 439 469 429 c 0
 464 406 442 361 427 348 c 0
 422 344 418 342 411 342 c 0
 258 332 161 299 126 278 c 0
 90 257 64 234 24 208 c 0
 21 206 17 208 17 211 c 0
 18 244 43 273 71 295 c 0
 144 350 270 392 309 398 c 1
EndSplineSet
EndChar

StartChar: lam+lam+alef.isol
Encoding: 65679 -1 144
Width: 0
VWidth: 0
Flags: H
LayerCount: 2
Fore
SplineSet
406 220 m 0
 414 195 394 142 384 175 c 0
 354 274 282 349 192 405 c 0
 187 408 178 415 173 405 c 0
 171 401 165 390 163 385 c 0
 155 369 133 370 115 382 c 1
 32 429 l 1
 16 440 12 448 13 460 c 1
 13 460 9 550 9 554 c 0
 9 566 29 581 46 571 c 1
 247 484 366 339 406 220 c 0
548 195 m 1
 563 158 577 128 617 112 c 0
 652 99 635 3 618 2 c 0
 575 0 521 35 496 146 c 0
 483 205 472 276 460 347 c 1
 439 186 378 5 239 -30 c 0
 172 -47 88 -49 76 -45 c 0
 65 -42 68 -31 76 -29 c 0
 251 19 332 99 384 175 c 0
 396 193 403 210 406 220 c 0
 446 343 437 442 427 573 c 0
 426 585 424 598 431 610 c 2
 456 653 l 2
 465 668 473 662 474 648 c 0
 484 530 505 328 548 195 c 1
604 605 m 0
 611 621 620 639 628 653 c 0
 632 660 641 659 643 649 c 0
 647 631 662 597 686 574 c 0
 689 571 691 560 686 553 c 0
 681 547 668 529 668 529 c 2
 665 523 661 518 662 510 c 0
 681 373 711 205 697 118 c 0
 691 77 662 3 618 2 c 0
 572 1 562 129 617 112 c 0
 636 106 655 109 665 117 c 1
 674 194 635 399 612 555 c 0
 611 561 600 596 604 605 c 0
EndSplineSet
EndChar

StartChar: lam+haa+haa.init
Encoding: 65680 -1 145
Width: 0
VWidth: 0
Flags: H
LayerCount: 2
Fore
SplineSet
159 465 m 0
 191 471 277 458 330 436 c 0
 410 403 445 386 601 359 c 0
 608 358 613 354 609 344 c 0
 602 325 588 304 576 287 c 0
 572 281 569 281 566 282 c 0
 500 297 458 306 388 302 c 0
 326 299 249 280 159 245 c 0
 89 218 52 199 18 187 c 0
 13 185 5 187 10 197 c 0
 17 211 30 235 42 249 c 1
 153 319 247 333 311 357 c 1
 243 391 158 395 117 394 c 0
 112 394 108 395 111 404 c 0
 116 420 130 443 143 456 c 0
 148 461 152 464 159 465 c 0
40 247 m 0
 49 258 115 257 159 245 c 0
 227 226 289 202 359 186 c 0
 412 174 474 167 534 167 c 0
 545 167 547 161 542 151 c 0
 530 127 520 104 502 87 c 0
 499 84 493 83 489 84 c 0
 413 97 340 102 266 89 c 0
 211 79 46 11 0 0 c 0
 -24 -6 -40 85 -0 91 c 0
 77 103 145 118 218 141 c 1
 158 168 65 189 19 186 c 0
 14 186 5 187 10 197 c 0
 17 211 30 235 40 247 c 0
316 764 m 0
 319 769 327 766 328 761 c 0
 336 731 358 697 371 682 c 0
 377 676 376 668 369 659 c 0
 361 649 345 630 345 626 c 0
 348 595 351 517 346 491 c 0
 342 473 340 453 330 436 c 0
 306 398 167 398 117 394 c 0
 112 394 108 395 111 404 c 0
 116 420 130 443 143 456 c 0
 148 461 152 464 159 465 c 0
 217 477 255 463 309 477 c 1
 310 506 303 583 297 646 c 0
 296 653 289 678 286 691 c 0
 285 695 281 707 286 717 c 0
 293 731 308 751 316 764 c 0
EndSplineSet
EndChar

StartChar: dash
Encoding: 65681 -1 146
Width: 0
VWidth: 0
Flags: H
LayerCount: 2
Fore
SplineSet
0 89 m 1
 676 89 l 1
 676 0 l 1
 0 0 l 1
 0 89 l 1
EndSplineSet
EndChar

StartChar: faa+haa.init
Encoding: 65682 -1 147
Width: 0
VWidth: 0
Flags: H
LayerCount: 2
Fore
SplineSet
45 282 m 0
 80 292 134 273 189 253 c 0
 289 217 406 203 550 205 c 0
 558 205 566 203 567 190 c 1
 543 131 l 1
 542 126 535 122 524 122 c 0
 410 128 323 113 241 84 c 0
 177 61 61 15 0 0 c 0
 -24 -6 -51 83 -0 91 c 0
 43 98 168 122 232 149 c 1
 157 178 78 189 1 206 c 1
 0 228 16 274 45 282 c 0
140 613 m 2
 140 613 l 2
 202 614 257 498 258 394 c 0
 258 330 224 277 189 253 c 0
 152 227 52 201 1 206 c 1
 0 228 16 274 45 282 c 0
 126 304 211 310 231 374 c 1
 229 389 222 401 212 416 c 1
 206 423 196 425 193 419 c 0
 175 388 135 350 97 355 c 0
 37 363 41 437 59 506 c 0
 74 564 117 613 140 613 c 2
107 509 m 0
 100 509 93 506 86 497 c 1
 86 487 95 461 116 461 c 0
 129 461 144 467 150 485 c 1
 138 498 123 508 112 509 c 0
 110 509 109 509 107 509 c 0
EndSplineSet
EndChar

StartChar: meem+alef.fina
Encoding: 65683 -1 148
Width: 0
VWidth: 0
Flags: H
LayerCount: 2
Fore
SplineSet
261 40 m 0
 223 36 200 24 191 -10 c 0
 190 -13 192 -16 194 -18 c 0
 221 -49 268 -70 308 -81 c 0
 321 -85 324 -91 323 -99 c 2
 310 -184 l 1
 193 -160 156 -80 162 2 c 0
 166 53 200 125 261 130 c 0
 276 131 287 107 287 76 c 0
 287 45 270 41 261 40 c 0
313 -166 m 1
 312 -174 311 -180 310 -185 c 0
 307 -198 295 -195 286 -193 c 0
 242 -182 128 -124 94 -43 c 0
 66 23 68 135 59 233 c 1
 44 369 39 524 3 677 c 0
 2 683 1 691 3 695 c 0
 13 715 20 724 31 743 c 0
 36 751 40 747 42 742 c 0
 69 664 81 469 94 352 c 0
 109 220 101 51 158 -6 c 0
 213 -60 218 -80 313 -166 c 1
EndSplineSet
EndChar

StartChar: coma
Encoding: 65684 -1 149
Width: 0
VWidth: 0
Flags: H
LayerCount: 2
Fore
SplineSet
111 389 m 0
 132 404 152 382 134 363 c 0
 78 304 17 228 50 127 c 1
 53 121 57 119 61 123 c 0
 75 140 96 151 120 151 c 0
 162 151 196 117 196 75 c 0
 196 33 158 -2 116 -1 c 0
 92 0 71 5 56 17 c 0
 12 51 -4 108 4 197 c 0
 12 286 81 368 111 389 c 0
EndSplineSet
EndChar

StartChar: kaf+lam+meem.medi
Encoding: 65685 -1 150
Width: 0
VWidth: 0
Flags: H
LayerCount: 2
Fore
SplineSet
183 202 m 0
 239 177 275 127 285 105 c 0
 300 72 307 16 295 -13 c 0
 293 -17 290 -19 285 -19 c 0
 225 -20 175 36 153 81 c 0
 145 96 134 90 125 81 c 0
 66 22 40 7 0 0 c 0
 -22 -4 -50 88 -0 91 c 0
 23 92 113 91 152 186 c 0
 158 200 171 208 183 202 c 0
491 83 m 0
 523 66 479 -35 458 -9 c 0
 414 46 401 147 390 214 c 1
 382 195 347 124 285 105 c 0
 183 74 125 203 179 203 c 0
 188 203 220 178 255 178 c 0
 274 178 352 188 369 241 c 0
 375 261 340 556 341 606 c 0
 341 619 339 634 345 647 c 2
 365 691 l 2
 373 709 383 694 384 684 c 0
 391 594 399 509 409 419 c 0
 411 404 420 340 423 310 c 0
 431 233 448 106 491 83 c 0
423 310 m 0
 386 312 393 366 417 418 c 0
 482 556 792 686 1012 786 c 0
 1021 790 1029 786 1029 775 c 2
 1029 729 l 2
 1029 722 1027 711 1017 706 c 1
 868 655 572 509 452 399 c 1
 627 372 753 239 877 149 c 0
 916 120 938 98 997 76 c 0
 1027 65 1025 -21 997 -14 c 0
 909 6 780 159 690 210 c 1
 705 113 705 15 590 -23 c 0
 525 -44 481 -38 458 -9 c 0
 428 30 437 111 491 83 c 0
 555 49 648 99 673 130 c 1
 686 195 544 304 423 310 c 0
EndSplineSet
EndChar

StartChar: meem+raa.isol
Encoding: 65686 -1 151
Width: 0
VWidth: 0
Flags: H
LayerCount: 2
Fore
SplineSet
462 133 m 1
 416 154 461 232 461 232 c 1
 480 242 560 276 607 292 c 0
 612 294 611 297 605 299 c 2
 585 307 l 2
 572 312 569 316 572 328 c 0
 580 361 586 391 606 421 c 0
 612 429 619 435 629 435 c 0
 655 436 716 420 745 405 c 1
 779 385 784 343 780 307 c 1
 775 281 757 255 725 239 c 0
 658 205 548 173 462 133 c 1
462 232 m 0
 490 246 486 144 463 133 c 0
 440 122 419 110 401 98 c 0
 352 64 292 -7 255 -60 c 0
 203 -136 167 -212 88 -196 c 0
 32 -185 -6 -137 2 -55 c 0
 6 -7 26 51 65 124 c 0
 73 140 90 133 83 118 c 0
 70 89 38 36 33 -9 c 0
 29 -45 43 -89 90 -103 c 0
 153 -121 186 -85 217 -32 c 1
 252 32 326 139 378 179 c 0
 406 201 434 218 462 232 c 0
EndSplineSet
EndChar

StartChar: kaf.isol
Encoding: 65687 -1 152
Width: 0
VWidth: 0
Flags: H
LayerCount: 2
Fore
SplineSet
430 782 m 0
 436 765 460 731 483 712 c 0
 488 708 487 699 484 693 c 0
 478 682 461 659 462 653 c 0
 489 515 532 320 533 224 c 0
 534 186 536 120 504 49 c 0
 473 -19 86 1 11 12 c 0
 6 13 4 18 4 21 c 0
 2 50 0 78 2 107 c 0
 2 110 5 114 7 113 c 0
 68 88 430 81 494 132 c 1
 498 151 478 288 466 355 c 0
 442 483 412 664 394 717 c 0
 391 726 390 734 397 748 c 0
 404 761 415 785 415 785 c 2
 419 793 426 793 430 782 c 0
229 573 m 1
 235 573 237 568 235 563 c 2
 214 510 l 2
 210 500 206 497 203 496 c 0
 190 493 171 484 164 475 c 0
 158 467 182 453 229 446 c 0
 276 439 261 402 258 394 c 0
 247 364 213 309 187 302 c 0
 158 295 76 303 35 318 c 0
 20 323 22 340 34 341 c 0
 108 346 175 341 199 354 c 0
 205 357 202 365 193 367 c 2
 164 373 l 2
 133 380 111 403 117 426 c 0
 135 500 166 556 229 573 c 1
EndSplineSet
EndChar

StartChar: dot.double
Encoding: 65688 -1 153
Width: 0
VWidth: 0
Flags: H
LayerCount: 2
Fore
SplineSet
155 151 m 0
 158 155 158 155 163 153 c 0
 189 144 212 131 234 112 c 0
 238 108 238 108 235 103 c 0
 217 74 202 50 188 27 c 0
 186 23 185 23 181 26 c 0
 163 41 134 57 108 73 c 0
 105 75 104 74 106 78 c 0
 124 106 139 127 155 151 c 0
51 128 m 0
 54 132 54 132 59 130 c 0
 85 121 108 108 130 89 c 0
 134 85 134 85 131 80 c 0
 113 51 98 27 84 4 c 0
 82 0 81 0 77 3 c 0
 59 18 30 34 4 50 c 0
 1 52 0 51 2 55 c 0
 20 83 35 104 51 128 c 0
EndSplineSet
EndChar

StartChar: colon
Encoding: 58 58 154
Width: 1000
VWidth: 0
Flags: H
LayerCount: 2
Fore
SplineSet
138 474 m 0
 138 436 108 406 70 406 c 0
 32 406 2 436 2 474 c 0
 2 512 32 542 70 542 c 0
 108 542 138 512 138 474 c 0
140 68 m 0
 140 30 110 0 72 0 c 0
 34 0 4 30 4 68 c 0
 4 106 34 136 72 136 c 0
 110 136 140 106 140 68 c 0
EndSplineSet
EndChar

StartChar: lam+meem+haa.init
Encoding: 65689 -1 155
Width: 0
VWidth: 0
Flags: H
LayerCount: 2
Fore
SplineSet
54 276 m 0
 68 280 100 272 121 266 c 0
 212 238 260 230 322 221 c 0
 440 204 500 209 560 218 c 0
 570 219 571 218 570 208 c 0
 568 177 556 152 545 123 c 0
 543 118 541 115 535 116 c 0
 413 127 338 105 252 79 c 0
 168 54 67 11 0 0 c 0
 -25 -4 -40 87 -0 91 c 0
 82 98 181 120 246 142 c 1
 235 155 98 183 14 192 c 0
 5 193 5 197 8 206 c 0
 17 229 31 248 46 269 c 0
 48 272 50 275 54 276 c 0
349 412 m 0
 366 416 391 422 416 419 c 0
 448 415 470 407 503 380 c 0
 507 377 509 372 508 367 c 0
 505 337 499 308 490 280 c 0
 489 277 488 273 484 276 c 0
 438 311 390 336 341 339 c 0
 278 342 201 309 121 266 c 0
 83 245 25 194 15 193 c 0
 6 192 5 197 8 206 c 0
 17 229 31 248 46 269 c 0
 48 272 51 274 54 276 c 0
 151 333 262 392 349 412 c 0
325 763 m 0
 328 772 340 770 343 763 c 0
 354 739 366 710 390 690 c 0
 393 687 398 678 393 670 c 0
 386 659 370 637 368 632 c 1
 376 570 388 454 400 434 c 0
 404 427 411 420 416 419 c 0
 446 415 471 404 503 380 c 0
 507 377 509 372 508 367 c 0
 505 337 499 308 490 280 c 0
 489 277 488 273 484 276 c 0
 420 320 360 370 356 423 c 0
 354 443 327 611 315 674 c 0
 314 679 311 686 310 690 c 0
 309 693 304 708 308 719 c 0
 314 736 319 747 325 763 c 0
EndSplineSet
EndChar

StartChar: noon.fina.alt
Encoding: 65690 -1 156
Width: 0
VWidth: 0
Flags: H
LayerCount: 2
Fore
SplineSet
932 322 m 2
 937 332 946 328 949 322 c 0
 962 299 973 274 1003 270 c 0
 1024 267 1024 179 1003 178 c 0
 992 177 978 178 972 178 c 1
 970 168 964 137 957 120 c 0
 945 88 922 57 908 38 c 0
 776 -140 434 -196 199 -198 c 0
 -83 -201 -236 -141 -328 -86 c 0
 -387 -51 -468 35 -526 91 c 0
 -538 102 -528 121 -514 110 c 0
 -278 -64 -8 -100 217 -98 c 0
 484 -96 823 -6 920 134 c 0
 922 137 924 140 924 144 c 0
 923 187 913 214 900 242 c 0
 898 246 898 251 900 255 c 2
 932 322 l 2
EndSplineSet
EndChar

StartChar: kaf+lam.medi
Encoding: 65691 -1 157
Width: 0
VWidth: 0
Flags: H
LayerCount: 2
Fore
SplineSet
194 94 m 0
 276 65 375 135 382 150 c 1
 378 250 207 318 114 347 c 0
 82 357 91 397 105 435 c 0
 157 581 513 752 664 811 c 0
 678 816 689 812 685 796 c 2
 685 796 676 753 671 732 c 0
 669 724 665 717 655 713 c 0
 513 661 207 498 145 433 c 1
 448 320 583 122 683 88 c 0
 712 78 703 -4 683 -3 c 0
 637 -1 487 157 403 221 c 1
 406 174 408 18 261 -8 c 0
 233 -13 211 -13 192 -10 c 0
 149 -4 173 101 194 94 c 0
110 337 m 0
 113 296 119 115 194 94 c 0
 250 78 231 -16 192 -10 c 0
 110 4 102 81 89 128 c 1
 78 84 46 18 7 7 c 0
 -17 0 -50 87 7 96 c 0
 23 99 66 111 70 133 c 1
 74 196 53 441 42 675 c 0
 42 683 39 690 44 699 c 2
 72 749 l 2
 76 755 81 754 82 742 c 2
 105 435 l 2
 107 407 108 363 110 337 c 0
EndSplineSet
EndChar

StartChar: baa+meem.fina
Encoding: 65692 -1 158
Width: 0
VWidth: 0
Flags: H
LayerCount: 2
Fore
SplineSet
371 189 m 0
 416 188 448 120 478 90 c 0
 487 81 505 69 505 36 c 0
 505 3 484 -2 478 -1 c 0
 424 10 412 73 372 97 c 0
 317 130 225 87 185 55 c 0
 153 29 127 63 138 78 c 0
 144 87 290 191 371 189 c 0
138 78 m 1
 151 73 167 64 185 55 c 0
 236 30 278 14 340 -38 c 0
 344 -41 345 -50 342 -57 c 2
 312 -134 l 2
 311 -138 305 -141 302 -140 c 0
 219 -101 99 -115 37 -173 c 0
 33 -177 34 -180 33 -186 c 0
 23 -224 46 -324 70 -424 c 0
 89 -504 101 -593 99 -640 c 0
 98 -672 73 -687 69 -647 c 0
 58 -549 28 -445 11 -367 c 0
 -9 -273 -21 -191 24 -120 c 0
 53 -73 105 -46 122 -42 c 1
 114 -37 101 -32 92 -28 c 0
 87 -26 87 -22 88 -19 c 0
 99 12 113 45 138 78 c 1
EndSplineSet
EndChar

StartChar: lam+lam.init
Encoding: 65693 -1 159
Width: 0
VWidth: 0
Flags: H
LayerCount: 2
Fore
SplineSet
211 97 m 0
 258 87 253 -11 214 -18 c 0
 172 -26 122 -1 86 129 c 1
 75 89 43 10 0 -1 c 0
 -17 -5 -31 74 0 90 c 0
 41 111 65 129 70 185 c 1
 34 572 l 2
 33 584 31 596 38 608 c 2
 62 651 l 2
 71 666 80 660 81 646 c 0
 91 528 105 291 137 178 c 0
 151 130 183 103 211 97 c 0
207 610 m 0
 213 626 221 639 226 653 c 0
 230 666 243 663 247 651 c 0
 260 616 269 600 287 580 c 0
 293 574 295 565 288 556 c 0
 283 550 276 540 269 532 c 0
 264 527 261 523 262 515 c 1
 271 376 301 188 287 101 c 0
 281 60 266 -10 214 -18 c 0
 187 -22 176 107 211 97 c 0
 227 93 240 95 248 102 c 1
 254 173 224 414 210 570 c 0
 209 576 202 597 207 610 c 0
EndSplineSet
EndChar

StartChar: baa+meem+haa.init
Encoding: 65694 -1 160
Width: 0
VWidth: 0
Flags: H
LayerCount: 2
Fore
SplineSet
412 659 m 0
 441 663 478 651 502 624 c 0
 504 622 505 616 504 613 c 0
 497 588 491 568 483 544 c 0
 478 531 473 530 465 536 c 0
 440 557 386 602 312 528 c 0
 308 524 308 518 309 512 c 0
 314 487 347 401 402 392 c 0
 445 385 308 304 283 376 c 0
 263 434 264 499 281 537 c 0
 317 618 372 652 412 659 c 0
57 267 m 0
 67 272 101 253 129 246 c 0
 239 218 374 178 536 189 c 0
 546 190 558 180 548 167 c 0
 534 149 523 132 502 108 c 0
 498 104 496 102 490 103 c 0
 325 128 169 52 0 0 c 0
 -30 -9 -39 87 0 91 c 0
 89 100 161 116 241 137 c 1
 130 169 66 176 6 177 c 0
 2 177 -1 181 -0 185 c 0
 7 229 27 251 57 267 c 0
283 376 m 0
 312 385 368 400 402 392 c 0
 431 385 465 375 488 352 c 0
 490 350 493 346 491 339 c 2
 466 270 l 2
 465 266 459 264 454 267 c 0
 352 317 294 345 124 249 c 0
 71 219 35 255 57 267 c 0
 80 279 181 345 283 376 c 0
EndSplineSet
EndChar

StartChar: kaf+meem.isol.alt
Encoding: 65695 -1 161
Width: 0
VWidth: 0
Flags: H
LayerCount: 2
Fore
SplineSet
362 167 m 0
 388 143 429 124 470 119 c 0
 475 118 484 124 478 134 c 0
 446 185 386 188 370 185 c 0
 359 183 355 174 362 167 c 0
515 172 m 0
 525 118 498 55 472 46 c 0
 445 36 372 63 348 80 c 1
 339 60 322 30 301 18 c 0
 207 -35 98 -65 23 -81 c 1
 1 -88 -4 -74 17 -62 c 0
 113 -5 311 85 318 107 c 1
 299 140 334 243 386 245 c 0
 407 246 503 236 515 172 c 0
851 778 m 0
 704 767 555 753 400 654 c 1
 459 588 546 475 572 373 c 0
 591 298 577 212 515 172 c 0
 463 138 322 242 386 245 c 0
 451 248 510 230 550 270 c 1
 548 308 471 469 409 521 c 0
 401 528 385 515 374 511 c 0
 367 509 357 511 349 525 c 2
 323 571 l 2
 319 579 315 587 320 602 c 0
 329 631 341 663 357 685 c 1
 527 815 700 848 902 862 c 0
 910 863 918 854 908 840 c 2
 868 785 l 2
 862 776 861 779 851 778 c 0
EndSplineSet
EndChar

StartChar: baa.isol
Encoding: 65696 -1 162
Width: 0
VWidth: 0
Flags: H
LayerCount: 2
Fore
SplineSet
757 381 m 0
 816 314 812 149 754 108 c 0
 680 56 516 20 402 7 c 0
 265 -8 114 0 31 93 c 0
 1 127 -33 212 69 324 c 0
 82 339 97 320 86 309 c 0
 70 292 48 260 52 234 c 0
 65 147 168 100 347 103 c 0
 497 105 677 141 761 199 c 1
 755 240 726 275 714 294 c 0
 712 297 711 301 712 305 c 0
 718 332 728 358 739 381 c 0
 742 388 748 391 757 381 c 0
EndSplineSet
EndChar

StartChar: raa.fina.alt
Encoding: 65697 -1 163
Width: 0
VWidth: 0
Flags: H
LayerCount: 2
Fore
SplineSet
591 0 m 0
 543 0 522 16 506 45 c 1
 480 44 378 21 355 7 c 0
 348 3 346 5 345 -11 c 0
 343 -53 337 -88 323 -122 c 0
 283 -216 196 -318 124 -317 c 0
 64 -316 -23 -274 -42 -259 c 0
 -51 -252 -48 -236 -33 -242 c 0
 20 -263 50 -263 107 -254 c 0
 154 -247 270 -165 312 -65 c 0
 313 -62 314 -61 313 -58 c 0
 307 -38 299 -15 282 7 c 0
 280 10 280 16 281 19 c 0
 285 42 294 65 301 81 c 0
 304 88 309 94 319 97 c 0
 384 117 461 138 522 152 c 0
 527 153 536 151 538 144 c 0
 543 123 544 99 591 91 c 0
 620 86 613 0 591 0 c 0
EndSplineSet
EndChar

StartChar: kaf+meem+lam.init
Encoding: 65698 -1 164
Width: 0
VWidth: 0
Flags: H
LayerCount: 2
Fore
SplineSet
110 394 m 0
 132 214 147 141 206 89 c 0
 244 56 209 -24 180 4 c 0
 148 35 121 78 98 138 c 1
 70 47 21 4 0 0 c 0
 -19 -4 -41 83 0 91 c 0
 31 97 73 111 72 152 c 0
 71 192 47 479 27 649 c 1
 26 670 25 680 28 687 c 0
 37 710 45 721 54 743 c 0
 60 758 69 750 69 742 c 2
 98 481 l 2
 101 453 105 432 110 394 c 0
206 89 m 1
 228 162 298 138 253 101 c 0
 247 96 245 89 250 84 c 0
 272 61 301 35 371 21 c 0
 375 20 378 15 378 10 c 2
 364 -72 l 1
 364 -80 357 -82 353 -81 c 0
 285 -65 228 -43 179 5 c 0
 138 45 164 118 206 89 c 1
110 394 m 0
 75 401 76 437 98 481 c 0
 151 587 376 678 670 772 c 0
 678 774 687 771 685 761 c 2
 685 761 679 721 672 700 c 0
 666 681 656 680 648 678 c 0
 511 646 243 553 157 481 c 0
 154 479 155 477 159 476 c 0
 301 449 404 369 437 281 c 0
 461 216 421 157 395 143 c 0
 336 111 283 124 253 101 c 0
 220 75 193 32 206 89 c 0
 209 104 217 130 249 162 c 0
 297 210 382 179 419 223 c 1
 374 312 230 371 110 394 c 0
EndSplineSet
EndChar

StartChar: baa+baa.isol
Encoding: 65699 -1 165
Width: 0
VWidth: 0
Flags: H
LayerCount: 2
Fore
SplineSet
726 180 m 0
 745 171 741 156 736 138 c 0
 732 123 722 93 706 101 c 0
 702 103 700 105 696 102 c 0
 590 28 435 0 272 2 c 0
 83 4 22 62 6 127 c 0
 -12 200 20 275 52 309 c 0
 62 319 79 307 68 294 c 0
 21 239 34 179 82 145 c 0
 146 99 262 97 324 97 c 0
 431 96 522 115 579 130 c 0
 666 153 684 169 699 225 c 0
 704 242 730 241 727 215 c 0
 726 205 724 202 722 192 c 0
 721 187 721 182 726 180 c 0
875 267 m 0
 876 270 877 269 879 267 c 0
 901 244 907 191 897 151 c 0
 886 106 871 71 853 65 c 0
 821 53 739 79 706 101 c 0
 687 114 687 129 694 153 c 0
 699 170 711 187 726 180 c 0
 782 153 823 151 864 155 c 0
 869 156 872 157 871 158 c 0
 868 164 856 175 851 179 c 0
 849 180 848 180 849 183 c 0
 858 212 867 239 875 267 c 0
EndSplineSet
EndChar

StartChar: kaf+kaf.fina
Encoding: 65700 -1 166
Width: 0
VWidth: 0
Flags: H
LayerCount: 2
Fore
SplineSet
503 338 m 0
 480 344 480 387 495 428 c 0
 537 545 872 724 1056 799 c 0
 1065 803 1069 794 1067 784 c 2
 1067 784 1059 743 1054 722 c 0
 1052 713 1045 709 1038 706 c 0
 891 641 653 511 542 429 c 1
 656 400 757 342 856 278 c 0
 956 214 1094 100 1158 90 c 0
 1194 85 1199 -1 1158 0 c 0
 1068 2 871 207 799 233 c 1
 824 102 782 -2 657 -21 c 0
 598 -30 577 65 646 72 c 0
 703 78 767 116 790 145 c 1
 739 254 640 302 503 338 c 0
189 592 m 1
 195 592 197 587 195 582 c 2
 181 538 l 2
 178 528 173 525 170 524 c 0
 157 521 138 518 131 509 c 0
 125 501 140 491 188 476 c 0
 257 454 216 368 154 330 c 1
 118 314 56 330 15 345 c 0
 0 350 2 367 14 368 c 0
 88 373 136 373 160 386 c 1
 170 396 138 408 131 412 c 1
 105 422 85 436 87 460 c 0
 91 514 130 573 189 592 c 1
503 338 m 0
 515 240 528 105 577 81 c 0
 597 71 620 70 646 72 c 0
 695 76 698 -13 657 -21 c 0
 494 -53 477 122 469 182 c 1
 459 162 439 108 383 71 c 0
 327 34 218 1 99 -10 c 0
 -16 -21 -95 13 -136 52 c 0
 -216 128 -180 249 -128 345 c 0
 -122 357 -106 345 -111 337 c 0
 -150 269 -189 105 84 97 c 0
 263 92 414 149 460 233 c 1
 449 356 435 482 433 603 c 0
 433 615 433 634 436 646 c 2
 457 728 l 2
 460 739 476 739 477 725 c 2
 495 428 l 2
 497 394 500 364 503 338 c 0
EndSplineSet
EndChar

StartChar: raa.fina
Encoding: 65701 -1 167
Width: 0
VWidth: 0
Flags: H
LayerCount: 2
Fore
SplineSet
315 122 m 0
 325 150 334 174 345 202 c 0
 349 212 355 213 358 208 c 0
 387 164 392 150 428 150 c 0
 437 150 452 139 452 106 c 0
 452 73 439 61 428 60 c 0
 428 60 405 60 395 59 c 0
 393 59 391 58 391 54 c 0
 389 -15 364 -74 320 -131 c 0
 282 -180 240 -213 197 -218 c 0
 126 -226 73 -212 10 -177 c 0
 -5 -170 1 -155 14 -159 c 0
 98 -180 161 -167 234 -119 c 1
 285 -84 347 -26 359 33 c 1
 360 46 357 61 318 100 c 0
 315 103 311 110 315 122 c 0
EndSplineSet
EndChar

StartChar: ayn.init.alt
Encoding: 65702 -1 168
Width: 0
VWidth: 0
Flags: H
LayerCount: 2
Fore
SplineSet
327 181 m 1
 327 181 309 141 297 114 c 0
 294 107 287 102 280 99 c 0
 110 27 19 -1 0 0 c 1
 -22 0 -26 18 -31 46 c 0
 -38 83 -24 87 -0 90 c 0
 12 92 26 97 33 101 c 1
 14 120 -11 160 -9 191 c 0
 -4 279 75 358 145 376 c 0
 182 386 239 361 281 315 c 0
 295 299 281 278 264 285 c 0
 180 321 55 288 43 236 c 0
 37 208 94 142 127 135 c 0
 203 118 252 165 312 196 c 0
 322 201 328 190 327 181 c 1
EndSplineSet
EndChar

StartChar: meem+haa+meem.init
Encoding: 65703 -1 169
Width: 0
VWidth: 0
Flags: H
LayerCount: 2
Fore
SplineSet
184 248 m 0
 196 254 230 238 260 213 c 0
 282 195 314 141 308 112 c 0
 302 84 279 40 272 39 c 1
 218 40 139 66 94 99 c 1
 72 59 42 2 0 0 c 0
 -22 -1 -34 90 -0 90 c 0
 25 90 75 107 81 121 c 0
 88 137 99 166 118 195 c 0
 132 216 159 236 184 248 c 0
160 190 m 1
 143 190 138 177 137 168 c 1
 165 141 240 121 262 125 c 1
 249 157 193 187 160 190 c 1
172 396 m 0
 182 406 207 407 252 397 c 0
 397 365 551 318 685 318 c 0
 693 318 696 309 691 300 c 2
 663 246 l 2
 660 240 653 239 646 240 c 0
 510 253 372 238 260 213 c 0
 195 198 146 236 191 251 c 0
 234 266 304 278 363 289 c 1
 308 306 208 328 169 326 c 0
 160 325 156 332 158 341 c 2
 168 390 l 2
 169 394 170 394 172 396 c 0
479 624 m 0
 487 630 495 630 506 629 c 0
 546 624 585 602 610 555 c 0
 613 549 613 541 611 535 c 0
 603 512 583 453 554 453 c 0
 472 453 325 439 252 397 c 0
 216 376 198 357 169 326 c 1
 160 325 156 332 158 341 c 2
 168 390 l 2
 169 394 169 394 172 396 c 0
 279 469 389 499 453 516 c 0
 454 516 455 517 453 518 c 2
 438 528 l 2
 430 534 430 543 433 554 c 0
 439 577 456 607 479 624 c 0
EndSplineSet
EndChar

StartChar: kaf+meem.init
Encoding: 65704 -1 170
Width: 0
VWidth: 0
Flags: H
LayerCount: 2
Fore
SplineSet
155 228 m 0
 171 237 230 249 274 192 c 0
 313 141 269 31 234 37 c 0
 198 44 138 66 101 102 c 1
 80 69 61 2 0 0 c 0
 -29 -1 -32 89 0 91 c 0
 27 92 63 105 82 127 c 0
 106 154 125 212 155 228 c 0
182 170 m 0
 173 170 163 168 154 164 c 0
 150 162 151 158 153 156 c 0
 186 129 220 119 252 113 c 0
 257 112 262 113 261 118 c 0
 256 142 219 170 182 170 c 0
685 785 m 0
 696 785 701 772 694 764 c 1
 658 713 l 1
 651 706 640 704 634 704 c 0
 506 697 223 664 126 594 c 0
 122 591 127 589 129 587 c 0
 191 538 310 402 322 314 c 0
 325 289 330 211 274 184 c 0
 251 173 128 211 154 227 c 0
 185 246 254 225 292 238 c 0
 295 239 298 243 298 247 c 0
 295 300 226 392 165 440 c 0
 162 443 157 443 154 441 c 0
 149 437 147 432 141 425 c 0
 139 422 132 421 127 425 c 0
 103 446 88 461 68 482 c 0
 64 486 59 491 59 499 c 0
 59 518 74 589 105 622 c 0
 220 745 564 780 685 785 c 0
EndSplineSet
EndChar

StartChar: lam+kaf.fina
Encoding: 65705 -1 171
Width: 0
VWidth: 0
Flags: H
LayerCount: 2
Fore
SplineSet
620 672 m 2
 622 679 636 683 638 663 c 0
 641 630 668 348 688 232 c 0
 695 195 703 106 747 65 c 0
 780 34 788 -62 768 -60 c 0
 712 -53 671 54 654 137 c 1
 632 99 582 56 555 41 c 0
 474 -5 361 -41 255 -42 c 0
 165 -43 79 -20 21 60 c 1
 -5 105 -20 173 66 297 c 0
 81 318 92 301 83 288 c 0
 29 214 47 163 81 127 c 0
 108 100 159 51 294 59 c 0
 403 66 527 95 596 144 c 0
 615 158 637 193 635 220 c 0
 633 242 614 381 596 579 c 0
 595 588 595 596 598 605 c 2
 620 672 l 2
388 555 m 1
 394 555 396 550 394 545 c 2
 372 491 l 2
 368 481 364 479 361 478 c 0
 348 475 329 466 322 457 c 0
 316 449 340 435 387 428 c 0
 434 421 420 384 417 376 c 0
 406 346 371 291 345 284 c 0
 316 277 234 285 193 300 c 0
 178 305 180 322 192 323 c 0
 266 328 334 323 358 336 c 0
 364 339 360 347 351 349 c 2
 322 355 l 2
 291 362 269 385 275 408 c 0
 293 482 325 538 388 555 c 1
768 -60 m 0
 719 -53 702 113 747 65 c 0
 770 41 804 31 839 51 c 1
 821 221 782 429 767 617 c 0
 766 625 765 631 769 638 c 0
 777 654 788 667 794 677 c 0
 797 682 805 684 808 670 c 1
 813 635 832 450 846 364 c 0
 866 239 867 154 930 90 c 0
 956 64 949 -13 930 0 c 0
 901 19 877 51 862 84 c 1
 859 24 844 -70 768 -60 c 0
EndSplineSet
EndChar

StartChar: ayn+yaa.fina
Encoding: 65706 -1 172
Width: 0
VWidth: 0
Flags: H
LayerCount: 2
Fore
SplineSet
509 292 m 0
 518 363 580 400 652 403 c 0
 693 405 744 377 766 350 c 0
 788 323 793 313 783 290 c 0
 776 273 756 252 736 237 c 1
 760 224 791 214 826 212 c 0
 845 211 861 201 859 177 c 0
 857 153 849 118 826 119 c 0
 749 124 721 155 663 193 c 0
 659 196 655 195 650 193 c 0
 598 175 541 157 501 134 c 0
 477 120 431 98 415 88 c 0
 392 74 383 100 383 124 c 1
 384 136 390 142 396 146 c 0
 453 186 520 216 589 244 c 1
 569 258 548 270 519 277 c 0
 513 278 509 285 509 292 c 0
396 146 m 1
 418 143 435 140 457 136 c 0
 498 128 622 105 639 55 c 0
 648 31 631 -35 624 -45 c 0
 597 -88 407 -175 269 -195 c 0
 168 -210 21 -193 3 -35 c 0
 -4 24 36 155 80 221 c 0
 89 235 106 224 96 205 c 0
 73 161 34 69 69 -15 c 0
 96 -79 182 -113 295 -95 c 0
 398 -79 505 -42 589 15 c 0
 593 18 594 22 588 25 c 0
 533 54 465 61 394 67 c 0
 388 68 383 70 382 76 c 0
 379 90 382 108 383 124 c 0
 384 136 390 142 396 146 c 1
EndSplineSet
EndChar

StartChar: dal.fina
Encoding: 65707 -1 173
Width: 0
VWidth: 0
Flags: H
LayerCount: 2
Fore
SplineSet
410 90 m 0
 443 82 435 -1 409 0 c 0
 342 4 327 79 313 143 c 0
 312 149 308 146 307 143 c 0
 301 125 276 59 226 37 c 0
 192 22 82 9 35 24 c 0
 -15 40 5 120 16 151 c 0
 24 172 39 168 42 161 c 0
 48 146 51 127 72 120 c 0
 124 102 207 115 246 131 c 0
 269 141 292 164 297 187 c 0
 299 196 294 230 288 271 c 0
 280 325 270 389 266 420 c 0
 264 435 265 442 269 452 c 0
 276 469 284 485 292 503 c 0
 296 512 310 511 311 499 c 0
 325 375 352 211 364 165 c 0
 371 137 382 97 410 90 c 0
EndSplineSet
EndChar

StartChar: kaf+baa.init
Encoding: 65708 -1 174
Width: 0
VWidth: 0
Flags: H
LayerCount: 2
Fore
SplineSet
221 31 m 0
 182 41 142 69 116 91 c 0
 112 95 108 95 105 91 c 0
 90 71 56 11 0 0 c 0
 -20 -4 -38 88 1 90 c 0
 54 93 97 119 117 145 c 0
 124 154 133 147 134 146 c 0
 154 128 187 109 219 98 c 0
 249 88 264 20 221 31 c 0
-44 401 m 0
 -48 399 -49 389 -45 388 c 0
 154 333 308 268 310 121 c 0
 310 97 308 51 286 38 c 0
 267 26 244 25 221 31 c 0
 186 40 178 112 219 98 c 0
 248 88 275 87 287 103 c 0
 288 104 290 106 289 108 c 0
 256 211 71 269 -45 296 c 0
 -60 299 -70 307 -74 323 c 0
 -84 365 -62 441 -54 450 c 0
 10 518 318 660 489 720 c 0
 500 724 517 721 509 700 c 0
 501 678 494 659 487 644 c 0
 484 637 477 633 475 632 c 0
 396 606 74 470 -44 401 c 0
EndSplineSet
EndChar

StartChar: kaf+lam+alef.fina
Encoding: 65709 -1 175
Width: 0
VWidth: 0
Flags: H
LayerCount: 2
Fore
SplineSet
303 191 m 0
 308 155 272 85 273 142 c 0
 275 223 202 390 63 436 c 0
 61 437 56 437 56 430 c 2
 55 405 l 1
 53 394 45 393 36 396 c 0
 -116 444 -96 516 -84 589 c 0
 -81 605 -68 607 -57 602 c 0
 115 528 272 428 303 191 c 0
577 93 m 0
 609 96 601 -4 580 -6 c 0
 393 -21 419 106 390 394 c 1
 366 262 316 76 204 -0 c 0
 122 -55 31 -60 -57 -55 c 0
 -78 -54 -69 -43 -62 -40 c 0
 54 -3 160 31 273 142 c 0
 287 156 293 174 303 191 c 0
 337 250 361 483 370 636 c 0
 372 651 374 665 380 676 c 2
 413 733 l 2
 420 745 432 740 432 730 c 2
 439 449 l 2
 440 411 440 384 442 350 c 0
 446 289 450 138 489 111 c 0
 510 96 543 90 577 93 c 0
577 93 m 0
 625 96 680 119 711 162 c 1
 695 202 606 316 446 357 c 0
 419 364 425 415 439 449 c 0
 454 485 477 507 502 528 c 0
 616 628 954 761 1052 801 c 0
 1062 805 1076 803 1075 789 c 1
 1063 729 l 2
 1062 722 1057 719 1051 717 c 0
 907 670 500 477 480 440 c 1
 567 418 658 372 753 304 c 0
 839 243 911 175 993 122 c 0
 1026 101 1045 99 1072 91 c 0
 1109 80 1102 -6 1072 -0 c 0
 971 22 785 211 728 239 c 1
 736 218 739 196 740 168 c 0
 742 75 699 2 580 -6 c 0
 532 -9 542 91 577 93 c 0
EndSplineSet
EndChar

StartChar: haa.fina
Encoding: 65710 -1 176
Width: 0
VWidth: 0
Flags: H
LayerCount: 2
Fore
SplineSet
168 620 m 0
 208 620 250 612 286 606 c 0
 379 590 459 587 570 606 c 0
 586 609 595 602 592 595 c 2
 565 534 l 2
 563 528 559 526 553 525 c 0
 512 520 471 513 431 505 c 1
 449 442 548 448 598 450 c 0
 640 451 624 361 599 359 c 0
 500 353 368 359 391 497 c 1
 327 482 268 461 220 430 c 0
 111 359 61 243 74 141 c 0
 82 74 131 -2 213 -38 c 0
 306 -79 537 -58 691 -44 c 0
 725 -41 713 -66 698 -70 c 0
 619 -93 591 -127 560 -141 c 0
 551 -145 548 -147 539 -148 c 0
 395 -161 220 -169 114 -92 c 0
 14 -18 11 110 35 219 c 0
 59 329 115 437 273 517 c 1
 188 537 113 532 60 503 c 0
 52 499 42 504 42 511 c 0
 45 597 102 619 168 620 c 0
EndSplineSet
EndChar

StartChar: seen.fina
Encoding: 65711 -1 177
Width: 0
VWidth: 0
Flags: H
LayerCount: 2
Fore
SplineSet
877 183 m 0
 882 198 897 207 908 190 c 0
 931 154 959 109 999 90 c 0
 1036 72 1023 -7 998 -0 c 0
 927 21 906 91 894 113 c 0
 892 116 886 116 885 112 c 0
 860 22 845 -16 811 -17 c 0
 774 -18 735 -2 703 28 c 1
 651 -28 590 -23 562 -20 c 1
 560 -92 550 -142 530 -189 c 1
 529 -189 l 1
 517 -217 499 -242 471 -264 c 0
 409 -311 325 -350 217 -350 c 0
 136 -350 91 -327 47 -284 c 0
 -41 -198 12 -42 71 63 c 0
 79 77 97 69 90 54 c 0
 67 5 30 -61 39 -109 c 0
 52 -181 122 -236 227 -243 c 1
 323 -246 454 -211 517 -119 c 1
 533 -61 512 -2 481 47 c 0
 479 51 477 63 478 66 c 0
 486 94 501 149 501 149 c 2
 505 161 512 160 516 155 c 0
 529 138 535 117 542 98 c 0
 551 73 600 74 623 76 c 0
 702 82 719 123 737 173 c 0
 744 193 768 182 764 166 c 0
 760 150 743 123 764 110 c 0
 787 96 820 86 845 98 c 0
 858 104 870 160 877 183 c 0
EndSplineSet
EndChar

StartChar: faa+yaa.isol
Encoding: 65712 -1 178
Width: 0
VWidth: 0
Flags: H
LayerCount: 2
Fore
SplineSet
415 141 m 0
 434 142 498 130 535 118 c 0
 552 112 595 94 611 70 c 0
 623 52 614 -15 591 -40 c 0
 528 -110 379 -191 228 -200 c 0
 46 -211 -15 -73 21 53 c 0
 35 103 72 179 112 229 c 0
 124 243 138 226 130 215 c 0
 91 161 56 98 58 49 c 0
 61 -35 137 -90 245 -92 c 0
 385 -94 521 -19 559 17 c 0
 564 22 567 29 561 32 c 0
 506 60 442 65 388 69 c 0
 383 69 379 77 381 80 c 1
 385 98 391 117 405 135 c 0
 406 137 412 141 415 141 c 0
493 471 m 0
 547 471 594 345 594 281 c 0
 594 173 566 148 535 118 c 0
 510 94 432 69 388 69 c 0
 383 69 379 77 381 80 c 1
 385 98 391 117 405 135 c 0
 406 137 413 141 415 141 c 0
 483 148 554 183 569 213 c 0
 579 235 551 278 535 287 c 1
 506 230 471 218 447 223 c 0
 379 239 378 305 399 364 c 1
 419 415 458 467 489 470 c 0
 490 470 492 471 493 471 c 0
447 372 m 0
 438 372 430 366 421 354 c 0
 416 348 419 343 423 340 c 0
 441 327 468 322 487 343 c 0
 489 345 489 349 486 351 c 0
 472 362 460 372 447 372 c 0
EndSplineSet
EndChar

StartChar: taa.medi
Encoding: 65713 -1 179
Width: 0
VWidth: 0
Flags: H
LayerCount: 2
Fore
SplineSet
58 675 m 0
 66 696 74 712 83 730 c 0
 87 738 95 736 99 728 c 0
 111 701 115 680 141 653 c 0
 148 645 148 635 141 627 c 0
 132 617 131 614 124 605 c 0
 120 600 120 590 121 583 c 0
 125 541 145 372 141 295 c 0
 139 265 132 199 127 175 c 1
 185 221 253 274 318 303 c 0
 346 315 379 323 406 318 c 0
 433 313 465 279 480 247 c 0
 484 240 483 225 481 217 c 0
 475 186 457 144 433 116 c 0
 416 96 390 77 351 54 c 1
 414 54 447 58 551 78 c 0
 582 84 575 -11 551 -13 c 0
 479 -18 360 -12 251 -1 c 1
 200 -7 51 -4 0 0 c 0
 -31 3 -46 90 0 90 c 0
 7 90 38 90 45 90 c 1
 61 105 72 118 101 148 c 1
 106 300 86 457 66 613 c 0
 65 621 61 652 59 660 c 0
 58 665 56 670 58 675 c 0
312 218 m 0
 308 218 303 218 299 217 c 0
 234 206 147 142 92 89 c 1
 225 93 331 123 408 160 c 1
 398 177 364 218 312 218 c 0
EndSplineSet
EndChar

StartChar: lam+alef.fina
Encoding: 65714 -1 180
Width: 0
VWidth: 0
Flags: H
LayerCount: 2
Fore
SplineSet
394 198 m 0
 400 150 385 99 372 153 c 0
 345 265 265 339 175 395 c 0
 170 398 161 405 156 395 c 0
 154 391 148 380 146 375 c 0
 138 359 127 365 109 377 c 2
 22 437 l 2
 6 448 2 456 3 468 c 1
 3 468 1 570 1 574 c 0
 1 586 20 600 38 591 c 0
 201 509 374 363 394 198 c 0
452 634 m 0
 481 679 l 2
 488 690 500 687 499 673 c 0
 498 650 522 326 550 205 c 0
 560 161 577 115 619 91 c 0
 634 82 635 -1 619 0 c 0
 587 1 531 36 514 104 c 0
 490 203 477 365 471 397 c 0
 470 403 466 411 465 397 c 0
 450 225 392 8 238 -31 c 0
 171 -48 90 -60 79 -56 c 0
 72 -53 72 -44 80 -41 c 0
 149 -15 320 77 372 153 c 0
 381 166 387 184 394 198 c 0
 426 264 448 466 445 586 c 0
 445 603 447 626 452 634 c 0
EndSplineSet
EndChar

StartChar: lam+haa.init
Encoding: 65715 -1 181
Width: 0
VWidth: 0
Flags: H
LayerCount: 2
Fore
SplineSet
36 279 m 0
 84 297 173 284 232 265 c 0
 286 247 328 235 404 220 c 0
 447 211 492 206 561 201 c 0
 567 201 573 193 571 181 c 0
 567 157 557 133 551 121 c 0
 543 105 533 109 528 110 c 0
 469 122 389 128 296 107 c 0
 203 86 125 30 0 0 c 1
 -17 -2 -44 82 0 91 c 1
 79 106 169 123 249 163 c 1
 218 177 139 196 105 199 c 0
 71 202 31 204 -1 202 c 0
 -4 202 -7 206 -6 208 c 0
 2 235 11 255 17 265 c 0
 21 272 28 276 36 279 c 0
184 610 m 0
 181 631 167 652 177 672 c 0
 185 688 197 705 202 713 c 0
 207 720 215 721 217 710 c 0
 222 688 246 653 262 636 c 0
 267 631 267 622 262 615 c 0
 255 606 251 600 241 587 c 0
 237 582 237 576 238 566 c 0
 246 467 277 319 232 269 c 0
 179 210 64 205 0 202 c 0
 -4 202 -7 206 -6 210 c 0
 2 235 11 256 17 265 c 0
 21 272 28 276 36 279 c 0
 80 296 142 293 189 300 c 0
 201 302 219 319 218 334 c 1
 213 383 194 536 184 610 c 0
EndSplineSet
EndChar

StartChar: baa+haa.init
Encoding: 65716 -1 182
Width: 0
VWidth: 0
Flags: H
LayerCount: 2
Fore
SplineSet
438 359 m 0
 439 339 417 340 416 357 c 0
 415 373 403 437 382 452 c 0
 375 457 366 459 356 449 c 1
 296 360 159 224 -15 180 c 1
 -24 179 -20 186 -19 189 c 0
 -10 215 -5 232 4 251 c 0
 7 257 15 267 22 270 c 0
 79 296 152 319 216 361 c 0
 261 391 288 421 307 449 c 0
 328 480 341 551 377 552 c 0
 424 553 435 404 438 359 c 0
22 270 m 0
 41 277 104 271 156 257 c 0
 273 226 396 196 537 195 c 0
 548 195 560 183 553 170 c 2
 528 121 l 2
 525 115 516 108 508 109 c 0
 307 140 152 39 0 0 c 0
 -24 -6 -42 88 -0 91 c 0
 80 96 156 115 220 140 c 0
 225 142 227 145 221 147 c 0
 152 169 70 187 -15 180 c 0
 -24 179 -20 186 -19 189 c 0
 -10 215 -5 232 4 251 c 0
 7 257 15 267 22 270 c 0
EndSplineSet
EndChar

StartChar: taa.isol
Encoding: 65717 -1 183
Width: 0
VWidth: 0
Flags: H
LayerCount: 2
Fore
SplineSet
267 646 m 0
 271 652 279 650 283 644 c 1
 295 619 298 595 327 565 c 0
 329 563 332 552 327 545 c 0
 320 535 314 529 308 520 c 0
 304 515 302 510 303 503 c 0
 307 463 326 277 322 204 c 0
 320 175 317 109 312 88 c 1
 336 107 l 1
 475 217 537 235 579 240 c 0
 590 241 605 239 625 226 c 0
 645 213 680 188 683 161 c 0
 688 117 633 28 617 12 c 0
 592 -14 393 -96 167 -106 c 1
 85 -92 36 -45 22 -17 c 0
 13 1 21 3 27 2 c 0
 80 -6 157 -4 218 0 c 1
 240 21 261 40 284 64 c 1
 293 214 267 389 249 538 c 0
 248 546 245 565 242 579 c 0
 241 584 242 589 244 594 c 0
 252 614 256 627 267 646 c 0
526 137 m 0
 430 135 349 70 276 7 c 1
 373 16 514 45 605 95 c 1
 594 116 570 138 526 137 c 0
EndSplineSet
EndChar

StartChar: seen+haa.isol
Encoding: 65718 -1 184
Width: 0
VWidth: 0
Flags: H
LayerCount: 2
Fore
SplineSet
37 487 m 0
 41 495 96 493 116 493 c 0
 260 493 405 503 544 505 c 0
 550 505 555 500 552 493 c 2
 529 442 l 2
 526 435 525 432 511 431 c 0
 407 424 308 402 226 365 c 0
 127 320 50 228 42 133 c 0
 31 0 95 -78 220 -117 c 0
 444 -186 624 -145 674 -138 c 0
 680 -137 686 -150 677 -154 c 0
 618 -180 541 -209 485 -230 c 0
 477 -233 449 -240 440 -240 c 0
 317 -246 224 -235 120 -180 c 0
 18 -126 -19 -4 10 126 c 0
 47 290 127 361 221 419 c 0
 225 422 224 424 220 424 c 0
 144 430 102 429 29 429 c 0
 25 429 23 433 24 438 c 0
 27 455 31 472 37 487 c 0
641 791 m 0
 645 803 655 798 657 795 c 0
 671 780 685 707 660 656 c 0
 651 637 639 616 621 600 c 0
 611 591 600 588 591 589 c 0
 557 592 518 605 499 645 c 0
 497 649 491 649 489 645 c 0
 465 597 426 565 391 564 c 0
 335 563 313 595 279 655 c 0
 270 671 253 675 247 662 c 0
 206 573 162 529 116 503 c 1
 100 491 22 427 24 438 c 0
 28 463 34 486 46 509 c 0
 48 512 54 518 57 519 c 0
 193 574 212 668 258 736 c 0
 268 751 284 748 293 734 c 0
 338 665 375 656 411 658 c 0
 460 660 487 699 523 773 c 0
 532 791 549 778 543 764 c 0
 539 753 532 737 532 728 c 0
 530 692 601 674 632 677 c 0
 635 677 639 680 639 682 c 0
 640 689 632 701 620 713 c 0
 616 717 617 723 619 729 c 0
 626 749 633 768 641 791 c 0
EndSplineSet
EndChar

StartChar: faa.init
Encoding: 65719 -1 185
Width: 0
VWidth: 0
Flags: H
LayerCount: 2
Fore
SplineSet
115 409 m 0
 115 409 l 1
 115 409 l 2
 146 409 239 319 232 195 c 0
 227 108 188 63 121 32 c 0
 79 12 44 5 0 0 c 0
 -27 -3 -32 90 -0 93 c 0
 77 100 159 137 188 162 c 1
 187 181 179 199 175 206 c 0
 171 214 164 209 162 205 c 0
 142 151 86 137 38 161 c 0
 16 172 6 202 9 239 c 0
 14 307 72 409 115 409 c 0
82 301 m 0
 66 301 56 281 55 262 c 0
 54 260 54 257 56 256 c 0
 79 249 99 252 117 260 c 0
 119 261 123 265 123 266 c 0
 118 281 96 301 82 301 c 0
EndSplineSet
EndChar

StartChar: baa+seen.init
Encoding: 65720 -1 186
Width: 0
VWidth: 0
Flags: H
LayerCount: 2
Fore
SplineSet
498 238 m 0
 510 213 507 130 492 152 c 0
 489 156 486 156 484 150 c 0
 473 121 443 59 425 43 c 0
 416 35 400 34 385 35 c 0
 355 37 319 52 289 81 c 1
 263 48 231 19 188 20 c 0
 145 21 118 54 108 74 c 0
 107 76 104 76 103 74 c 0
 81 47 39 15 0 0 c 0
 -12 -5 -39 82 0 91 c 0
 46 102 98 128 136 199 c 0
 143 213 159 204 156 194 c 0
 149 173 143 157 146 150 c 0
 153 135 178 115 215 115 c 0
 273 116 317 167 337 218 c 0
 344 236 363 227 358 213 c 0
 354 201 351 192 347 175 c 0
 346 171 346 166 350 162 c 0
 366 144 414 132 431 134 c 0
 441 135 449 143 452 150 c 0
 463 176 471 208 481 238 c 0
 486 252 493 249 498 238 c 0
580 497 m 0
 612 435 667 267 648 136 c 0
 645 114 632 61 607 64 c 0
 557 69 510 124 492 152 c 0
 480 170 476 204 478 225 c 0
 480 245 489 257 498 238 c 0
 530 170 599 144 614 141 c 0
 618 140 621 142 621 151 c 0
 621 225 578 336 549 386 c 0
 544 394 547 398 548 404 c 0
 552 429 561 478 567 498 c 0
 569 505 575 506 580 497 c 0
EndSplineSet
EndChar

StartChar: ayn.init
Encoding: 65721 -1 187
Width: 0
VWidth: 0
Flags: H
LayerCount: 2
Fore
SplineSet
414 252 m 1
 414 252 401 203 393 172 c 0
 391 165 384 160 377 157 c 0
 244 108 0 0 0 0 c 1
 -13 0 -22 0 -31 48 c 0
 -40 94 -8 88 0 91 c 0
 20 97 41 107 69 119 c 1
 50 138 25 157 34 210 c 0
 49 297 118 372 192 397 c 0
 228 409 286 377 328 331 c 0
 342 315 328 299 311 306 c 0
 233 338 114 311 91 255 c 0
 82 233 136 187 169 183 c 0
 269 171 341 234 401 265 c 0
 411 270 415 261 414 252 c 1
EndSplineSet
EndChar
